<?xml version="1.0" encoding="utf-8" standalone="no"?>
<!DOCTYPE svg PUBLIC "-//W3C//DTD SVG 1.1//EN"
  "http://www.w3.org/Graphics/SVG/1.1/DTD/svg11.dtd">
<svg xmlns:xlink="http://www.w3.org/1999/xlink" width="907.4pt" height="568.683125pt" viewBox="0 0 907.4 568.683125" xmlns="http://www.w3.org/2000/svg" version="1.1">
 <metadata>
  <rdf:RDF xmlns:dc="http://purl.org/dc/elements/1.1/" xmlns:cc="http://creativecommons.org/ns#" xmlns:rdf="http://www.w3.org/1999/02/22-rdf-syntax-ns#">
   <cc:Work>
    <dc:type rdf:resource="http://purl.org/dc/dcmitype/StillImage"/>
    <dc:date>2026-02-18T19:00:31.615256</dc:date>
    <dc:format>image/svg+xml</dc:format>
    <dc:creator>
     <cc:Agent>
      <dc:title>Matplotlib v3.10.0, https://matplotlib.org/</dc:title>
     </cc:Agent>
    </dc:creator>
   </cc:Work>
  </rdf:RDF>
 </metadata>
 <defs>
  <style type="text/css">*{stroke-linejoin: round; stroke-linecap: butt}</style>
 </defs>
 <g id="figure_1">
  <g id="patch_1">
   <path d="M 0 568.683125 
L 907.4 568.683125 
L 907.4 0 
L 0 0 
z
" style="fill: #ffffff"/>
  </g>
  <g id="axes_1">
   <g id="patch_2">
    <path d="M 174.8 525.837188 
L 900.2 525.837188 
L 900.2 26.877187 
L 174.8 26.877187 
z
" style="fill: #ffffff"/>
   </g>
   <g id="patch_3">
    <path d="M 174.8 503.157188 
L 307.995685 503.157188 
L 307.995685 472.404645 
L 174.8 472.404645 
z
" clip-path="url(#p76768c6a87)" style="fill: #4c78a8"/>
   </g>
   <g id="patch_4">
    <path d="M 174.8 464.71651 
L 326.299583 464.71651 
L 326.299583 433.963967 
L 174.8 433.963967 
z
" clip-path="url(#p76768c6a87)" style="fill: #4c78a8"/>
   </g>
   <g id="patch_5">
    <path d="M 174.8 426.275832 
L 328.810812 426.275832 
L 328.810812 395.523289 
L 174.8 395.523289 
z
" clip-path="url(#p76768c6a87)" style="fill: #4c78a8"/>
   </g>
   <g id="patch_6">
    <path d="M 174.8 387.835154 
L 335.32781 387.835154 
L 335.32781 357.082611 
L 174.8 357.082611 
z
" clip-path="url(#p76768c6a87)" style="fill: #4c78a8"/>
   </g>
   <g id="patch_7">
    <path d="M 174.8 349.394476 
L 338.324583 349.394476 
L 338.324583 318.641933 
L 174.8 318.641933 
z
" clip-path="url(#p76768c6a87)" style="fill: #4c78a8"/>
   </g>
   <g id="patch_8">
    <path d="M 174.8 310.953798 
L 449.932914 310.953798 
L 449.932914 280.201255 
L 174.8 280.201255 
z
" clip-path="url(#p76768c6a87)" style="fill: #4c78a8"/>
   </g>
   <g id="patch_9">
    <path d="M 174.8 272.51312 
L 455.33571 272.51312 
L 455.33571 241.760577 
L 174.8 241.760577 
z
" clip-path="url(#p76768c6a87)" style="fill: #4c78a8"/>
   </g>
   <g id="patch_10">
    <path d="M 174.8 234.072442 
L 491.68689 234.072442 
L 491.68689 203.319899 
L 174.8 203.319899 
z
" clip-path="url(#p76768c6a87)" style="fill: #4c78a8"/>
   </g>
   <g id="patch_11">
    <path d="M 174.8 195.631764 
L 513.915322 195.631764 
L 513.915322 164.879221 
L 174.8 164.879221 
z
" clip-path="url(#p76768c6a87)" style="fill: #4c78a8"/>
   </g>
   <g id="patch_12">
    <path d="M 174.8 157.191086 
L 519.083462 157.191086 
L 519.083462 126.438543 
L 174.8 126.438543 
z
" clip-path="url(#p76768c6a87)" style="fill: #4c78a8"/>
   </g>
   <g id="patch_13">
    <path d="M 174.8 118.750408 
L 527.023165 118.750408 
L 527.023165 87.997865 
L 174.8 87.997865 
z
" clip-path="url(#p76768c6a87)" style="fill: #4c78a8"/>
   </g>
   <g id="patch_14">
    <path d="M 174.8 80.30973 
L 865.657143 80.30973 
L 865.657143 49.557187 
L 174.8 49.557187 
z
" clip-path="url(#p76768c6a87)" style="fill: #4c78a8"/>
   </g>
   <g id="matplotlib.axis_1">
    <g id="xtick_1">
     <g id="line2d_1">
      <path d="M 174.8 525.837188 
L 174.8 26.877187 
" clip-path="url(#p76768c6a87)" style="fill: none; stroke: #b0b0b0; stroke-opacity: 0.2; stroke-width: 0.8; stroke-linecap: square"/>
     </g>
     <g id="line2d_2">
      <defs>
       <path id="m347cf7c422" d="M 0 0 
L 0 3.5 
" style="stroke: #000000; stroke-width: 0.8"/>
      </defs>
      <g>
       <use xlink:href="#m347cf7c422" x="174.8" y="525.837188" style="stroke: #000000; stroke-width: 0.8"/>
      </g>
     </g>
     <g id="text_1">
      <!-- 0.0 -->
      <g transform="translate(166.053281 541.195469) scale(0.11 -0.11)">
       <defs>
        <path id="DejaVuSans-30" d="M 2034 4250 
Q 1547 4250 1301 3770 
Q 1056 3291 1056 2328 
Q 1056 1369 1301 889 
Q 1547 409 2034 409 
Q 2525 409 2770 889 
Q 3016 1369 3016 2328 
Q 3016 3291 2770 3770 
Q 2525 4250 2034 4250 
z
M 2034 4750 
Q 2819 4750 3233 4129 
Q 3647 3509 3647 2328 
Q 3647 1150 3233 529 
Q 2819 -91 2034 -91 
Q 1250 -91 836 529 
Q 422 1150 422 2328 
Q 422 3509 836 4129 
Q 1250 4750 2034 4750 
z
" transform="scale(0.015625)"/>
        <path id="DejaVuSans-2e" d="M 684 794 
L 1344 794 
L 1344 0 
L 684 0 
L 684 794 
z
" transform="scale(0.015625)"/>
       </defs>
       <use xlink:href="#DejaVuSans-30"/>
       <use xlink:href="#DejaVuSans-2e" transform="translate(63.623047 0)"/>
       <use xlink:href="#DejaVuSans-30" transform="translate(95.410156 0)"/>
      </g>
     </g>
    </g>
    <g id="xtick_2">
     <g id="line2d_3">
      <path d="M 269.171978 525.837188 
L 269.171978 26.877187 
" clip-path="url(#p76768c6a87)" style="fill: none; stroke: #b0b0b0; stroke-opacity: 0.2; stroke-width: 0.8; stroke-linecap: square"/>
     </g>
     <g id="line2d_4">
      <g>
       <use xlink:href="#m347cf7c422" x="269.171978" y="525.837188" style="stroke: #000000; stroke-width: 0.8"/>
      </g>
     </g>
     <g id="text_2">
      <!-- 0.1 -->
      <g transform="translate(260.425259 541.195469) scale(0.11 -0.11)">
       <defs>
        <path id="DejaVuSans-31" d="M 794 531 
L 1825 531 
L 1825 4091 
L 703 3866 
L 703 4441 
L 1819 4666 
L 2450 4666 
L 2450 531 
L 3481 531 
L 3481 0 
L 794 0 
L 794 531 
z
" transform="scale(0.015625)"/>
       </defs>
       <use xlink:href="#DejaVuSans-30"/>
       <use xlink:href="#DejaVuSans-2e" transform="translate(63.623047 0)"/>
       <use xlink:href="#DejaVuSans-31" transform="translate(95.410156 0)"/>
      </g>
     </g>
    </g>
    <g id="xtick_3">
     <g id="line2d_5">
      <path d="M 363.543956 525.837188 
L 363.543956 26.877187 
" clip-path="url(#p76768c6a87)" style="fill: none; stroke: #b0b0b0; stroke-opacity: 0.2; stroke-width: 0.8; stroke-linecap: square"/>
     </g>
     <g id="line2d_6">
      <g>
       <use xlink:href="#m347cf7c422" x="363.543956" y="525.837188" style="stroke: #000000; stroke-width: 0.8"/>
      </g>
     </g>
     <g id="text_3">
      <!-- 0.2 -->
      <g transform="translate(354.797237 541.195469) scale(0.11 -0.11)">
       <defs>
        <path id="DejaVuSans-32" d="M 1228 531 
L 3431 531 
L 3431 0 
L 469 0 
L 469 531 
Q 828 903 1448 1529 
Q 2069 2156 2228 2338 
Q 2531 2678 2651 2914 
Q 2772 3150 2772 3378 
Q 2772 3750 2511 3984 
Q 2250 4219 1831 4219 
Q 1534 4219 1204 4116 
Q 875 4013 500 3803 
L 500 4441 
Q 881 4594 1212 4672 
Q 1544 4750 1819 4750 
Q 2544 4750 2975 4387 
Q 3406 4025 3406 3419 
Q 3406 3131 3298 2873 
Q 3191 2616 2906 2266 
Q 2828 2175 2409 1742 
Q 1991 1309 1228 531 
z
" transform="scale(0.015625)"/>
       </defs>
       <use xlink:href="#DejaVuSans-30"/>
       <use xlink:href="#DejaVuSans-2e" transform="translate(63.623047 0)"/>
       <use xlink:href="#DejaVuSans-32" transform="translate(95.410156 0)"/>
      </g>
     </g>
    </g>
    <g id="xtick_4">
     <g id="line2d_7">
      <path d="M 457.915934 525.837188 
L 457.915934 26.877187 
" clip-path="url(#p76768c6a87)" style="fill: none; stroke: #b0b0b0; stroke-opacity: 0.2; stroke-width: 0.8; stroke-linecap: square"/>
     </g>
     <g id="line2d_8">
      <g>
       <use xlink:href="#m347cf7c422" x="457.915934" y="525.837188" style="stroke: #000000; stroke-width: 0.8"/>
      </g>
     </g>
     <g id="text_4">
      <!-- 0.3 -->
      <g transform="translate(449.169215 541.195469) scale(0.11 -0.11)">
       <defs>
        <path id="DejaVuSans-33" d="M 2597 2516 
Q 3050 2419 3304 2112 
Q 3559 1806 3559 1356 
Q 3559 666 3084 287 
Q 2609 -91 1734 -91 
Q 1441 -91 1130 -33 
Q 819 25 488 141 
L 488 750 
Q 750 597 1062 519 
Q 1375 441 1716 441 
Q 2309 441 2620 675 
Q 2931 909 2931 1356 
Q 2931 1769 2642 2001 
Q 2353 2234 1838 2234 
L 1294 2234 
L 1294 2753 
L 1863 2753 
Q 2328 2753 2575 2939 
Q 2822 3125 2822 3475 
Q 2822 3834 2567 4026 
Q 2313 4219 1838 4219 
Q 1578 4219 1281 4162 
Q 984 4106 628 3988 
L 628 4550 
Q 988 4650 1302 4700 
Q 1616 4750 1894 4750 
Q 2613 4750 3031 4423 
Q 3450 4097 3450 3541 
Q 3450 3153 3228 2886 
Q 3006 2619 2597 2516 
z
" transform="scale(0.015625)"/>
       </defs>
       <use xlink:href="#DejaVuSans-30"/>
       <use xlink:href="#DejaVuSans-2e" transform="translate(63.623047 0)"/>
       <use xlink:href="#DejaVuSans-33" transform="translate(95.410156 0)"/>
      </g>
     </g>
    </g>
    <g id="xtick_5">
     <g id="line2d_9">
      <path d="M 552.287912 525.837188 
L 552.287912 26.877187 
" clip-path="url(#p76768c6a87)" style="fill: none; stroke: #b0b0b0; stroke-opacity: 0.2; stroke-width: 0.8; stroke-linecap: square"/>
     </g>
     <g id="line2d_10">
      <g>
       <use xlink:href="#m347cf7c422" x="552.287912" y="525.837188" style="stroke: #000000; stroke-width: 0.8"/>
      </g>
     </g>
     <g id="text_5">
      <!-- 0.4 -->
      <g transform="translate(543.541193 541.195469) scale(0.11 -0.11)">
       <defs>
        <path id="DejaVuSans-34" d="M 2419 4116 
L 825 1625 
L 2419 1625 
L 2419 4116 
z
M 2253 4666 
L 3047 4666 
L 3047 1625 
L 3713 1625 
L 3713 1100 
L 3047 1100 
L 3047 0 
L 2419 0 
L 2419 1100 
L 313 1100 
L 313 1709 
L 2253 4666 
z
" transform="scale(0.015625)"/>
       </defs>
       <use xlink:href="#DejaVuSans-30"/>
       <use xlink:href="#DejaVuSans-2e" transform="translate(63.623047 0)"/>
       <use xlink:href="#DejaVuSans-34" transform="translate(95.410156 0)"/>
      </g>
     </g>
    </g>
    <g id="xtick_6">
     <g id="line2d_11">
      <path d="M 646.65989 525.837188 
L 646.65989 26.877187 
" clip-path="url(#p76768c6a87)" style="fill: none; stroke: #b0b0b0; stroke-opacity: 0.2; stroke-width: 0.8; stroke-linecap: square"/>
     </g>
     <g id="line2d_12">
      <g>
       <use xlink:href="#m347cf7c422" x="646.65989" y="525.837188" style="stroke: #000000; stroke-width: 0.8"/>
      </g>
     </g>
     <g id="text_6">
      <!-- 0.5 -->
      <g transform="translate(637.913171 541.195469) scale(0.11 -0.11)">
       <defs>
        <path id="DejaVuSans-35" d="M 691 4666 
L 3169 4666 
L 3169 4134 
L 1269 4134 
L 1269 2991 
Q 1406 3038 1543 3061 
Q 1681 3084 1819 3084 
Q 2600 3084 3056 2656 
Q 3513 2228 3513 1497 
Q 3513 744 3044 326 
Q 2575 -91 1722 -91 
Q 1428 -91 1123 -41 
Q 819 9 494 109 
L 494 744 
Q 775 591 1075 516 
Q 1375 441 1709 441 
Q 2250 441 2565 725 
Q 2881 1009 2881 1497 
Q 2881 1984 2565 2268 
Q 2250 2553 1709 2553 
Q 1456 2553 1204 2497 
Q 953 2441 691 2322 
L 691 4666 
z
" transform="scale(0.015625)"/>
       </defs>
       <use xlink:href="#DejaVuSans-30"/>
       <use xlink:href="#DejaVuSans-2e" transform="translate(63.623047 0)"/>
       <use xlink:href="#DejaVuSans-35" transform="translate(95.410156 0)"/>
      </g>
     </g>
    </g>
    <g id="xtick_7">
     <g id="line2d_13">
      <path d="M 741.031868 525.837188 
L 741.031868 26.877187 
" clip-path="url(#p76768c6a87)" style="fill: none; stroke: #b0b0b0; stroke-opacity: 0.2; stroke-width: 0.8; stroke-linecap: square"/>
     </g>
     <g id="line2d_14">
      <g>
       <use xlink:href="#m347cf7c422" x="741.031868" y="525.837188" style="stroke: #000000; stroke-width: 0.8"/>
      </g>
     </g>
     <g id="text_7">
      <!-- 0.6 -->
      <g transform="translate(732.285149 541.195469) scale(0.11 -0.11)">
       <defs>
        <path id="DejaVuSans-36" d="M 2113 2584 
Q 1688 2584 1439 2293 
Q 1191 2003 1191 1497 
Q 1191 994 1439 701 
Q 1688 409 2113 409 
Q 2538 409 2786 701 
Q 3034 994 3034 1497 
Q 3034 2003 2786 2293 
Q 2538 2584 2113 2584 
z
M 3366 4563 
L 3366 3988 
Q 3128 4100 2886 4159 
Q 2644 4219 2406 4219 
Q 1781 4219 1451 3797 
Q 1122 3375 1075 2522 
Q 1259 2794 1537 2939 
Q 1816 3084 2150 3084 
Q 2853 3084 3261 2657 
Q 3669 2231 3669 1497 
Q 3669 778 3244 343 
Q 2819 -91 2113 -91 
Q 1303 -91 875 529 
Q 447 1150 447 2328 
Q 447 3434 972 4092 
Q 1497 4750 2381 4750 
Q 2619 4750 2861 4703 
Q 3103 4656 3366 4563 
z
" transform="scale(0.015625)"/>
       </defs>
       <use xlink:href="#DejaVuSans-30"/>
       <use xlink:href="#DejaVuSans-2e" transform="translate(63.623047 0)"/>
       <use xlink:href="#DejaVuSans-36" transform="translate(95.410156 0)"/>
      </g>
     </g>
    </g>
    <g id="xtick_8">
     <g id="line2d_15">
      <path d="M 835.403846 525.837188 
L 835.403846 26.877187 
" clip-path="url(#p76768c6a87)" style="fill: none; stroke: #b0b0b0; stroke-opacity: 0.2; stroke-width: 0.8; stroke-linecap: square"/>
     </g>
     <g id="line2d_16">
      <g>
       <use xlink:href="#m347cf7c422" x="835.403846" y="525.837188" style="stroke: #000000; stroke-width: 0.8"/>
      </g>
     </g>
     <g id="text_8">
      <!-- 0.7 -->
      <g transform="translate(826.657127 541.195469) scale(0.11 -0.11)">
       <defs>
        <path id="DejaVuSans-37" d="M 525 4666 
L 3525 4666 
L 3525 4397 
L 1831 0 
L 1172 0 
L 2766 4134 
L 525 4134 
L 525 4666 
z
" transform="scale(0.015625)"/>
       </defs>
       <use xlink:href="#DejaVuSans-30"/>
       <use xlink:href="#DejaVuSans-2e" transform="translate(63.623047 0)"/>
       <use xlink:href="#DejaVuSans-37" transform="translate(95.410156 0)"/>
      </g>
     </g>
    </g>
    <g id="text_9">
     <!-- Mean |SHAP value| -->
     <g transform="translate(471.423281 558.182188) scale(0.14 -0.14)">
      <defs>
       <path id="DejaVuSans-4d" d="M 628 4666 
L 1569 4666 
L 2759 1491 
L 3956 4666 
L 4897 4666 
L 4897 0 
L 4281 0 
L 4281 4097 
L 3078 897 
L 2444 897 
L 1241 4097 
L 1241 0 
L 628 0 
L 628 4666 
z
" transform="scale(0.015625)"/>
       <path id="DejaVuSans-65" d="M 3597 1894 
L 3597 1613 
L 953 1613 
Q 991 1019 1311 708 
Q 1631 397 2203 397 
Q 2534 397 2845 478 
Q 3156 559 3463 722 
L 3463 178 
Q 3153 47 2828 -22 
Q 2503 -91 2169 -91 
Q 1331 -91 842 396 
Q 353 884 353 1716 
Q 353 2575 817 3079 
Q 1281 3584 2069 3584 
Q 2775 3584 3186 3129 
Q 3597 2675 3597 1894 
z
M 3022 2063 
Q 3016 2534 2758 2815 
Q 2500 3097 2075 3097 
Q 1594 3097 1305 2825 
Q 1016 2553 972 2059 
L 3022 2063 
z
" transform="scale(0.015625)"/>
       <path id="DejaVuSans-61" d="M 2194 1759 
Q 1497 1759 1228 1600 
Q 959 1441 959 1056 
Q 959 750 1161 570 
Q 1363 391 1709 391 
Q 2188 391 2477 730 
Q 2766 1069 2766 1631 
L 2766 1759 
L 2194 1759 
z
M 3341 1997 
L 3341 0 
L 2766 0 
L 2766 531 
Q 2569 213 2275 61 
Q 1981 -91 1556 -91 
Q 1019 -91 701 211 
Q 384 513 384 1019 
Q 384 1609 779 1909 
Q 1175 2209 1959 2209 
L 2766 2209 
L 2766 2266 
Q 2766 2663 2505 2880 
Q 2244 3097 1772 3097 
Q 1472 3097 1187 3025 
Q 903 2953 641 2809 
L 641 3341 
Q 956 3463 1253 3523 
Q 1550 3584 1831 3584 
Q 2591 3584 2966 3190 
Q 3341 2797 3341 1997 
z
" transform="scale(0.015625)"/>
       <path id="DejaVuSans-6e" d="M 3513 2113 
L 3513 0 
L 2938 0 
L 2938 2094 
Q 2938 2591 2744 2837 
Q 2550 3084 2163 3084 
Q 1697 3084 1428 2787 
Q 1159 2491 1159 1978 
L 1159 0 
L 581 0 
L 581 3500 
L 1159 3500 
L 1159 2956 
Q 1366 3272 1645 3428 
Q 1925 3584 2291 3584 
Q 2894 3584 3203 3211 
Q 3513 2838 3513 2113 
z
" transform="scale(0.015625)"/>
       <path id="DejaVuSans-20" transform="scale(0.015625)"/>
       <path id="DejaVuSans-7c" d="M 1344 4891 
L 1344 -1509 
L 813 -1509 
L 813 4891 
L 1344 4891 
z
" transform="scale(0.015625)"/>
       <path id="DejaVuSans-53" d="M 3425 4513 
L 3425 3897 
Q 3066 4069 2747 4153 
Q 2428 4238 2131 4238 
Q 1616 4238 1336 4038 
Q 1056 3838 1056 3469 
Q 1056 3159 1242 3001 
Q 1428 2844 1947 2747 
L 2328 2669 
Q 3034 2534 3370 2195 
Q 3706 1856 3706 1288 
Q 3706 609 3251 259 
Q 2797 -91 1919 -91 
Q 1588 -91 1214 -16 
Q 841 59 441 206 
L 441 856 
Q 825 641 1194 531 
Q 1563 422 1919 422 
Q 2459 422 2753 634 
Q 3047 847 3047 1241 
Q 3047 1584 2836 1778 
Q 2625 1972 2144 2069 
L 1759 2144 
Q 1053 2284 737 2584 
Q 422 2884 422 3419 
Q 422 4038 858 4394 
Q 1294 4750 2059 4750 
Q 2388 4750 2728 4690 
Q 3069 4631 3425 4513 
z
" transform="scale(0.015625)"/>
       <path id="DejaVuSans-48" d="M 628 4666 
L 1259 4666 
L 1259 2753 
L 3553 2753 
L 3553 4666 
L 4184 4666 
L 4184 0 
L 3553 0 
L 3553 2222 
L 1259 2222 
L 1259 0 
L 628 0 
L 628 4666 
z
" transform="scale(0.015625)"/>
       <path id="DejaVuSans-41" d="M 2188 4044 
L 1331 1722 
L 3047 1722 
L 2188 4044 
z
M 1831 4666 
L 2547 4666 
L 4325 0 
L 3669 0 
L 3244 1197 
L 1141 1197 
L 716 0 
L 50 0 
L 1831 4666 
z
" transform="scale(0.015625)"/>
       <path id="DejaVuSans-50" d="M 1259 4147 
L 1259 2394 
L 2053 2394 
Q 2494 2394 2734 2622 
Q 2975 2850 2975 3272 
Q 2975 3691 2734 3919 
Q 2494 4147 2053 4147 
L 1259 4147 
z
M 628 4666 
L 2053 4666 
Q 2838 4666 3239 4311 
Q 3641 3956 3641 3272 
Q 3641 2581 3239 2228 
Q 2838 1875 2053 1875 
L 1259 1875 
L 1259 0 
L 628 0 
L 628 4666 
z
" transform="scale(0.015625)"/>
       <path id="DejaVuSans-76" d="M 191 3500 
L 800 3500 
L 1894 563 
L 2988 3500 
L 3597 3500 
L 2284 0 
L 1503 0 
L 191 3500 
z
" transform="scale(0.015625)"/>
       <path id="DejaVuSans-6c" d="M 603 4863 
L 1178 4863 
L 1178 0 
L 603 0 
L 603 4863 
z
" transform="scale(0.015625)"/>
       <path id="DejaVuSans-75" d="M 544 1381 
L 544 3500 
L 1119 3500 
L 1119 1403 
Q 1119 906 1312 657 
Q 1506 409 1894 409 
Q 2359 409 2629 706 
Q 2900 1003 2900 1516 
L 2900 3500 
L 3475 3500 
L 3475 0 
L 2900 0 
L 2900 538 
Q 2691 219 2414 64 
Q 2138 -91 1772 -91 
Q 1169 -91 856 284 
Q 544 659 544 1381 
z
M 1991 3584 
L 1991 3584 
z
" transform="scale(0.015625)"/>
      </defs>
      <use xlink:href="#DejaVuSans-4d"/>
      <use xlink:href="#DejaVuSans-65" transform="translate(86.279297 0)"/>
      <use xlink:href="#DejaVuSans-61" transform="translate(147.802734 0)"/>
      <use xlink:href="#DejaVuSans-6e" transform="translate(209.082031 0)"/>
      <use xlink:href="#DejaVuSans-20" transform="translate(272.460938 0)"/>
      <use xlink:href="#DejaVuSans-7c" transform="translate(304.248047 0)"/>
      <use xlink:href="#DejaVuSans-53" transform="translate(337.939453 0)"/>
      <use xlink:href="#DejaVuSans-48" transform="translate(401.416016 0)"/>
      <use xlink:href="#DejaVuSans-41" transform="translate(476.611328 0)"/>
      <use xlink:href="#DejaVuSans-50" transform="translate(545.019531 0)"/>
      <use xlink:href="#DejaVuSans-20" transform="translate(605.322266 0)"/>
      <use xlink:href="#DejaVuSans-76" transform="translate(637.109375 0)"/>
      <use xlink:href="#DejaVuSans-61" transform="translate(696.289062 0)"/>
      <use xlink:href="#DejaVuSans-6c" transform="translate(757.568359 0)"/>
      <use xlink:href="#DejaVuSans-75" transform="translate(785.351562 0)"/>
      <use xlink:href="#DejaVuSans-65" transform="translate(848.730469 0)"/>
      <use xlink:href="#DejaVuSans-7c" transform="translate(910.253906 0)"/>
     </g>
    </g>
   </g>
   <g id="matplotlib.axis_2">
    <g id="ytick_1">
     <g id="line2d_17">
      <defs>
       <path id="m8f9db77137" d="M 0 0 
L -3.5 0 
" style="stroke: #000000; stroke-width: 0.8"/>
      </defs>
      <g>
       <use xlink:href="#m8f9db77137" x="174.8" y="487.780916" style="stroke: #000000; stroke-width: 0.8"/>
      </g>
     </g>
     <g id="text_10">
      <!-- F35 - GyroscopeX_dominant_ -->
      <g transform="translate(7.2 486.484119) scale(0.11 -0.11)">
       <defs>
        <path id="DejaVuSans-46" d="M 628 4666 
L 3309 4666 
L 3309 4134 
L 1259 4134 
L 1259 2759 
L 3109 2759 
L 3109 2228 
L 1259 2228 
L 1259 0 
L 628 0 
L 628 4666 
z
" transform="scale(0.015625)"/>
        <path id="DejaVuSans-2d" d="M 313 2009 
L 1997 2009 
L 1997 1497 
L 313 1497 
L 313 2009 
z
" transform="scale(0.015625)"/>
        <path id="DejaVuSans-47" d="M 3809 666 
L 3809 1919 
L 2778 1919 
L 2778 2438 
L 4434 2438 
L 4434 434 
Q 4069 175 3628 42 
Q 3188 -91 2688 -91 
Q 1594 -91 976 548 
Q 359 1188 359 2328 
Q 359 3472 976 4111 
Q 1594 4750 2688 4750 
Q 3144 4750 3555 4637 
Q 3966 4525 4313 4306 
L 4313 3634 
Q 3963 3931 3569 4081 
Q 3175 4231 2741 4231 
Q 1884 4231 1454 3753 
Q 1025 3275 1025 2328 
Q 1025 1384 1454 906 
Q 1884 428 2741 428 
Q 3075 428 3337 486 
Q 3600 544 3809 666 
z
" transform="scale(0.015625)"/>
        <path id="DejaVuSans-79" d="M 2059 -325 
Q 1816 -950 1584 -1140 
Q 1353 -1331 966 -1331 
L 506 -1331 
L 506 -850 
L 844 -850 
Q 1081 -850 1212 -737 
Q 1344 -625 1503 -206 
L 1606 56 
L 191 3500 
L 800 3500 
L 1894 763 
L 2988 3500 
L 3597 3500 
L 2059 -325 
z
" transform="scale(0.015625)"/>
        <path id="DejaVuSans-72" d="M 2631 2963 
Q 2534 3019 2420 3045 
Q 2306 3072 2169 3072 
Q 1681 3072 1420 2755 
Q 1159 2438 1159 1844 
L 1159 0 
L 581 0 
L 581 3500 
L 1159 3500 
L 1159 2956 
Q 1341 3275 1631 3429 
Q 1922 3584 2338 3584 
Q 2397 3584 2469 3576 
Q 2541 3569 2628 3553 
L 2631 2963 
z
" transform="scale(0.015625)"/>
        <path id="DejaVuSans-6f" d="M 1959 3097 
Q 1497 3097 1228 2736 
Q 959 2375 959 1747 
Q 959 1119 1226 758 
Q 1494 397 1959 397 
Q 2419 397 2687 759 
Q 2956 1122 2956 1747 
Q 2956 2369 2687 2733 
Q 2419 3097 1959 3097 
z
M 1959 3584 
Q 2709 3584 3137 3096 
Q 3566 2609 3566 1747 
Q 3566 888 3137 398 
Q 2709 -91 1959 -91 
Q 1206 -91 779 398 
Q 353 888 353 1747 
Q 353 2609 779 3096 
Q 1206 3584 1959 3584 
z
" transform="scale(0.015625)"/>
        <path id="DejaVuSans-73" d="M 2834 3397 
L 2834 2853 
Q 2591 2978 2328 3040 
Q 2066 3103 1784 3103 
Q 1356 3103 1142 2972 
Q 928 2841 928 2578 
Q 928 2378 1081 2264 
Q 1234 2150 1697 2047 
L 1894 2003 
Q 2506 1872 2764 1633 
Q 3022 1394 3022 966 
Q 3022 478 2636 193 
Q 2250 -91 1575 -91 
Q 1294 -91 989 -36 
Q 684 19 347 128 
L 347 722 
Q 666 556 975 473 
Q 1284 391 1588 391 
Q 1994 391 2212 530 
Q 2431 669 2431 922 
Q 2431 1156 2273 1281 
Q 2116 1406 1581 1522 
L 1381 1569 
Q 847 1681 609 1914 
Q 372 2147 372 2553 
Q 372 3047 722 3315 
Q 1072 3584 1716 3584 
Q 2034 3584 2315 3537 
Q 2597 3491 2834 3397 
z
" transform="scale(0.015625)"/>
        <path id="DejaVuSans-63" d="M 3122 3366 
L 3122 2828 
Q 2878 2963 2633 3030 
Q 2388 3097 2138 3097 
Q 1578 3097 1268 2742 
Q 959 2388 959 1747 
Q 959 1106 1268 751 
Q 1578 397 2138 397 
Q 2388 397 2633 464 
Q 2878 531 3122 666 
L 3122 134 
Q 2881 22 2623 -34 
Q 2366 -91 2075 -91 
Q 1284 -91 818 406 
Q 353 903 353 1747 
Q 353 2603 823 3093 
Q 1294 3584 2113 3584 
Q 2378 3584 2631 3529 
Q 2884 3475 3122 3366 
z
" transform="scale(0.015625)"/>
        <path id="DejaVuSans-70" d="M 1159 525 
L 1159 -1331 
L 581 -1331 
L 581 3500 
L 1159 3500 
L 1159 2969 
Q 1341 3281 1617 3432 
Q 1894 3584 2278 3584 
Q 2916 3584 3314 3078 
Q 3713 2572 3713 1747 
Q 3713 922 3314 415 
Q 2916 -91 2278 -91 
Q 1894 -91 1617 61 
Q 1341 213 1159 525 
z
M 3116 1747 
Q 3116 2381 2855 2742 
Q 2594 3103 2138 3103 
Q 1681 3103 1420 2742 
Q 1159 2381 1159 1747 
Q 1159 1113 1420 752 
Q 1681 391 2138 391 
Q 2594 391 2855 752 
Q 3116 1113 3116 1747 
z
" transform="scale(0.015625)"/>
        <path id="DejaVuSans-58" d="M 403 4666 
L 1081 4666 
L 2241 2931 
L 3406 4666 
L 4084 4666 
L 2584 2425 
L 4184 0 
L 3506 0 
L 2194 1984 
L 872 0 
L 191 0 
L 1856 2491 
L 403 4666 
z
" transform="scale(0.015625)"/>
        <path id="DejaVuSans-5f" d="M 3263 -1063 
L 3263 -1509 
L -63 -1509 
L -63 -1063 
L 3263 -1063 
z
" transform="scale(0.015625)"/>
        <path id="DejaVuSans-64" d="M 2906 2969 
L 2906 4863 
L 3481 4863 
L 3481 0 
L 2906 0 
L 2906 525 
Q 2725 213 2448 61 
Q 2172 -91 1784 -91 
Q 1150 -91 751 415 
Q 353 922 353 1747 
Q 353 2572 751 3078 
Q 1150 3584 1784 3584 
Q 2172 3584 2448 3432 
Q 2725 3281 2906 2969 
z
M 947 1747 
Q 947 1113 1208 752 
Q 1469 391 1925 391 
Q 2381 391 2643 752 
Q 2906 1113 2906 1747 
Q 2906 2381 2643 2742 
Q 2381 3103 1925 3103 
Q 1469 3103 1208 2742 
Q 947 2381 947 1747 
z
" transform="scale(0.015625)"/>
        <path id="DejaVuSans-6d" d="M 3328 2828 
Q 3544 3216 3844 3400 
Q 4144 3584 4550 3584 
Q 5097 3584 5394 3201 
Q 5691 2819 5691 2113 
L 5691 0 
L 5113 0 
L 5113 2094 
Q 5113 2597 4934 2840 
Q 4756 3084 4391 3084 
Q 3944 3084 3684 2787 
Q 3425 2491 3425 1978 
L 3425 0 
L 2847 0 
L 2847 2094 
Q 2847 2600 2669 2842 
Q 2491 3084 2119 3084 
Q 1678 3084 1418 2786 
Q 1159 2488 1159 1978 
L 1159 0 
L 581 0 
L 581 3500 
L 1159 3500 
L 1159 2956 
Q 1356 3278 1631 3431 
Q 1906 3584 2284 3584 
Q 2666 3584 2933 3390 
Q 3200 3197 3328 2828 
z
" transform="scale(0.015625)"/>
        <path id="DejaVuSans-69" d="M 603 3500 
L 1178 3500 
L 1178 0 
L 603 0 
L 603 3500 
z
M 603 4863 
L 1178 4863 
L 1178 4134 
L 603 4134 
L 603 4863 
z
" transform="scale(0.015625)"/>
        <path id="DejaVuSans-74" d="M 1172 4494 
L 1172 3500 
L 2356 3500 
L 2356 3053 
L 1172 3053 
L 1172 1153 
Q 1172 725 1289 603 
Q 1406 481 1766 481 
L 2356 481 
L 2356 0 
L 1766 0 
Q 1100 0 847 248 
Q 594 497 594 1153 
L 594 3053 
L 172 3053 
L 172 3500 
L 594 3500 
L 594 4494 
L 1172 4494 
z
" transform="scale(0.015625)"/>
       </defs>
       <use xlink:href="#DejaVuSans-46"/>
       <use xlink:href="#DejaVuSans-33" transform="translate(57.519531 0)"/>
       <use xlink:href="#DejaVuSans-35" transform="translate(121.142578 0)"/>
       <use xlink:href="#DejaVuSans-20" transform="translate(184.765625 0)"/>
       <use xlink:href="#DejaVuSans-2d" transform="translate(216.552734 0)"/>
       <use xlink:href="#DejaVuSans-20" transform="translate(252.636719 0)"/>
       <use xlink:href="#DejaVuSans-47" transform="translate(284.423828 0)"/>
       <use xlink:href="#DejaVuSans-79" transform="translate(361.914062 0)"/>
       <use xlink:href="#DejaVuSans-72" transform="translate(421.09375 0)"/>
       <use xlink:href="#DejaVuSans-6f" transform="translate(459.957031 0)"/>
       <use xlink:href="#DejaVuSans-73" transform="translate(521.138672 0)"/>
       <use xlink:href="#DejaVuSans-63" transform="translate(573.238281 0)"/>
       <use xlink:href="#DejaVuSans-6f" transform="translate(628.21875 0)"/>
       <use xlink:href="#DejaVuSans-70" transform="translate(689.400391 0)"/>
       <use xlink:href="#DejaVuSans-65" transform="translate(752.876953 0)"/>
       <use xlink:href="#DejaVuSans-58" transform="translate(814.400391 0)"/>
       <use xlink:href="#DejaVuSans-5f" transform="translate(882.90625 0)"/>
       <use xlink:href="#DejaVuSans-64" transform="translate(932.90625 0)"/>
       <use xlink:href="#DejaVuSans-6f" transform="translate(996.382812 0)"/>
       <use xlink:href="#DejaVuSans-6d" transform="translate(1057.564453 0)"/>
       <use xlink:href="#DejaVuSans-69" transform="translate(1154.976562 0)"/>
       <use xlink:href="#DejaVuSans-6e" transform="translate(1182.759766 0)"/>
       <use xlink:href="#DejaVuSans-61" transform="translate(1246.138672 0)"/>
       <use xlink:href="#DejaVuSans-6e" transform="translate(1307.417969 0)"/>
       <use xlink:href="#DejaVuSans-74" transform="translate(1370.796875 0)"/>
       <use xlink:href="#DejaVuSans-5f" transform="translate(1410.005859 0)"/>
      </g>
      <!-- freq -->
      <g transform="translate(145.901406 499.107651) scale(0.11 -0.11)">
       <defs>
        <path id="DejaVuSans-66" d="M 2375 4863 
L 2375 4384 
L 1825 4384 
Q 1516 4384 1395 4259 
Q 1275 4134 1275 3809 
L 1275 3500 
L 2222 3500 
L 2222 3053 
L 1275 3053 
L 1275 0 
L 697 0 
L 697 3053 
L 147 3053 
L 147 3500 
L 697 3500 
L 697 3744 
Q 697 4328 969 4595 
Q 1241 4863 1831 4863 
L 2375 4863 
z
" transform="scale(0.015625)"/>
        <path id="DejaVuSans-71" d="M 947 1747 
Q 947 1113 1208 752 
Q 1469 391 1925 391 
Q 2381 391 2643 752 
Q 2906 1113 2906 1747 
Q 2906 2381 2643 2742 
Q 2381 3103 1925 3103 
Q 1469 3103 1208 2742 
Q 947 2381 947 1747 
z
M 2906 525 
Q 2725 213 2448 61 
Q 2172 -91 1784 -91 
Q 1150 -91 751 415 
Q 353 922 353 1747 
Q 353 2572 751 3078 
Q 1150 3584 1784 3584 
Q 2172 3584 2448 3432 
Q 2725 3281 2906 2969 
L 2906 3500 
L 3481 3500 
L 3481 -1331 
L 2906 -1331 
L 2906 525 
z
" transform="scale(0.015625)"/>
       </defs>
       <use xlink:href="#DejaVuSans-66"/>
       <use xlink:href="#DejaVuSans-72" transform="translate(35.205078 0)"/>
       <use xlink:href="#DejaVuSans-65" transform="translate(74.068359 0)"/>
       <use xlink:href="#DejaVuSans-71" transform="translate(135.591797 0)"/>
      </g>
     </g>
    </g>
    <g id="ytick_2">
     <g id="line2d_18">
      <g>
       <use xlink:href="#m8f9db77137" x="174.8" y="449.340238" style="stroke: #000000; stroke-width: 0.8"/>
      </g>
     </g>
     <g id="text_11">
      <!-- F34 - MagnetometerZ_q25 -->
      <g transform="translate(21.415781 453.42227) scale(0.11 -0.11)">
       <defs>
        <path id="DejaVuSans-67" d="M 2906 1791 
Q 2906 2416 2648 2759 
Q 2391 3103 1925 3103 
Q 1463 3103 1205 2759 
Q 947 2416 947 1791 
Q 947 1169 1205 825 
Q 1463 481 1925 481 
Q 2391 481 2648 825 
Q 2906 1169 2906 1791 
z
M 3481 434 
Q 3481 -459 3084 -895 
Q 2688 -1331 1869 -1331 
Q 1566 -1331 1297 -1286 
Q 1028 -1241 775 -1147 
L 775 -588 
Q 1028 -725 1275 -790 
Q 1522 -856 1778 -856 
Q 2344 -856 2625 -561 
Q 2906 -266 2906 331 
L 2906 616 
Q 2728 306 2450 153 
Q 2172 0 1784 0 
Q 1141 0 747 490 
Q 353 981 353 1791 
Q 353 2603 747 3093 
Q 1141 3584 1784 3584 
Q 2172 3584 2450 3431 
Q 2728 3278 2906 2969 
L 2906 3500 
L 3481 3500 
L 3481 434 
z
" transform="scale(0.015625)"/>
        <path id="DejaVuSans-5a" d="M 359 4666 
L 4025 4666 
L 4025 4184 
L 1075 531 
L 4097 531 
L 4097 0 
L 288 0 
L 288 481 
L 3238 4134 
L 359 4134 
L 359 4666 
z
" transform="scale(0.015625)"/>
       </defs>
       <use xlink:href="#DejaVuSans-46"/>
       <use xlink:href="#DejaVuSans-33" transform="translate(57.519531 0)"/>
       <use xlink:href="#DejaVuSans-34" transform="translate(121.142578 0)"/>
       <use xlink:href="#DejaVuSans-20" transform="translate(184.765625 0)"/>
       <use xlink:href="#DejaVuSans-2d" transform="translate(216.552734 0)"/>
       <use xlink:href="#DejaVuSans-20" transform="translate(252.636719 0)"/>
       <use xlink:href="#DejaVuSans-4d" transform="translate(284.423828 0)"/>
       <use xlink:href="#DejaVuSans-61" transform="translate(370.703125 0)"/>
       <use xlink:href="#DejaVuSans-67" transform="translate(431.982422 0)"/>
       <use xlink:href="#DejaVuSans-6e" transform="translate(495.458984 0)"/>
       <use xlink:href="#DejaVuSans-65" transform="translate(558.837891 0)"/>
       <use xlink:href="#DejaVuSans-74" transform="translate(620.361328 0)"/>
       <use xlink:href="#DejaVuSans-6f" transform="translate(659.570312 0)"/>
       <use xlink:href="#DejaVuSans-6d" transform="translate(720.751953 0)"/>
       <use xlink:href="#DejaVuSans-65" transform="translate(818.164062 0)"/>
       <use xlink:href="#DejaVuSans-74" transform="translate(879.6875 0)"/>
       <use xlink:href="#DejaVuSans-65" transform="translate(918.896484 0)"/>
       <use xlink:href="#DejaVuSans-72" transform="translate(980.419922 0)"/>
       <use xlink:href="#DejaVuSans-5a" transform="translate(1021.533203 0)"/>
       <use xlink:href="#DejaVuSans-5f" transform="translate(1090.039062 0)"/>
       <use xlink:href="#DejaVuSans-71" transform="translate(1140.039062 0)"/>
       <use xlink:href="#DejaVuSans-32" transform="translate(1203.515625 0)"/>
       <use xlink:href="#DejaVuSans-35" transform="translate(1267.138672 0)"/>
      </g>
     </g>
    </g>
    <g id="ytick_3">
     <g id="line2d_19">
      <g>
       <use xlink:href="#m8f9db77137" x="174.8" y="410.89956" style="stroke: #000000; stroke-width: 0.8"/>
      </g>
     </g>
     <g id="text_12">
      <!-- F29 - AccelerometerX_spect -->
      <g transform="translate(13.525 409.602764) scale(0.11 -0.11)">
       <defs>
        <path id="DejaVuSans-39" d="M 703 97 
L 703 672 
Q 941 559 1184 500 
Q 1428 441 1663 441 
Q 2288 441 2617 861 
Q 2947 1281 2994 2138 
Q 2813 1869 2534 1725 
Q 2256 1581 1919 1581 
Q 1219 1581 811 2004 
Q 403 2428 403 3163 
Q 403 3881 828 4315 
Q 1253 4750 1959 4750 
Q 2769 4750 3195 4129 
Q 3622 3509 3622 2328 
Q 3622 1225 3098 567 
Q 2575 -91 1691 -91 
Q 1453 -91 1209 -44 
Q 966 3 703 97 
z
M 1959 2075 
Q 2384 2075 2632 2365 
Q 2881 2656 2881 3163 
Q 2881 3666 2632 3958 
Q 2384 4250 1959 4250 
Q 1534 4250 1286 3958 
Q 1038 3666 1038 3163 
Q 1038 2656 1286 2365 
Q 1534 2075 1959 2075 
z
" transform="scale(0.015625)"/>
       </defs>
       <use xlink:href="#DejaVuSans-46"/>
       <use xlink:href="#DejaVuSans-32" transform="translate(57.519531 0)"/>
       <use xlink:href="#DejaVuSans-39" transform="translate(121.142578 0)"/>
       <use xlink:href="#DejaVuSans-20" transform="translate(184.765625 0)"/>
       <use xlink:href="#DejaVuSans-2d" transform="translate(216.552734 0)"/>
       <use xlink:href="#DejaVuSans-20" transform="translate(252.636719 0)"/>
       <use xlink:href="#DejaVuSans-41" transform="translate(284.423828 0)"/>
       <use xlink:href="#DejaVuSans-63" transform="translate(351.082031 0)"/>
       <use xlink:href="#DejaVuSans-63" transform="translate(406.0625 0)"/>
       <use xlink:href="#DejaVuSans-65" transform="translate(461.042969 0)"/>
       <use xlink:href="#DejaVuSans-6c" transform="translate(522.566406 0)"/>
       <use xlink:href="#DejaVuSans-65" transform="translate(550.349609 0)"/>
       <use xlink:href="#DejaVuSans-72" transform="translate(611.873047 0)"/>
       <use xlink:href="#DejaVuSans-6f" transform="translate(650.736328 0)"/>
       <use xlink:href="#DejaVuSans-6d" transform="translate(711.917969 0)"/>
       <use xlink:href="#DejaVuSans-65" transform="translate(809.330078 0)"/>
       <use xlink:href="#DejaVuSans-74" transform="translate(870.853516 0)"/>
       <use xlink:href="#DejaVuSans-65" transform="translate(910.0625 0)"/>
       <use xlink:href="#DejaVuSans-72" transform="translate(971.585938 0)"/>
       <use xlink:href="#DejaVuSans-58" transform="translate(1012.699219 0)"/>
       <use xlink:href="#DejaVuSans-5f" transform="translate(1081.205078 0)"/>
       <use xlink:href="#DejaVuSans-73" transform="translate(1131.205078 0)"/>
       <use xlink:href="#DejaVuSans-70" transform="translate(1183.304688 0)"/>
       <use xlink:href="#DejaVuSans-65" transform="translate(1246.78125 0)"/>
       <use xlink:href="#DejaVuSans-63" transform="translate(1308.304688 0)"/>
       <use xlink:href="#DejaVuSans-74" transform="translate(1363.285156 0)"/>
      </g>
      <!-- ral_entropy -->
      <g transform="translate(105.43 422.226295) scale(0.11 -0.11)">
       <use xlink:href="#DejaVuSans-72"/>
       <use xlink:href="#DejaVuSans-61" transform="translate(41.113281 0)"/>
       <use xlink:href="#DejaVuSans-6c" transform="translate(102.392578 0)"/>
       <use xlink:href="#DejaVuSans-5f" transform="translate(130.175781 0)"/>
       <use xlink:href="#DejaVuSans-65" transform="translate(180.175781 0)"/>
       <use xlink:href="#DejaVuSans-6e" transform="translate(241.699219 0)"/>
       <use xlink:href="#DejaVuSans-74" transform="translate(305.078125 0)"/>
       <use xlink:href="#DejaVuSans-72" transform="translate(344.287109 0)"/>
       <use xlink:href="#DejaVuSans-6f" transform="translate(383.150391 0)"/>
       <use xlink:href="#DejaVuSans-70" transform="translate(444.332031 0)"/>
       <use xlink:href="#DejaVuSans-79" transform="translate(507.808594 0)"/>
      </g>
     </g>
    </g>
    <g id="ytick_4">
     <g id="line2d_20">
      <g>
       <use xlink:href="#m8f9db77137" x="174.8" y="372.458882" style="stroke: #000000; stroke-width: 0.8"/>
      </g>
     </g>
     <g id="text_13">
      <!-- F33 - GyroscopeZ_median -->
      <g transform="translate(23.945781 376.638023) scale(0.11 -0.11)">
       <use xlink:href="#DejaVuSans-46"/>
       <use xlink:href="#DejaVuSans-33" transform="translate(57.519531 0)"/>
       <use xlink:href="#DejaVuSans-33" transform="translate(121.142578 0)"/>
       <use xlink:href="#DejaVuSans-20" transform="translate(184.765625 0)"/>
       <use xlink:href="#DejaVuSans-2d" transform="translate(216.552734 0)"/>
       <use xlink:href="#DejaVuSans-20" transform="translate(252.636719 0)"/>
       <use xlink:href="#DejaVuSans-47" transform="translate(284.423828 0)"/>
       <use xlink:href="#DejaVuSans-79" transform="translate(361.914062 0)"/>
       <use xlink:href="#DejaVuSans-72" transform="translate(421.09375 0)"/>
       <use xlink:href="#DejaVuSans-6f" transform="translate(459.957031 0)"/>
       <use xlink:href="#DejaVuSans-73" transform="translate(521.138672 0)"/>
       <use xlink:href="#DejaVuSans-63" transform="translate(573.238281 0)"/>
       <use xlink:href="#DejaVuSans-6f" transform="translate(628.21875 0)"/>
       <use xlink:href="#DejaVuSans-70" transform="translate(689.400391 0)"/>
       <use xlink:href="#DejaVuSans-65" transform="translate(752.876953 0)"/>
       <use xlink:href="#DejaVuSans-5a" transform="translate(814.400391 0)"/>
       <use xlink:href="#DejaVuSans-5f" transform="translate(882.90625 0)"/>
       <use xlink:href="#DejaVuSans-6d" transform="translate(932.90625 0)"/>
       <use xlink:href="#DejaVuSans-65" transform="translate(1030.318359 0)"/>
       <use xlink:href="#DejaVuSans-64" transform="translate(1091.841797 0)"/>
       <use xlink:href="#DejaVuSans-69" transform="translate(1155.318359 0)"/>
       <use xlink:href="#DejaVuSans-61" transform="translate(1183.101562 0)"/>
       <use xlink:href="#DejaVuSans-6e" transform="translate(1244.380859 0)"/>
      </g>
     </g>
    </g>
    <g id="ytick_5">
     <g id="line2d_21">
      <g>
       <use xlink:href="#m8f9db77137" x="174.8" y="334.018204" style="stroke: #000000; stroke-width: 0.8"/>
      </g>
     </g>
     <g id="text_14">
      <!-- F32 - GyroscopeY_energy -->
      <g transform="translate(27.665156 338.100236) scale(0.11 -0.11)">
       <defs>
        <path id="DejaVuSans-59" d="M -13 4666 
L 666 4666 
L 1959 2747 
L 3244 4666 
L 3922 4666 
L 2272 2222 
L 2272 0 
L 1638 0 
L 1638 2222 
L -13 4666 
z
" transform="scale(0.015625)"/>
       </defs>
       <use xlink:href="#DejaVuSans-46"/>
       <use xlink:href="#DejaVuSans-33" transform="translate(57.519531 0)"/>
       <use xlink:href="#DejaVuSans-32" transform="translate(121.142578 0)"/>
       <use xlink:href="#DejaVuSans-20" transform="translate(184.765625 0)"/>
       <use xlink:href="#DejaVuSans-2d" transform="translate(216.552734 0)"/>
       <use xlink:href="#DejaVuSans-20" transform="translate(252.636719 0)"/>
       <use xlink:href="#DejaVuSans-47" transform="translate(284.423828 0)"/>
       <use xlink:href="#DejaVuSans-79" transform="translate(361.914062 0)"/>
       <use xlink:href="#DejaVuSans-72" transform="translate(421.09375 0)"/>
       <use xlink:href="#DejaVuSans-6f" transform="translate(459.957031 0)"/>
       <use xlink:href="#DejaVuSans-73" transform="translate(521.138672 0)"/>
       <use xlink:href="#DejaVuSans-63" transform="translate(573.238281 0)"/>
       <use xlink:href="#DejaVuSans-6f" transform="translate(628.21875 0)"/>
       <use xlink:href="#DejaVuSans-70" transform="translate(689.400391 0)"/>
       <use xlink:href="#DejaVuSans-65" transform="translate(752.876953 0)"/>
       <use xlink:href="#DejaVuSans-59" transform="translate(814.400391 0)"/>
       <use xlink:href="#DejaVuSans-5f" transform="translate(875.484375 0)"/>
       <use xlink:href="#DejaVuSans-65" transform="translate(925.484375 0)"/>
       <use xlink:href="#DejaVuSans-6e" transform="translate(987.007812 0)"/>
       <use xlink:href="#DejaVuSans-65" transform="translate(1050.386719 0)"/>
       <use xlink:href="#DejaVuSans-72" transform="translate(1111.910156 0)"/>
       <use xlink:href="#DejaVuSans-67" transform="translate(1151.273438 0)"/>
       <use xlink:href="#DejaVuSans-79" transform="translate(1214.75 0)"/>
      </g>
     </g>
    </g>
    <g id="ytick_6">
     <g id="line2d_22">
      <g>
       <use xlink:href="#m8f9db77137" x="174.8" y="295.577526" style="stroke: #000000; stroke-width: 0.8"/>
      </g>
     </g>
     <g id="text_15">
      <!-- F21 - MagnetometerY_max -->
      <g transform="translate(19.246719 299.659558) scale(0.11 -0.11)">
       <defs>
        <path id="DejaVuSans-78" d="M 3513 3500 
L 2247 1797 
L 3578 0 
L 2900 0 
L 1881 1375 
L 863 0 
L 184 0 
L 1544 1831 
L 300 3500 
L 978 3500 
L 1906 2253 
L 2834 3500 
L 3513 3500 
z
" transform="scale(0.015625)"/>
       </defs>
       <use xlink:href="#DejaVuSans-46"/>
       <use xlink:href="#DejaVuSans-32" transform="translate(57.519531 0)"/>
       <use xlink:href="#DejaVuSans-31" transform="translate(121.142578 0)"/>
       <use xlink:href="#DejaVuSans-20" transform="translate(184.765625 0)"/>
       <use xlink:href="#DejaVuSans-2d" transform="translate(216.552734 0)"/>
       <use xlink:href="#DejaVuSans-20" transform="translate(252.636719 0)"/>
       <use xlink:href="#DejaVuSans-4d" transform="translate(284.423828 0)"/>
       <use xlink:href="#DejaVuSans-61" transform="translate(370.703125 0)"/>
       <use xlink:href="#DejaVuSans-67" transform="translate(431.982422 0)"/>
       <use xlink:href="#DejaVuSans-6e" transform="translate(495.458984 0)"/>
       <use xlink:href="#DejaVuSans-65" transform="translate(558.837891 0)"/>
       <use xlink:href="#DejaVuSans-74" transform="translate(620.361328 0)"/>
       <use xlink:href="#DejaVuSans-6f" transform="translate(659.570312 0)"/>
       <use xlink:href="#DejaVuSans-6d" transform="translate(720.751953 0)"/>
       <use xlink:href="#DejaVuSans-65" transform="translate(818.164062 0)"/>
       <use xlink:href="#DejaVuSans-74" transform="translate(879.6875 0)"/>
       <use xlink:href="#DejaVuSans-65" transform="translate(918.896484 0)"/>
       <use xlink:href="#DejaVuSans-72" transform="translate(980.419922 0)"/>
       <use xlink:href="#DejaVuSans-59" transform="translate(1021.533203 0)"/>
       <use xlink:href="#DejaVuSans-5f" transform="translate(1082.617188 0)"/>
       <use xlink:href="#DejaVuSans-6d" transform="translate(1132.617188 0)"/>
       <use xlink:href="#DejaVuSans-61" transform="translate(1230.029297 0)"/>
       <use xlink:href="#DejaVuSans-78" transform="translate(1291.308594 0)"/>
      </g>
     </g>
    </g>
    <g id="ytick_7">
     <g id="line2d_23">
      <g>
       <use xlink:href="#m8f9db77137" x="174.8" y="257.136849" style="stroke: #000000; stroke-width: 0.8"/>
      </g>
     </g>
     <g id="text_16">
      <!-- F06 - GyroscopeY_median -->
      <g transform="translate(24.762187 261.315989) scale(0.11 -0.11)">
       <use xlink:href="#DejaVuSans-46"/>
       <use xlink:href="#DejaVuSans-30" transform="translate(57.519531 0)"/>
       <use xlink:href="#DejaVuSans-36" transform="translate(121.142578 0)"/>
       <use xlink:href="#DejaVuSans-20" transform="translate(184.765625 0)"/>
       <use xlink:href="#DejaVuSans-2d" transform="translate(216.552734 0)"/>
       <use xlink:href="#DejaVuSans-20" transform="translate(252.636719 0)"/>
       <use xlink:href="#DejaVuSans-47" transform="translate(284.423828 0)"/>
       <use xlink:href="#DejaVuSans-79" transform="translate(361.914062 0)"/>
       <use xlink:href="#DejaVuSans-72" transform="translate(421.09375 0)"/>
       <use xlink:href="#DejaVuSans-6f" transform="translate(459.957031 0)"/>
       <use xlink:href="#DejaVuSans-73" transform="translate(521.138672 0)"/>
       <use xlink:href="#DejaVuSans-63" transform="translate(573.238281 0)"/>
       <use xlink:href="#DejaVuSans-6f" transform="translate(628.21875 0)"/>
       <use xlink:href="#DejaVuSans-70" transform="translate(689.400391 0)"/>
       <use xlink:href="#DejaVuSans-65" transform="translate(752.876953 0)"/>
       <use xlink:href="#DejaVuSans-59" transform="translate(814.400391 0)"/>
       <use xlink:href="#DejaVuSans-5f" transform="translate(875.484375 0)"/>
       <use xlink:href="#DejaVuSans-6d" transform="translate(925.484375 0)"/>
       <use xlink:href="#DejaVuSans-65" transform="translate(1022.896484 0)"/>
       <use xlink:href="#DejaVuSans-64" transform="translate(1084.419922 0)"/>
       <use xlink:href="#DejaVuSans-69" transform="translate(1147.896484 0)"/>
       <use xlink:href="#DejaVuSans-61" transform="translate(1175.679688 0)"/>
       <use xlink:href="#DejaVuSans-6e" transform="translate(1236.958984 0)"/>
      </g>
     </g>
    </g>
    <g id="ytick_8">
     <g id="line2d_24">
      <g>
       <use xlink:href="#m8f9db77137" x="174.8" y="218.696171" style="stroke: #000000; stroke-width: 0.8"/>
      </g>
     </g>
     <g id="text_17">
      <!-- F05 - AccelerometerY_domin -->
      <g transform="translate(9.728281 217.552342) scale(0.11 -0.11)">
       <use xlink:href="#DejaVuSans-46"/>
       <use xlink:href="#DejaVuSans-30" transform="translate(57.519531 0)"/>
       <use xlink:href="#DejaVuSans-35" transform="translate(121.142578 0)"/>
       <use xlink:href="#DejaVuSans-20" transform="translate(184.765625 0)"/>
       <use xlink:href="#DejaVuSans-2d" transform="translate(216.552734 0)"/>
       <use xlink:href="#DejaVuSans-20" transform="translate(252.636719 0)"/>
       <use xlink:href="#DejaVuSans-41" transform="translate(284.423828 0)"/>
       <use xlink:href="#DejaVuSans-63" transform="translate(351.082031 0)"/>
       <use xlink:href="#DejaVuSans-63" transform="translate(406.0625 0)"/>
       <use xlink:href="#DejaVuSans-65" transform="translate(461.042969 0)"/>
       <use xlink:href="#DejaVuSans-6c" transform="translate(522.566406 0)"/>
       <use xlink:href="#DejaVuSans-65" transform="translate(550.349609 0)"/>
       <use xlink:href="#DejaVuSans-72" transform="translate(611.873047 0)"/>
       <use xlink:href="#DejaVuSans-6f" transform="translate(650.736328 0)"/>
       <use xlink:href="#DejaVuSans-6d" transform="translate(711.917969 0)"/>
       <use xlink:href="#DejaVuSans-65" transform="translate(809.330078 0)"/>
       <use xlink:href="#DejaVuSans-74" transform="translate(870.853516 0)"/>
       <use xlink:href="#DejaVuSans-65" transform="translate(910.0625 0)"/>
       <use xlink:href="#DejaVuSans-72" transform="translate(971.585938 0)"/>
       <use xlink:href="#DejaVuSans-59" transform="translate(1012.699219 0)"/>
       <use xlink:href="#DejaVuSans-5f" transform="translate(1073.783203 0)"/>
       <use xlink:href="#DejaVuSans-64" transform="translate(1123.783203 0)"/>
       <use xlink:href="#DejaVuSans-6f" transform="translate(1187.259766 0)"/>
       <use xlink:href="#DejaVuSans-6d" transform="translate(1248.441406 0)"/>
       <use xlink:href="#DejaVuSans-69" transform="translate(1345.853516 0)"/>
       <use xlink:href="#DejaVuSans-6e" transform="translate(1373.636719 0)"/>
      </g>
      <!-- ant_amp -->
      <g transform="translate(119.836562 230.175874) scale(0.11 -0.11)">
       <use xlink:href="#DejaVuSans-61"/>
       <use xlink:href="#DejaVuSans-6e" transform="translate(61.279297 0)"/>
       <use xlink:href="#DejaVuSans-74" transform="translate(124.658203 0)"/>
       <use xlink:href="#DejaVuSans-5f" transform="translate(163.867188 0)"/>
       <use xlink:href="#DejaVuSans-61" transform="translate(213.867188 0)"/>
       <use xlink:href="#DejaVuSans-6d" transform="translate(275.146484 0)"/>
       <use xlink:href="#DejaVuSans-70" transform="translate(372.558594 0)"/>
      </g>
     </g>
    </g>
    <g id="ytick_9">
     <g id="line2d_25">
      <g>
       <use xlink:href="#m8f9db77137" x="174.8" y="180.255493" style="stroke: #000000; stroke-width: 0.8"/>
      </g>
     </g>
     <g id="text_18">
      <!-- F02 - GyroscopeZ_dominant_ -->
      <g transform="translate(7.2 178.958696) scale(0.11 -0.11)">
       <use xlink:href="#DejaVuSans-46"/>
       <use xlink:href="#DejaVuSans-30" transform="translate(57.519531 0)"/>
       <use xlink:href="#DejaVuSans-32" transform="translate(121.142578 0)"/>
       <use xlink:href="#DejaVuSans-20" transform="translate(184.765625 0)"/>
       <use xlink:href="#DejaVuSans-2d" transform="translate(216.552734 0)"/>
       <use xlink:href="#DejaVuSans-20" transform="translate(252.636719 0)"/>
       <use xlink:href="#DejaVuSans-47" transform="translate(284.423828 0)"/>
       <use xlink:href="#DejaVuSans-79" transform="translate(361.914062 0)"/>
       <use xlink:href="#DejaVuSans-72" transform="translate(421.09375 0)"/>
       <use xlink:href="#DejaVuSans-6f" transform="translate(459.957031 0)"/>
       <use xlink:href="#DejaVuSans-73" transform="translate(521.138672 0)"/>
       <use xlink:href="#DejaVuSans-63" transform="translate(573.238281 0)"/>
       <use xlink:href="#DejaVuSans-6f" transform="translate(628.21875 0)"/>
       <use xlink:href="#DejaVuSans-70" transform="translate(689.400391 0)"/>
       <use xlink:href="#DejaVuSans-65" transform="translate(752.876953 0)"/>
       <use xlink:href="#DejaVuSans-5a" transform="translate(814.400391 0)"/>
       <use xlink:href="#DejaVuSans-5f" transform="translate(882.90625 0)"/>
       <use xlink:href="#DejaVuSans-64" transform="translate(932.90625 0)"/>
       <use xlink:href="#DejaVuSans-6f" transform="translate(996.382812 0)"/>
       <use xlink:href="#DejaVuSans-6d" transform="translate(1057.564453 0)"/>
       <use xlink:href="#DejaVuSans-69" transform="translate(1154.976562 0)"/>
       <use xlink:href="#DejaVuSans-6e" transform="translate(1182.759766 0)"/>
       <use xlink:href="#DejaVuSans-61" transform="translate(1246.138672 0)"/>
       <use xlink:href="#DejaVuSans-6e" transform="translate(1307.417969 0)"/>
       <use xlink:href="#DejaVuSans-74" transform="translate(1370.796875 0)"/>
       <use xlink:href="#DejaVuSans-5f" transform="translate(1410.005859 0)"/>
      </g>
      <!-- amp -->
      <g transform="translate(143.361094 191.582227) scale(0.11 -0.11)">
       <use xlink:href="#DejaVuSans-61"/>
       <use xlink:href="#DejaVuSans-6d" transform="translate(61.279297 0)"/>
       <use xlink:href="#DejaVuSans-70" transform="translate(158.691406 0)"/>
      </g>
     </g>
    </g>
    <g id="ytick_10">
     <g id="line2d_26">
      <g>
       <use xlink:href="#m8f9db77137" x="174.8" y="141.814815" style="stroke: #000000; stroke-width: 0.8"/>
      </g>
     </g>
     <g id="text_19">
      <!-- F12 - MagnetometerX_range -->
      <g transform="translate(10.410625 145.896846) scale(0.11 -0.11)">
       <use xlink:href="#DejaVuSans-46"/>
       <use xlink:href="#DejaVuSans-31" transform="translate(57.519531 0)"/>
       <use xlink:href="#DejaVuSans-32" transform="translate(121.142578 0)"/>
       <use xlink:href="#DejaVuSans-20" transform="translate(184.765625 0)"/>
       <use xlink:href="#DejaVuSans-2d" transform="translate(216.552734 0)"/>
       <use xlink:href="#DejaVuSans-20" transform="translate(252.636719 0)"/>
       <use xlink:href="#DejaVuSans-4d" transform="translate(284.423828 0)"/>
       <use xlink:href="#DejaVuSans-61" transform="translate(370.703125 0)"/>
       <use xlink:href="#DejaVuSans-67" transform="translate(431.982422 0)"/>
       <use xlink:href="#DejaVuSans-6e" transform="translate(495.458984 0)"/>
       <use xlink:href="#DejaVuSans-65" transform="translate(558.837891 0)"/>
       <use xlink:href="#DejaVuSans-74" transform="translate(620.361328 0)"/>
       <use xlink:href="#DejaVuSans-6f" transform="translate(659.570312 0)"/>
       <use xlink:href="#DejaVuSans-6d" transform="translate(720.751953 0)"/>
       <use xlink:href="#DejaVuSans-65" transform="translate(818.164062 0)"/>
       <use xlink:href="#DejaVuSans-74" transform="translate(879.6875 0)"/>
       <use xlink:href="#DejaVuSans-65" transform="translate(918.896484 0)"/>
       <use xlink:href="#DejaVuSans-72" transform="translate(980.419922 0)"/>
       <use xlink:href="#DejaVuSans-58" transform="translate(1021.533203 0)"/>
       <use xlink:href="#DejaVuSans-5f" transform="translate(1090.039062 0)"/>
       <use xlink:href="#DejaVuSans-72" transform="translate(1140.039062 0)"/>
       <use xlink:href="#DejaVuSans-61" transform="translate(1181.152344 0)"/>
       <use xlink:href="#DejaVuSans-6e" transform="translate(1242.431641 0)"/>
       <use xlink:href="#DejaVuSans-67" transform="translate(1305.810547 0)"/>
       <use xlink:href="#DejaVuSans-65" transform="translate(1369.287109 0)"/>
      </g>
     </g>
    </g>
    <g id="ytick_11">
     <g id="line2d_27">
      <g>
       <use xlink:href="#m8f9db77137" x="174.8" y="103.374137" style="stroke: #000000; stroke-width: 0.8"/>
      </g>
     </g>
     <g id="text_20">
      <!-- F31 - AccelerometerZ_domin -->
      <g transform="translate(8.911875 102.230309) scale(0.11 -0.11)">
       <use xlink:href="#DejaVuSans-46"/>
       <use xlink:href="#DejaVuSans-33" transform="translate(57.519531 0)"/>
       <use xlink:href="#DejaVuSans-31" transform="translate(121.142578 0)"/>
       <use xlink:href="#DejaVuSans-20" transform="translate(184.765625 0)"/>
       <use xlink:href="#DejaVuSans-2d" transform="translate(216.552734 0)"/>
       <use xlink:href="#DejaVuSans-20" transform="translate(252.636719 0)"/>
       <use xlink:href="#DejaVuSans-41" transform="translate(284.423828 0)"/>
       <use xlink:href="#DejaVuSans-63" transform="translate(351.082031 0)"/>
       <use xlink:href="#DejaVuSans-63" transform="translate(406.0625 0)"/>
       <use xlink:href="#DejaVuSans-65" transform="translate(461.042969 0)"/>
       <use xlink:href="#DejaVuSans-6c" transform="translate(522.566406 0)"/>
       <use xlink:href="#DejaVuSans-65" transform="translate(550.349609 0)"/>
       <use xlink:href="#DejaVuSans-72" transform="translate(611.873047 0)"/>
       <use xlink:href="#DejaVuSans-6f" transform="translate(650.736328 0)"/>
       <use xlink:href="#DejaVuSans-6d" transform="translate(711.917969 0)"/>
       <use xlink:href="#DejaVuSans-65" transform="translate(809.330078 0)"/>
       <use xlink:href="#DejaVuSans-74" transform="translate(870.853516 0)"/>
       <use xlink:href="#DejaVuSans-65" transform="translate(910.0625 0)"/>
       <use xlink:href="#DejaVuSans-72" transform="translate(971.585938 0)"/>
       <use xlink:href="#DejaVuSans-5a" transform="translate(1012.699219 0)"/>
       <use xlink:href="#DejaVuSans-5f" transform="translate(1081.205078 0)"/>
       <use xlink:href="#DejaVuSans-64" transform="translate(1131.205078 0)"/>
       <use xlink:href="#DejaVuSans-6f" transform="translate(1194.681641 0)"/>
       <use xlink:href="#DejaVuSans-6d" transform="translate(1255.863281 0)"/>
       <use xlink:href="#DejaVuSans-69" transform="translate(1353.275391 0)"/>
       <use xlink:href="#DejaVuSans-6e" transform="translate(1381.058594 0)"/>
      </g>
      <!-- ant_amp -->
      <g transform="translate(119.836562 114.85384) scale(0.11 -0.11)">
       <use xlink:href="#DejaVuSans-61"/>
       <use xlink:href="#DejaVuSans-6e" transform="translate(61.279297 0)"/>
       <use xlink:href="#DejaVuSans-74" transform="translate(124.658203 0)"/>
       <use xlink:href="#DejaVuSans-5f" transform="translate(163.867188 0)"/>
       <use xlink:href="#DejaVuSans-61" transform="translate(213.867188 0)"/>
       <use xlink:href="#DejaVuSans-6d" transform="translate(275.146484 0)"/>
       <use xlink:href="#DejaVuSans-70" transform="translate(372.558594 0)"/>
      </g>
     </g>
    </g>
    <g id="ytick_12">
     <g id="line2d_28">
      <g>
       <use xlink:href="#m8f9db77137" x="174.8" y="64.933459" style="stroke: #000000; stroke-width: 0.8"/>
      </g>
     </g>
     <g id="text_21">
      <!-- F01 - GyroscopeZ_spectral_ -->
      <g transform="translate(15.51875 63.636662) scale(0.11 -0.11)">
       <use xlink:href="#DejaVuSans-46"/>
       <use xlink:href="#DejaVuSans-30" transform="translate(57.519531 0)"/>
       <use xlink:href="#DejaVuSans-31" transform="translate(121.142578 0)"/>
       <use xlink:href="#DejaVuSans-20" transform="translate(184.765625 0)"/>
       <use xlink:href="#DejaVuSans-2d" transform="translate(216.552734 0)"/>
       <use xlink:href="#DejaVuSans-20" transform="translate(252.636719 0)"/>
       <use xlink:href="#DejaVuSans-47" transform="translate(284.423828 0)"/>
       <use xlink:href="#DejaVuSans-79" transform="translate(361.914062 0)"/>
       <use xlink:href="#DejaVuSans-72" transform="translate(421.09375 0)"/>
       <use xlink:href="#DejaVuSans-6f" transform="translate(459.957031 0)"/>
       <use xlink:href="#DejaVuSans-73" transform="translate(521.138672 0)"/>
       <use xlink:href="#DejaVuSans-63" transform="translate(573.238281 0)"/>
       <use xlink:href="#DejaVuSans-6f" transform="translate(628.21875 0)"/>
       <use xlink:href="#DejaVuSans-70" transform="translate(689.400391 0)"/>
       <use xlink:href="#DejaVuSans-65" transform="translate(752.876953 0)"/>
       <use xlink:href="#DejaVuSans-5a" transform="translate(814.400391 0)"/>
       <use xlink:href="#DejaVuSans-5f" transform="translate(882.90625 0)"/>
       <use xlink:href="#DejaVuSans-73" transform="translate(932.90625 0)"/>
       <use xlink:href="#DejaVuSans-70" transform="translate(985.005859 0)"/>
       <use xlink:href="#DejaVuSans-65" transform="translate(1048.482422 0)"/>
       <use xlink:href="#DejaVuSans-63" transform="translate(1110.005859 0)"/>
       <use xlink:href="#DejaVuSans-74" transform="translate(1164.986328 0)"/>
       <use xlink:href="#DejaVuSans-72" transform="translate(1204.195312 0)"/>
       <use xlink:href="#DejaVuSans-61" transform="translate(1245.308594 0)"/>
       <use xlink:href="#DejaVuSans-6c" transform="translate(1306.587891 0)"/>
       <use xlink:href="#DejaVuSans-5f" transform="translate(1334.371094 0)"/>
      </g>
      <!-- entropy -->
      <g transform="translate(125.248906 76.260193) scale(0.11 -0.11)">
       <use xlink:href="#DejaVuSans-65"/>
       <use xlink:href="#DejaVuSans-6e" transform="translate(61.523438 0)"/>
       <use xlink:href="#DejaVuSans-74" transform="translate(124.902344 0)"/>
       <use xlink:href="#DejaVuSans-72" transform="translate(164.111328 0)"/>
       <use xlink:href="#DejaVuSans-6f" transform="translate(202.974609 0)"/>
       <use xlink:href="#DejaVuSans-70" transform="translate(264.15625 0)"/>
       <use xlink:href="#DejaVuSans-79" transform="translate(327.632812 0)"/>
      </g>
     </g>
    </g>
   </g>
   <g id="patch_15">
    <path d="M 174.8 525.837188 
L 174.8 26.877187 
" style="fill: none; stroke: #000000; stroke-width: 0.8; stroke-linejoin: miter; stroke-linecap: square"/>
   </g>
   <g id="patch_16">
    <path d="M 900.2 525.837188 
L 900.2 26.877187 
" style="fill: none; stroke: #000000; stroke-width: 0.8; stroke-linejoin: miter; stroke-linecap: square"/>
   </g>
   <g id="patch_17">
    <path d="M 174.8 525.837188 
L 900.2 525.837188 
" style="fill: none; stroke: #000000; stroke-width: 0.8; stroke-linejoin: miter; stroke-linecap: square"/>
   </g>
   <g id="patch_18">
    <path d="M 174.8 26.877187 
L 900.2 26.877187 
" style="fill: none; stroke: #000000; stroke-width: 0.8; stroke-linejoin: miter; stroke-linecap: square"/>
   </g>
   <g id="text_22">
    <!-- XGBoost (tuned): Top SHAP Features with Alias Labels -->
    <g transform="translate(295.325469 20.877187) scale(0.18 -0.18)">
     <defs>
      <path id="DejaVuSans-42" d="M 1259 2228 
L 1259 519 
L 2272 519 
Q 2781 519 3026 730 
Q 3272 941 3272 1375 
Q 3272 1813 3026 2020 
Q 2781 2228 2272 2228 
L 1259 2228 
z
M 1259 4147 
L 1259 2741 
L 2194 2741 
Q 2656 2741 2882 2914 
Q 3109 3088 3109 3444 
Q 3109 3797 2882 3972 
Q 2656 4147 2194 4147 
L 1259 4147 
z
M 628 4666 
L 2241 4666 
Q 2963 4666 3353 4366 
Q 3744 4066 3744 3513 
Q 3744 3084 3544 2831 
Q 3344 2578 2956 2516 
Q 3422 2416 3680 2098 
Q 3938 1781 3938 1306 
Q 3938 681 3513 340 
Q 3088 0 2303 0 
L 628 0 
L 628 4666 
z
" transform="scale(0.015625)"/>
      <path id="DejaVuSans-28" d="M 1984 4856 
Q 1566 4138 1362 3434 
Q 1159 2731 1159 2009 
Q 1159 1288 1364 580 
Q 1569 -128 1984 -844 
L 1484 -844 
Q 1016 -109 783 600 
Q 550 1309 550 2009 
Q 550 2706 781 3412 
Q 1013 4119 1484 4856 
L 1984 4856 
z
" transform="scale(0.015625)"/>
      <path id="DejaVuSans-29" d="M 513 4856 
L 1013 4856 
Q 1481 4119 1714 3412 
Q 1947 2706 1947 2009 
Q 1947 1309 1714 600 
Q 1481 -109 1013 -844 
L 513 -844 
Q 928 -128 1133 580 
Q 1338 1288 1338 2009 
Q 1338 2731 1133 3434 
Q 928 4138 513 4856 
z
" transform="scale(0.015625)"/>
      <path id="DejaVuSans-3a" d="M 750 794 
L 1409 794 
L 1409 0 
L 750 0 
L 750 794 
z
M 750 3309 
L 1409 3309 
L 1409 2516 
L 750 2516 
L 750 3309 
z
" transform="scale(0.015625)"/>
      <path id="DejaVuSans-54" d="M -19 4666 
L 3928 4666 
L 3928 4134 
L 2272 4134 
L 2272 0 
L 1638 0 
L 1638 4134 
L -19 4134 
L -19 4666 
z
" transform="scale(0.015625)"/>
      <path id="DejaVuSans-77" d="M 269 3500 
L 844 3500 
L 1563 769 
L 2278 3500 
L 2956 3500 
L 3675 769 
L 4391 3500 
L 4966 3500 
L 4050 0 
L 3372 0 
L 2619 2869 
L 1863 0 
L 1184 0 
L 269 3500 
z
" transform="scale(0.015625)"/>
      <path id="DejaVuSans-68" d="M 3513 2113 
L 3513 0 
L 2938 0 
L 2938 2094 
Q 2938 2591 2744 2837 
Q 2550 3084 2163 3084 
Q 1697 3084 1428 2787 
Q 1159 2491 1159 1978 
L 1159 0 
L 581 0 
L 581 4863 
L 1159 4863 
L 1159 2956 
Q 1366 3272 1645 3428 
Q 1925 3584 2291 3584 
Q 2894 3584 3203 3211 
Q 3513 2838 3513 2113 
z
" transform="scale(0.015625)"/>
      <path id="DejaVuSans-4c" d="M 628 4666 
L 1259 4666 
L 1259 531 
L 3531 531 
L 3531 0 
L 628 0 
L 628 4666 
z
" transform="scale(0.015625)"/>
      <path id="DejaVuSans-62" d="M 3116 1747 
Q 3116 2381 2855 2742 
Q 2594 3103 2138 3103 
Q 1681 3103 1420 2742 
Q 1159 2381 1159 1747 
Q 1159 1113 1420 752 
Q 1681 391 2138 391 
Q 2594 391 2855 752 
Q 3116 1113 3116 1747 
z
M 1159 2969 
Q 1341 3281 1617 3432 
Q 1894 3584 2278 3584 
Q 2916 3584 3314 3078 
Q 3713 2572 3713 1747 
Q 3713 922 3314 415 
Q 2916 -91 2278 -91 
Q 1894 -91 1617 61 
Q 1341 213 1159 525 
L 1159 0 
L 581 0 
L 581 4863 
L 1159 4863 
L 1159 2969 
z
" transform="scale(0.015625)"/>
     </defs>
     <use xlink:href="#DejaVuSans-58"/>
     <use xlink:href="#DejaVuSans-47" transform="translate(68.505859 0)"/>
     <use xlink:href="#DejaVuSans-42" transform="translate(145.996094 0)"/>
     <use xlink:href="#DejaVuSans-6f" transform="translate(214.599609 0)"/>
     <use xlink:href="#DejaVuSans-6f" transform="translate(275.78125 0)"/>
     <use xlink:href="#DejaVuSans-73" transform="translate(336.962891 0)"/>
     <use xlink:href="#DejaVuSans-74" transform="translate(389.0625 0)"/>
     <use xlink:href="#DejaVuSans-20" transform="translate(428.271484 0)"/>
     <use xlink:href="#DejaVuSans-28" transform="translate(460.058594 0)"/>
     <use xlink:href="#DejaVuSans-74" transform="translate(499.072266 0)"/>
     <use xlink:href="#DejaVuSans-75" transform="translate(538.28125 0)"/>
     <use xlink:href="#DejaVuSans-6e" transform="translate(601.660156 0)"/>
     <use xlink:href="#DejaVuSans-65" transform="translate(665.039062 0)"/>
     <use xlink:href="#DejaVuSans-64" transform="translate(726.5625 0)"/>
     <use xlink:href="#DejaVuSans-29" transform="translate(790.039062 0)"/>
     <use xlink:href="#DejaVuSans-3a" transform="translate(829.052734 0)"/>
     <use xlink:href="#DejaVuSans-20" transform="translate(862.744141 0)"/>
     <use xlink:href="#DejaVuSans-54" transform="translate(894.53125 0)"/>
     <use xlink:href="#DejaVuSans-6f" transform="translate(938.615234 0)"/>
     <use xlink:href="#DejaVuSans-70" transform="translate(999.796875 0)"/>
     <use xlink:href="#DejaVuSans-20" transform="translate(1063.273438 0)"/>
     <use xlink:href="#DejaVuSans-53" transform="translate(1095.060547 0)"/>
     <use xlink:href="#DejaVuSans-48" transform="translate(1158.537109 0)"/>
     <use xlink:href="#DejaVuSans-41" transform="translate(1233.732422 0)"/>
     <use xlink:href="#DejaVuSans-50" transform="translate(1302.140625 0)"/>
     <use xlink:href="#DejaVuSans-20" transform="translate(1362.443359 0)"/>
     <use xlink:href="#DejaVuSans-46" transform="translate(1394.230469 0)"/>
     <use xlink:href="#DejaVuSans-65" transform="translate(1446.25 0)"/>
     <use xlink:href="#DejaVuSans-61" transform="translate(1507.773438 0)"/>
     <use xlink:href="#DejaVuSans-74" transform="translate(1569.052734 0)"/>
     <use xlink:href="#DejaVuSans-75" transform="translate(1608.261719 0)"/>
     <use xlink:href="#DejaVuSans-72" transform="translate(1671.640625 0)"/>
     <use xlink:href="#DejaVuSans-65" transform="translate(1710.503906 0)"/>
     <use xlink:href="#DejaVuSans-73" transform="translate(1772.027344 0)"/>
     <use xlink:href="#DejaVuSans-20" transform="translate(1824.126953 0)"/>
     <use xlink:href="#DejaVuSans-77" transform="translate(1855.914062 0)"/>
     <use xlink:href="#DejaVuSans-69" transform="translate(1937.701172 0)"/>
     <use xlink:href="#DejaVuSans-74" transform="translate(1965.484375 0)"/>
     <use xlink:href="#DejaVuSans-68" transform="translate(2004.693359 0)"/>
     <use xlink:href="#DejaVuSans-20" transform="translate(2068.072266 0)"/>
     <use xlink:href="#DejaVuSans-41" transform="translate(2099.859375 0)"/>
     <use xlink:href="#DejaVuSans-6c" transform="translate(2168.267578 0)"/>
     <use xlink:href="#DejaVuSans-69" transform="translate(2196.050781 0)"/>
     <use xlink:href="#DejaVuSans-61" transform="translate(2223.833984 0)"/>
     <use xlink:href="#DejaVuSans-73" transform="translate(2285.113281 0)"/>
     <use xlink:href="#DejaVuSans-20" transform="translate(2337.212891 0)"/>
     <use xlink:href="#DejaVuSans-4c" transform="translate(2369 0)"/>
     <use xlink:href="#DejaVuSans-61" transform="translate(2424.712891 0)"/>
     <use xlink:href="#DejaVuSans-62" transform="translate(2485.992188 0)"/>
     <use xlink:href="#DejaVuSans-65" transform="translate(2549.46875 0)"/>
     <use xlink:href="#DejaVuSans-6c" transform="translate(2610.992188 0)"/>
     <use xlink:href="#DejaVuSans-73" transform="translate(2638.775391 0)"/>
    </g>
   </g>
  </g>
 </g>
 <defs>
  <clipPath id="p76768c6a87">
   <rect x="174.8" y="26.877187" width="725.4" height="498.96"/>
  </clipPath>
 </defs>
</svg>
