<?xml version="1.0" encoding="utf-8" standalone="no"?>
<!DOCTYPE svg PUBLIC "-//W3C//DTD SVG 1.1//EN"
  "http://www.w3.org/Graphics/SVG/1.1/DTD/svg11.dtd">
<svg xmlns:xlink="http://www.w3.org/1999/xlink" width="678.989531pt" height="512.7925pt" viewBox="0 0 678.989531 512.7925" xmlns="http://www.w3.org/2000/svg" version="1.1">
 <metadata>
  <rdf:RDF xmlns:dc="http://purl.org/dc/elements/1.1/" xmlns:cc="http://creativecommons.org/ns#" xmlns:rdf="http://www.w3.org/1999/02/22-rdf-syntax-ns#">
   <cc:Work>
    <dc:type rdf:resource="http://purl.org/dc/dcmitype/StillImage"/>
    <dc:date>2026-02-18T18:56:40.383535</dc:date>
    <dc:format>image/svg+xml</dc:format>
    <dc:creator>
     <cc:Agent>
      <dc:title>Matplotlib v3.10.0, https://matplotlib.org/</dc:title>
     </cc:Agent>
    </dc:creator>
   </cc:Work>
  </rdf:RDF>
 </metadata>
 <defs>
  <style type="text/css">*{stroke-linejoin: round; stroke-linecap: butt}</style>
 </defs>
 <g id="figure_1">
  <g id="patch_1">
   <path d="M 0 512.7925 
L 678.989531 512.7925 
L 678.989531 0 
L 0 0 
z
" style="fill: #ffffff"/>
  </g>
  <g id="axes_1">
   <g id="patch_2">
    <path d="M 49.242813 470.397187 
L 663.042813 470.397187 
L 663.042813 26.877187 
L 49.242813 26.877187 
z
" style="fill: #ffffff"/>
   </g>
   <g id="matplotlib.axis_1">
    <g id="xtick_1">
     <g id="line2d_1">
      <path d="M 49.242813 470.397187 
L 49.242813 26.877187 
" clip-path="url(#p894d5132ef)" style="fill: none; stroke: #b0b0b0; stroke-opacity: 0.25; stroke-width: 0.8; stroke-linecap: square"/>
     </g>
     <g id="line2d_2">
      <defs>
       <path id="mfe6b86a0f1" d="M 0 0 
L 0 3.5 
" style="stroke: #000000; stroke-width: 0.8"/>
      </defs>
      <g>
       <use xlink:href="#mfe6b86a0f1" x="49.242813" y="470.397187" style="stroke: #000000; stroke-width: 0.8"/>
      </g>
     </g>
     <g id="text_1">
      <!-- 0.0 -->
      <g transform="translate(40.496094 485.755469) scale(0.11 -0.11)">
       <defs>
        <path id="DejaVuSans-30" d="M 2034 4250 
Q 1547 4250 1301 3770 
Q 1056 3291 1056 2328 
Q 1056 1369 1301 889 
Q 1547 409 2034 409 
Q 2525 409 2770 889 
Q 3016 1369 3016 2328 
Q 3016 3291 2770 3770 
Q 2525 4250 2034 4250 
z
M 2034 4750 
Q 2819 4750 3233 4129 
Q 3647 3509 3647 2328 
Q 3647 1150 3233 529 
Q 2819 -91 2034 -91 
Q 1250 -91 836 529 
Q 422 1150 422 2328 
Q 422 3509 836 4129 
Q 1250 4750 2034 4750 
z
" transform="scale(0.015625)"/>
        <path id="DejaVuSans-2e" d="M 684 794 
L 1344 794 
L 1344 0 
L 684 0 
L 684 794 
z
" transform="scale(0.015625)"/>
       </defs>
       <use xlink:href="#DejaVuSans-30"/>
       <use xlink:href="#DejaVuSans-2e" transform="translate(63.623047 0)"/>
       <use xlink:href="#DejaVuSans-30" transform="translate(95.410156 0)"/>
      </g>
     </g>
    </g>
    <g id="xtick_2">
     <g id="line2d_3">
      <path d="M 172.002813 470.397187 
L 172.002813 26.877187 
" clip-path="url(#p894d5132ef)" style="fill: none; stroke: #b0b0b0; stroke-opacity: 0.25; stroke-width: 0.8; stroke-linecap: square"/>
     </g>
     <g id="line2d_4">
      <g>
       <use xlink:href="#mfe6b86a0f1" x="172.002813" y="470.397187" style="stroke: #000000; stroke-width: 0.8"/>
      </g>
     </g>
     <g id="text_2">
      <!-- 0.2 -->
      <g transform="translate(163.256094 485.755469) scale(0.11 -0.11)">
       <defs>
        <path id="DejaVuSans-32" d="M 1228 531 
L 3431 531 
L 3431 0 
L 469 0 
L 469 531 
Q 828 903 1448 1529 
Q 2069 2156 2228 2338 
Q 2531 2678 2651 2914 
Q 2772 3150 2772 3378 
Q 2772 3750 2511 3984 
Q 2250 4219 1831 4219 
Q 1534 4219 1204 4116 
Q 875 4013 500 3803 
L 500 4441 
Q 881 4594 1212 4672 
Q 1544 4750 1819 4750 
Q 2544 4750 2975 4387 
Q 3406 4025 3406 3419 
Q 3406 3131 3298 2873 
Q 3191 2616 2906 2266 
Q 2828 2175 2409 1742 
Q 1991 1309 1228 531 
z
" transform="scale(0.015625)"/>
       </defs>
       <use xlink:href="#DejaVuSans-30"/>
       <use xlink:href="#DejaVuSans-2e" transform="translate(63.623047 0)"/>
       <use xlink:href="#DejaVuSans-32" transform="translate(95.410156 0)"/>
      </g>
     </g>
    </g>
    <g id="xtick_3">
     <g id="line2d_5">
      <path d="M 294.762813 470.397187 
L 294.762813 26.877187 
" clip-path="url(#p894d5132ef)" style="fill: none; stroke: #b0b0b0; stroke-opacity: 0.25; stroke-width: 0.8; stroke-linecap: square"/>
     </g>
     <g id="line2d_6">
      <g>
       <use xlink:href="#mfe6b86a0f1" x="294.762813" y="470.397187" style="stroke: #000000; stroke-width: 0.8"/>
      </g>
     </g>
     <g id="text_3">
      <!-- 0.4 -->
      <g transform="translate(286.016094 485.755469) scale(0.11 -0.11)">
       <defs>
        <path id="DejaVuSans-34" d="M 2419 4116 
L 825 1625 
L 2419 1625 
L 2419 4116 
z
M 2253 4666 
L 3047 4666 
L 3047 1625 
L 3713 1625 
L 3713 1100 
L 3047 1100 
L 3047 0 
L 2419 0 
L 2419 1100 
L 313 1100 
L 313 1709 
L 2253 4666 
z
" transform="scale(0.015625)"/>
       </defs>
       <use xlink:href="#DejaVuSans-30"/>
       <use xlink:href="#DejaVuSans-2e" transform="translate(63.623047 0)"/>
       <use xlink:href="#DejaVuSans-34" transform="translate(95.410156 0)"/>
      </g>
     </g>
    </g>
    <g id="xtick_4">
     <g id="line2d_7">
      <path d="M 417.522813 470.397187 
L 417.522813 26.877187 
" clip-path="url(#p894d5132ef)" style="fill: none; stroke: #b0b0b0; stroke-opacity: 0.25; stroke-width: 0.8; stroke-linecap: square"/>
     </g>
     <g id="line2d_8">
      <g>
       <use xlink:href="#mfe6b86a0f1" x="417.522813" y="470.397187" style="stroke: #000000; stroke-width: 0.8"/>
      </g>
     </g>
     <g id="text_4">
      <!-- 0.6 -->
      <g transform="translate(408.776094 485.755469) scale(0.11 -0.11)">
       <defs>
        <path id="DejaVuSans-36" d="M 2113 2584 
Q 1688 2584 1439 2293 
Q 1191 2003 1191 1497 
Q 1191 994 1439 701 
Q 1688 409 2113 409 
Q 2538 409 2786 701 
Q 3034 994 3034 1497 
Q 3034 2003 2786 2293 
Q 2538 2584 2113 2584 
z
M 3366 4563 
L 3366 3988 
Q 3128 4100 2886 4159 
Q 2644 4219 2406 4219 
Q 1781 4219 1451 3797 
Q 1122 3375 1075 2522 
Q 1259 2794 1537 2939 
Q 1816 3084 2150 3084 
Q 2853 3084 3261 2657 
Q 3669 2231 3669 1497 
Q 3669 778 3244 343 
Q 2819 -91 2113 -91 
Q 1303 -91 875 529 
Q 447 1150 447 2328 
Q 447 3434 972 4092 
Q 1497 4750 2381 4750 
Q 2619 4750 2861 4703 
Q 3103 4656 3366 4563 
z
" transform="scale(0.015625)"/>
       </defs>
       <use xlink:href="#DejaVuSans-30"/>
       <use xlink:href="#DejaVuSans-2e" transform="translate(63.623047 0)"/>
       <use xlink:href="#DejaVuSans-36" transform="translate(95.410156 0)"/>
      </g>
     </g>
    </g>
    <g id="xtick_5">
     <g id="line2d_9">
      <path d="M 540.282813 470.397187 
L 540.282813 26.877187 
" clip-path="url(#p894d5132ef)" style="fill: none; stroke: #b0b0b0; stroke-opacity: 0.25; stroke-width: 0.8; stroke-linecap: square"/>
     </g>
     <g id="line2d_10">
      <g>
       <use xlink:href="#mfe6b86a0f1" x="540.282813" y="470.397187" style="stroke: #000000; stroke-width: 0.8"/>
      </g>
     </g>
     <g id="text_5">
      <!-- 0.8 -->
      <g transform="translate(531.536094 485.755469) scale(0.11 -0.11)">
       <defs>
        <path id="DejaVuSans-38" d="M 2034 2216 
Q 1584 2216 1326 1975 
Q 1069 1734 1069 1313 
Q 1069 891 1326 650 
Q 1584 409 2034 409 
Q 2484 409 2743 651 
Q 3003 894 3003 1313 
Q 3003 1734 2745 1975 
Q 2488 2216 2034 2216 
z
M 1403 2484 
Q 997 2584 770 2862 
Q 544 3141 544 3541 
Q 544 4100 942 4425 
Q 1341 4750 2034 4750 
Q 2731 4750 3128 4425 
Q 3525 4100 3525 3541 
Q 3525 3141 3298 2862 
Q 3072 2584 2669 2484 
Q 3125 2378 3379 2068 
Q 3634 1759 3634 1313 
Q 3634 634 3220 271 
Q 2806 -91 2034 -91 
Q 1263 -91 848 271 
Q 434 634 434 1313 
Q 434 1759 690 2068 
Q 947 2378 1403 2484 
z
M 1172 3481 
Q 1172 3119 1398 2916 
Q 1625 2713 2034 2713 
Q 2441 2713 2670 2916 
Q 2900 3119 2900 3481 
Q 2900 3844 2670 4047 
Q 2441 4250 2034 4250 
Q 1625 4250 1398 4047 
Q 1172 3844 1172 3481 
z
" transform="scale(0.015625)"/>
       </defs>
       <use xlink:href="#DejaVuSans-30"/>
       <use xlink:href="#DejaVuSans-2e" transform="translate(63.623047 0)"/>
       <use xlink:href="#DejaVuSans-38" transform="translate(95.410156 0)"/>
      </g>
     </g>
    </g>
    <g id="xtick_6">
     <g id="line2d_11">
      <path d="M 663.042813 470.397187 
L 663.042813 26.877187 
" clip-path="url(#p894d5132ef)" style="fill: none; stroke: #b0b0b0; stroke-opacity: 0.25; stroke-width: 0.8; stroke-linecap: square"/>
     </g>
     <g id="line2d_12">
      <g>
       <use xlink:href="#mfe6b86a0f1" x="663.042813" y="470.397187" style="stroke: #000000; stroke-width: 0.8"/>
      </g>
     </g>
     <g id="text_6">
      <!-- 1.0 -->
      <g transform="translate(654.296094 485.755469) scale(0.11 -0.11)">
       <defs>
        <path id="DejaVuSans-31" d="M 794 531 
L 1825 531 
L 1825 4091 
L 703 3866 
L 703 4441 
L 1819 4666 
L 2450 4666 
L 2450 531 
L 3481 531 
L 3481 0 
L 794 0 
L 794 531 
z
" transform="scale(0.015625)"/>
       </defs>
       <use xlink:href="#DejaVuSans-31"/>
       <use xlink:href="#DejaVuSans-2e" transform="translate(63.623047 0)"/>
       <use xlink:href="#DejaVuSans-30" transform="translate(95.410156 0)"/>
      </g>
     </g>
    </g>
    <g id="text_7">
     <!-- Recall -->
     <g transform="translate(335.25875 502.680937) scale(0.14 -0.14)">
      <defs>
       <path id="DejaVuSans-52" d="M 2841 2188 
Q 3044 2119 3236 1894 
Q 3428 1669 3622 1275 
L 4263 0 
L 3584 0 
L 2988 1197 
Q 2756 1666 2539 1819 
Q 2322 1972 1947 1972 
L 1259 1972 
L 1259 0 
L 628 0 
L 628 4666 
L 2053 4666 
Q 2853 4666 3247 4331 
Q 3641 3997 3641 3322 
Q 3641 2881 3436 2590 
Q 3231 2300 2841 2188 
z
M 1259 4147 
L 1259 2491 
L 2053 2491 
Q 2509 2491 2742 2702 
Q 2975 2913 2975 3322 
Q 2975 3731 2742 3939 
Q 2509 4147 2053 4147 
L 1259 4147 
z
" transform="scale(0.015625)"/>
       <path id="DejaVuSans-65" d="M 3597 1894 
L 3597 1613 
L 953 1613 
Q 991 1019 1311 708 
Q 1631 397 2203 397 
Q 2534 397 2845 478 
Q 3156 559 3463 722 
L 3463 178 
Q 3153 47 2828 -22 
Q 2503 -91 2169 -91 
Q 1331 -91 842 396 
Q 353 884 353 1716 
Q 353 2575 817 3079 
Q 1281 3584 2069 3584 
Q 2775 3584 3186 3129 
Q 3597 2675 3597 1894 
z
M 3022 2063 
Q 3016 2534 2758 2815 
Q 2500 3097 2075 3097 
Q 1594 3097 1305 2825 
Q 1016 2553 972 2059 
L 3022 2063 
z
" transform="scale(0.015625)"/>
       <path id="DejaVuSans-63" d="M 3122 3366 
L 3122 2828 
Q 2878 2963 2633 3030 
Q 2388 3097 2138 3097 
Q 1578 3097 1268 2742 
Q 959 2388 959 1747 
Q 959 1106 1268 751 
Q 1578 397 2138 397 
Q 2388 397 2633 464 
Q 2878 531 3122 666 
L 3122 134 
Q 2881 22 2623 -34 
Q 2366 -91 2075 -91 
Q 1284 -91 818 406 
Q 353 903 353 1747 
Q 353 2603 823 3093 
Q 1294 3584 2113 3584 
Q 2378 3584 2631 3529 
Q 2884 3475 3122 3366 
z
" transform="scale(0.015625)"/>
       <path id="DejaVuSans-61" d="M 2194 1759 
Q 1497 1759 1228 1600 
Q 959 1441 959 1056 
Q 959 750 1161 570 
Q 1363 391 1709 391 
Q 2188 391 2477 730 
Q 2766 1069 2766 1631 
L 2766 1759 
L 2194 1759 
z
M 3341 1997 
L 3341 0 
L 2766 0 
L 2766 531 
Q 2569 213 2275 61 
Q 1981 -91 1556 -91 
Q 1019 -91 701 211 
Q 384 513 384 1019 
Q 384 1609 779 1909 
Q 1175 2209 1959 2209 
L 2766 2209 
L 2766 2266 
Q 2766 2663 2505 2880 
Q 2244 3097 1772 3097 
Q 1472 3097 1187 3025 
Q 903 2953 641 2809 
L 641 3341 
Q 956 3463 1253 3523 
Q 1550 3584 1831 3584 
Q 2591 3584 2966 3190 
Q 3341 2797 3341 1997 
z
" transform="scale(0.015625)"/>
       <path id="DejaVuSans-6c" d="M 603 4863 
L 1178 4863 
L 1178 0 
L 603 0 
L 603 4863 
z
" transform="scale(0.015625)"/>
      </defs>
      <use xlink:href="#DejaVuSans-52"/>
      <use xlink:href="#DejaVuSans-65" transform="translate(64.982422 0)"/>
      <use xlink:href="#DejaVuSans-63" transform="translate(126.505859 0)"/>
      <use xlink:href="#DejaVuSans-61" transform="translate(181.486328 0)"/>
      <use xlink:href="#DejaVuSans-6c" transform="translate(242.765625 0)"/>
      <use xlink:href="#DejaVuSans-6c" transform="translate(270.548828 0)"/>
     </g>
    </g>
   </g>
   <g id="matplotlib.axis_2">
    <g id="ytick_1">
     <g id="line2d_13">
      <path d="M 49.242813 470.397187 
L 663.042813 470.397187 
" clip-path="url(#p894d5132ef)" style="fill: none; stroke: #b0b0b0; stroke-opacity: 0.25; stroke-width: 0.8; stroke-linecap: square"/>
     </g>
     <g id="line2d_14">
      <defs>
       <path id="m7116a9e600" d="M 0 0 
L -3.5 0 
" style="stroke: #000000; stroke-width: 0.8"/>
      </defs>
      <g>
       <use xlink:href="#m7116a9e600" x="49.242813" y="470.397187" style="stroke: #000000; stroke-width: 0.8"/>
      </g>
     </g>
     <g id="text_8">
      <!-- 0.0 -->
      <g transform="translate(24.749375 474.576328) scale(0.11 -0.11)">
       <use xlink:href="#DejaVuSans-30"/>
       <use xlink:href="#DejaVuSans-2e" transform="translate(63.623047 0)"/>
       <use xlink:href="#DejaVuSans-30" transform="translate(95.410156 0)"/>
      </g>
     </g>
    </g>
    <g id="ytick_2">
     <g id="line2d_15">
      <path d="M 49.242813 381.693187 
L 663.042813 381.693187 
" clip-path="url(#p894d5132ef)" style="fill: none; stroke: #b0b0b0; stroke-opacity: 0.25; stroke-width: 0.8; stroke-linecap: square"/>
     </g>
     <g id="line2d_16">
      <g>
       <use xlink:href="#m7116a9e600" x="49.242813" y="381.693187" style="stroke: #000000; stroke-width: 0.8"/>
      </g>
     </g>
     <g id="text_9">
      <!-- 0.2 -->
      <g transform="translate(24.749375 385.872328) scale(0.11 -0.11)">
       <use xlink:href="#DejaVuSans-30"/>
       <use xlink:href="#DejaVuSans-2e" transform="translate(63.623047 0)"/>
       <use xlink:href="#DejaVuSans-32" transform="translate(95.410156 0)"/>
      </g>
     </g>
    </g>
    <g id="ytick_3">
     <g id="line2d_17">
      <path d="M 49.242813 292.989187 
L 663.042813 292.989187 
" clip-path="url(#p894d5132ef)" style="fill: none; stroke: #b0b0b0; stroke-opacity: 0.25; stroke-width: 0.8; stroke-linecap: square"/>
     </g>
     <g id="line2d_18">
      <g>
       <use xlink:href="#m7116a9e600" x="49.242813" y="292.989187" style="stroke: #000000; stroke-width: 0.8"/>
      </g>
     </g>
     <g id="text_10">
      <!-- 0.4 -->
      <g transform="translate(24.749375 297.168328) scale(0.11 -0.11)">
       <use xlink:href="#DejaVuSans-30"/>
       <use xlink:href="#DejaVuSans-2e" transform="translate(63.623047 0)"/>
       <use xlink:href="#DejaVuSans-34" transform="translate(95.410156 0)"/>
      </g>
     </g>
    </g>
    <g id="ytick_4">
     <g id="line2d_19">
      <path d="M 49.242813 204.285187 
L 663.042813 204.285187 
" clip-path="url(#p894d5132ef)" style="fill: none; stroke: #b0b0b0; stroke-opacity: 0.25; stroke-width: 0.8; stroke-linecap: square"/>
     </g>
     <g id="line2d_20">
      <g>
       <use xlink:href="#m7116a9e600" x="49.242813" y="204.285187" style="stroke: #000000; stroke-width: 0.8"/>
      </g>
     </g>
     <g id="text_11">
      <!-- 0.6 -->
      <g transform="translate(24.749375 208.464328) scale(0.11 -0.11)">
       <use xlink:href="#DejaVuSans-30"/>
       <use xlink:href="#DejaVuSans-2e" transform="translate(63.623047 0)"/>
       <use xlink:href="#DejaVuSans-36" transform="translate(95.410156 0)"/>
      </g>
     </g>
    </g>
    <g id="ytick_5">
     <g id="line2d_21">
      <path d="M 49.242813 115.581187 
L 663.042813 115.581187 
" clip-path="url(#p894d5132ef)" style="fill: none; stroke: #b0b0b0; stroke-opacity: 0.25; stroke-width: 0.8; stroke-linecap: square"/>
     </g>
     <g id="line2d_22">
      <g>
       <use xlink:href="#m7116a9e600" x="49.242813" y="115.581187" style="stroke: #000000; stroke-width: 0.8"/>
      </g>
     </g>
     <g id="text_12">
      <!-- 0.8 -->
      <g transform="translate(24.749375 119.760328) scale(0.11 -0.11)">
       <use xlink:href="#DejaVuSans-30"/>
       <use xlink:href="#DejaVuSans-2e" transform="translate(63.623047 0)"/>
       <use xlink:href="#DejaVuSans-38" transform="translate(95.410156 0)"/>
      </g>
     </g>
    </g>
    <g id="ytick_6">
     <g id="line2d_23">
      <path d="M 49.242813 26.877187 
L 663.042813 26.877187 
" clip-path="url(#p894d5132ef)" style="fill: none; stroke: #b0b0b0; stroke-opacity: 0.25; stroke-width: 0.8; stroke-linecap: square"/>
     </g>
     <g id="line2d_24">
      <g>
       <use xlink:href="#m7116a9e600" x="49.242813" y="26.877187" style="stroke: #000000; stroke-width: 0.8"/>
      </g>
     </g>
     <g id="text_13">
      <!-- 1.0 -->
      <g transform="translate(24.749375 31.056328) scale(0.11 -0.11)">
       <use xlink:href="#DejaVuSans-31"/>
       <use xlink:href="#DejaVuSans-2e" transform="translate(63.623047 0)"/>
       <use xlink:href="#DejaVuSans-30" transform="translate(95.410156 0)"/>
      </g>
     </g>
    </g>
    <g id="text_14">
     <!-- Precision -->
     <g transform="translate(17.837813 279.867031) rotate(-90) scale(0.14 -0.14)">
      <defs>
       <path id="DejaVuSans-50" d="M 1259 4147 
L 1259 2394 
L 2053 2394 
Q 2494 2394 2734 2622 
Q 2975 2850 2975 3272 
Q 2975 3691 2734 3919 
Q 2494 4147 2053 4147 
L 1259 4147 
z
M 628 4666 
L 2053 4666 
Q 2838 4666 3239 4311 
Q 3641 3956 3641 3272 
Q 3641 2581 3239 2228 
Q 2838 1875 2053 1875 
L 1259 1875 
L 1259 0 
L 628 0 
L 628 4666 
z
" transform="scale(0.015625)"/>
       <path id="DejaVuSans-72" d="M 2631 2963 
Q 2534 3019 2420 3045 
Q 2306 3072 2169 3072 
Q 1681 3072 1420 2755 
Q 1159 2438 1159 1844 
L 1159 0 
L 581 0 
L 581 3500 
L 1159 3500 
L 1159 2956 
Q 1341 3275 1631 3429 
Q 1922 3584 2338 3584 
Q 2397 3584 2469 3576 
Q 2541 3569 2628 3553 
L 2631 2963 
z
" transform="scale(0.015625)"/>
       <path id="DejaVuSans-69" d="M 603 3500 
L 1178 3500 
L 1178 0 
L 603 0 
L 603 3500 
z
M 603 4863 
L 1178 4863 
L 1178 4134 
L 603 4134 
L 603 4863 
z
" transform="scale(0.015625)"/>
       <path id="DejaVuSans-73" d="M 2834 3397 
L 2834 2853 
Q 2591 2978 2328 3040 
Q 2066 3103 1784 3103 
Q 1356 3103 1142 2972 
Q 928 2841 928 2578 
Q 928 2378 1081 2264 
Q 1234 2150 1697 2047 
L 1894 2003 
Q 2506 1872 2764 1633 
Q 3022 1394 3022 966 
Q 3022 478 2636 193 
Q 2250 -91 1575 -91 
Q 1294 -91 989 -36 
Q 684 19 347 128 
L 347 722 
Q 666 556 975 473 
Q 1284 391 1588 391 
Q 1994 391 2212 530 
Q 2431 669 2431 922 
Q 2431 1156 2273 1281 
Q 2116 1406 1581 1522 
L 1381 1569 
Q 847 1681 609 1914 
Q 372 2147 372 2553 
Q 372 3047 722 3315 
Q 1072 3584 1716 3584 
Q 2034 3584 2315 3537 
Q 2597 3491 2834 3397 
z
" transform="scale(0.015625)"/>
       <path id="DejaVuSans-6f" d="M 1959 3097 
Q 1497 3097 1228 2736 
Q 959 2375 959 1747 
Q 959 1119 1226 758 
Q 1494 397 1959 397 
Q 2419 397 2687 759 
Q 2956 1122 2956 1747 
Q 2956 2369 2687 2733 
Q 2419 3097 1959 3097 
z
M 1959 3584 
Q 2709 3584 3137 3096 
Q 3566 2609 3566 1747 
Q 3566 888 3137 398 
Q 2709 -91 1959 -91 
Q 1206 -91 779 398 
Q 353 888 353 1747 
Q 353 2609 779 3096 
Q 1206 3584 1959 3584 
z
" transform="scale(0.015625)"/>
       <path id="DejaVuSans-6e" d="M 3513 2113 
L 3513 0 
L 2938 0 
L 2938 2094 
Q 2938 2591 2744 2837 
Q 2550 3084 2163 3084 
Q 1697 3084 1428 2787 
Q 1159 2491 1159 1978 
L 1159 0 
L 581 0 
L 581 3500 
L 1159 3500 
L 1159 2956 
Q 1366 3272 1645 3428 
Q 1925 3584 2291 3584 
Q 2894 3584 3203 3211 
Q 3513 2838 3513 2113 
z
" transform="scale(0.015625)"/>
      </defs>
      <use xlink:href="#DejaVuSans-50"/>
      <use xlink:href="#DejaVuSans-72" transform="translate(58.552734 0)"/>
      <use xlink:href="#DejaVuSans-65" transform="translate(97.416016 0)"/>
      <use xlink:href="#DejaVuSans-63" transform="translate(158.939453 0)"/>
      <use xlink:href="#DejaVuSans-69" transform="translate(213.919922 0)"/>
      <use xlink:href="#DejaVuSans-73" transform="translate(241.703125 0)"/>
      <use xlink:href="#DejaVuSans-69" transform="translate(293.802734 0)"/>
      <use xlink:href="#DejaVuSans-6f" transform="translate(321.585938 0)"/>
      <use xlink:href="#DejaVuSans-6e" transform="translate(382.767578 0)"/>
     </g>
    </g>
   </g>
   <g id="line2d_25">
    <path d="M 49.242813 26.877187 
L 56.934542 48.812345 
L 58.472888 51.769819 
L 64.626271 53.431573 
L 66.164617 48.204212 
L 73.856346 52.991647 
L 78.471384 52.822121 
L 81.548076 52.672439 
L 84.624767 52.322773 
L 100.008226 51.082397 
L 106.161609 53.354078 
L 107.699955 50.607312 
L 113.853339 52.629202 
L 115.391685 52.617286 
L 127.698452 51.272613 
L 133.851835 52.611969 
L 135.390181 50.799105 
L 141.543564 53.64022 
L 143.08191 52.176308 
L 149.235294 53.033202 
L 150.77364 53.454418 
L 152.311985 54.060219 
L 155.388677 55.63561 
L 156.927023 57.509597 
L 161.542061 59.298021 
L 163.080406 57.203364 
L 166.157098 58.961281 
L 169.23379 60.810094 
L 170.772136 60.488482 
L 173.848828 62.933078 
L 175.387173 69.53263 
L 176.925519 70.83048 
L 178.463865 68.940629 
L 184.617249 73.229718 
L 186.155594 72.50981 
L 187.69394 71.330871 
L 196.924016 80.209901 
L 198.462361 75.447781 
L 207.692437 78.540977 
L 210.769128 78.351763 
L 215.384166 77.944592 
L 218.460858 78.143684 
L 219.999203 77.39283 
L 221.537549 77.613529 
L 223.075895 78.761848 
L 227.690933 78.693308 
L 229.229279 77.915073 
L 236.921008 79.339225 
L 238.459354 79.680799 
L 239.9977 79.357181 
L 241.536046 79.390784 
L 243.074391 78.234873 
L 247.689429 78.349588 
L 249.227775 79.481922 
L 252.304467 79.435044 
L 255.381158 79.320415 
L 256.919504 78.923664 
L 259.996196 78.910261 
L 263.072888 79.204332 
L 264.611234 79.670815 
L 266.149579 79.074407 
L 267.687925 80.152489 
L 270.764617 80.009843 
L 272.302963 80.861959 
L 273.841309 80.898746 
L 275.379655 81.827343 
L 278.456346 81.81158 
L 279.994692 83.984925 
L 284.60973 83.887821 
L 286.148076 83.575133 
L 287.686422 82.825459 
L 295.378151 82.80277 
L 298.454843 83.022321 
L 299.993188 82.888974 
L 301.531534 83.063367 
L 303.06988 82.677216 
L 306.146572 83.23089 
L 307.684918 83.220402 
L 309.223264 82.925043 
L 310.761609 83.655727 
L 313.838301 83.874441 
L 315.376647 83.746986 
L 316.914993 85.138431 
L 318.453339 85.272475 
L 319.991685 85.589228 
L 321.530031 85.312706 
L 324.606722 85.958037 
L 326.145068 84.713611 
L 330.760106 85.619312 
L 332.298452 85.640973 
L 333.836797 85.995175 
L 335.375143 86.125218 
L 338.451835 85.379605 
L 339.990181 86.057929 
L 343.066873 86.044282 
L 347.68191 85.685665 
L 349.220256 86.171734 
L 352.296948 85.934751 
L 353.835294 85.39803 
L 364.603715 84.598024 
L 367.680406 84.662082 
L 369.218752 84.14782 
L 370.757098 84.734299 
L 372.295444 84.467861 
L 375.372136 84.984288 
L 376.910482 84.559615 
L 379.987173 84.871112 
L 381.525519 84.805431 
L 384.602211 85.80873 
L 386.140557 87.613415 
L 387.678903 88.635211 
L 389.217249 89.377367 
L 390.755594 89.271607 
L 392.29394 89.442905 
L 393.832286 89.863863 
L 395.370632 89.925737 
L 396.908978 89.539473 
L 401.524016 90.015979 
L 403.062361 89.76052 
L 404.600707 90.210168 
L 406.139053 90.171468 
L 409.215745 90.336512 
L 410.754091 90.011611 
L 412.292437 90.132091 
L 413.830782 89.684436 
L 416.907474 89.927471 
L 418.44582 90.989274 
L 423.060858 91.218528 
L 424.599203 92.126577 
L 426.137549 91.815048 
L 427.675895 91.874611 
L 429.214241 91.710985 
L 433.829279 92.550118 
L 435.367625 91.898433 
L 436.90597 91.930433 
L 438.444316 92.385833 
L 441.521008 94.084361 
L 444.5977 95.241464 
L 446.136046 94.727478 
L 447.674391 94.834836 
L 449.212737 95.75425 
L 450.751083 96.231123 
L 453.827775 97.937289 
L 455.366121 98.049501 
L 456.904467 97.721267 
L 459.981158 97.80961 
L 461.519504 98.193902 
L 463.05785 98.350041 
L 464.596196 98.038836 
L 466.134542 98.335745 
L 469.211234 99.24503 
L 470.749579 100.383932 
L 473.826271 100.0292 
L 475.364617 99.996351 
L 476.902963 100.309479 
L 478.441309 101.115053 
L 479.979655 101.341773 
L 481.518 101.708758 
L 483.056346 101.594717 
L 484.594692 101.725393 
L 486.133038 101.042949 
L 489.20973 101.584635 
L 492.286422 102.214603 
L 495.363113 101.905918 
L 496.901459 102.070904 
L 498.439805 101.746515 
L 499.978151 102.046604 
L 501.516497 101.818791 
L 503.054843 101.711608 
L 506.131534 102.034211 
L 512.284918 102.704957 
L 513.823264 102.149807 
L 516.899955 102.454704 
L 518.438301 102.827067 
L 519.976647 102.408745 
L 521.514993 102.52649 
L 523.053339 102.372307 
L 524.591685 102.51607 
L 526.130031 102.810455 
L 527.668376 102.592864 
L 529.206722 102.743325 
L 530.745068 102.745964 
L 533.82176 103.129189 
L 535.360106 103.006155 
L 536.898452 103.199576 
L 539.975143 102.857827 
L 544.590181 103.19479 
L 546.128527 104.123869 
L 547.666873 104.360957 
L 549.205219 104.305323 
L 552.28191 104.852001 
L 553.820256 105.627276 
L 555.358602 105.235842 
L 558.435294 105.989131 
L 559.97364 106.264758 
L 561.511985 106.653573 
L 564.588677 108.06321 
L 566.127023 108.378267 
L 567.665369 108.965958 
L 569.203715 108.635043 
L 570.742061 108.752387 
L 572.280406 109.149829 
L 573.818752 109.360619 
L 575.357098 110.250667 
L 576.895444 110.270274 
L 578.43379 110.030636 
L 579.972136 110.128351 
L 581.510482 110.405394 
L 583.048828 110.847242 
L 586.125519 110.513608 
L 587.663865 110.437375 
L 589.202211 110.590416 
L 590.740557 110.876704 
L 592.278903 111.401242 
L 593.817249 111.682703 
L 595.355594 111.585026 
L 596.89394 112.234502 
L 601.508978 112.925977 
L 603.047324 112.542055 
L 604.58567 112.758929 
L 606.124016 112.691754 
L 609.200707 113.1169 
L 610.739053 112.809347 
L 612.277399 113.041716 
L 613.815745 112.800806 
L 615.354091 113.434134 
L 616.892437 113.676835 
L 618.430782 113.648002 
L 619.969128 114.164011 
L 621.507474 114.020945 
L 626.122512 114.804465 
L 627.660858 115.310106 
L 629.199203 115.401554 
L 630.737549 116.497825 
L 632.275895 117.093306 
L 633.814241 118.433529 
L 636.890933 122.154166 
L 639.967625 126.40202 
L 641.50597 126.91123 
L 643.044316 128.491511 
L 644.582662 131.425076 
L 646.121008 133.410803 
L 647.659354 134.595051 
L 649.1977 137.224768 
L 650.736046 138.98601 
L 652.274391 141.651545 
L 655.351083 148.247921 
L 656.889429 156.088556 
L 661.504467 183.380471 
L 663.042813 196.205387 
L 663.042813 196.205387 
" clip-path="url(#p894d5132ef)" style="fill: none; stroke: #1f77b4; stroke-width: 2.5; stroke-linecap: square"/>
   </g>
   <g id="line2d_26">
    <path d="M 49.242813 56.445187 
L 56.934542 49.590451 
L 58.472888 48.552977 
L 64.626271 45.262703 
L 66.164617 46.476265 
L 73.856346 43.864937 
L 75.394692 44.319612 
L 81.548076 46.971115 
L 83.086422 43.510878 
L 90.778151 45.87566 
L 104.623264 43.867672 
L 106.161609 43.66203 
L 107.699955 44.901234 
L 115.391685 44.019338 
L 116.930031 45.047734 
L 130.775143 43.719 
L 132.313489 44.114813 
L 140.005219 43.475037 
L 141.543564 43.854893 
L 163.080406 42.321564 
L 166.157098 42.210429 
L 172.310482 42.51771 
L 173.848828 41.671293 
L 181.540557 42.086731 
L 186.155594 41.88238 
L 187.69394 42.104977 
L 189.232286 42.559152 
L 190.770632 43.437332 
L 196.924016 45.273025 
L 198.462361 48.318428 
L 200.000707 49.141685 
L 206.154091 49.323232 
L 207.692437 50.073483 
L 209.230782 51.036833 
L 216.922512 50.481959 
L 218.460858 50.420205 
L 219.999203 51.294631 
L 221.537549 53.634062 
L 223.075895 53.766214 
L 224.614241 53.572569 
L 226.152587 53.707822 
L 227.690933 54.75084 
L 229.229279 54.670582 
L 235.382662 54.862327 
L 238.459354 55.802942 
L 239.9977 55.473268 
L 241.536046 56.502202 
L 243.074391 55.331807 
L 247.689429 58.743075 
L 249.227775 58.128506 
L 250.766121 58.075653 
L 255.381158 60.106399 
L 256.919504 59.952101 
L 261.534542 61.658735 
L 263.072888 62.05054 
L 264.611234 60.819051 
L 266.149579 60.961472 
L 269.226271 61.689764 
L 270.764617 61.466241 
L 272.302963 61.706477 
L 273.841309 61.709788 
L 275.379655 62.706819 
L 278.456346 62.581913 
L 279.994692 63.172421 
L 281.533038 63.258006 
L 283.071384 63.774555 
L 286.148076 63.738424 
L 287.686422 65.169981 
L 290.763113 65.497441 
L 292.301459 65.130977 
L 293.839805 65.232213 
L 295.378151 64.70821 
L 299.993188 64.88635 
L 303.06988 64.778124 
L 306.146572 64.483228 
L 307.684918 64.829173 
L 309.223264 64.752401 
L 310.761609 65.493075 
L 313.838301 65.894159 
L 315.376647 66.180582 
L 318.453339 65.291595 
L 319.991685 65.8276 
L 321.530031 65.904869 
L 323.068376 66.902773 
L 324.606722 66.614478 
L 326.145068 66.442308 
L 329.22176 66.749749 
L 330.760106 66.857462 
L 332.298452 66.823784 
L 333.836797 67.681519 
L 336.913489 67.517923 
L 338.451835 67.495884 
L 341.528527 67.715805 
L 343.066873 67.418099 
L 344.605219 67.54417 
L 346.143564 68.254528 
L 347.68191 68.624539 
L 349.220256 69.318612 
L 352.296948 70.372322 
L 353.835294 70.237671 
L 355.37364 70.654002 
L 356.911985 69.8937 
L 358.450331 70.437996 
L 359.988677 70.422844 
L 363.065369 71.188117 
L 364.603715 71.160412 
L 369.218752 72.429129 
L 370.757098 71.919619 
L 373.83379 72.857752 
L 376.910482 72.537703 
L 379.987173 72.944513 
L 381.525519 73.866709 
L 383.063865 73.9449 
L 384.602211 75.496563 
L 386.140557 75.911571 
L 387.678903 76.09728 
L 389.217249 76.880076 
L 390.755594 77.038558 
L 395.370632 78.179464 
L 396.908978 78.695309 
L 398.447324 78.920199 
L 399.98567 79.329235 
L 401.524016 80.058299 
L 403.062361 81.652868 
L 404.600707 80.710634 
L 406.139053 80.407438 
L 409.215745 81.211962 
L 410.754091 81.174052 
L 412.292437 81.48461 
L 413.830782 82.161945 
L 418.44582 82.499582 
L 419.984166 83.0303 
L 421.522512 84.5365 
L 424.599203 84.735698 
L 426.137549 85.784022 
L 427.675895 86.041508 
L 429.214241 86.508936 
L 430.752587 86.836769 
L 432.290933 86.349704 
L 433.829279 86.590197 
L 435.367625 86.461622 
L 436.90597 87.512818 
L 444.5977 88.943268 
L 446.136046 92.399918 
L 447.674391 92.860397 
L 449.212737 92.604201 
L 453.827775 93.800473 
L 455.366121 93.950244 
L 456.904467 93.873323 
L 458.442813 93.585908 
L 461.519504 93.944899 
L 463.05785 94.247594 
L 464.596196 93.90532 
L 469.211234 94.719199 
L 470.749579 95.634224 
L 472.287925 95.324924 
L 473.826271 95.438045 
L 475.364617 95.870112 
L 476.902963 95.983173 
L 478.441309 96.635026 
L 479.979655 96.230816 
L 481.518 96.784008 
L 484.594692 97.333674 
L 486.133038 97.377609 
L 487.671384 97.748625 
L 490.748076 99.078436 
L 492.286422 99.3469 
L 493.824767 98.350322 
L 499.978151 100.626143 
L 503.054843 101.336248 
L 504.593188 101.357356 
L 506.131534 101.494787 
L 507.66988 101.052104 
L 513.823264 100.795446 
L 518.438301 101.138902 
L 519.976647 100.467922 
L 526.130031 101.053566 
L 527.668376 101.022793 
L 532.283414 101.825095 
L 533.82176 102.118904 
L 536.898452 101.815604 
L 539.975143 101.843598 
L 544.590181 102.198609 
L 546.128527 102.303711 
L 547.666873 102.262904 
L 549.205219 102.843907 
L 553.820256 103.287398 
L 555.358602 103.688244 
L 556.896948 103.861122 
L 558.435294 104.287761 
L 559.97364 105.191029 
L 564.588677 106.026615 
L 566.127023 106.654333 
L 567.665369 107.154333 
L 569.203715 107.885532 
L 572.280406 108.385159 
L 573.818752 108.225576 
L 575.357098 108.218298 
L 576.895444 107.981352 
L 579.972136 108.418598 
L 581.510482 108.283138 
L 583.048828 108.313057 
L 584.587173 108.127244 
L 586.125519 108.219967 
L 587.663865 108.561366 
L 589.202211 108.699052 
L 590.740557 108.64041 
L 592.278903 109.15491 
L 593.817249 109.388521 
L 595.355594 109.841264 
L 596.89394 109.898153 
L 598.432286 109.628736 
L 599.970632 109.857149 
L 601.508978 110.216529 
L 604.58567 111.144197 
L 609.200707 113.681999 
L 610.739053 113.776315 
L 612.277399 115.772582 
L 615.354091 116.111986 
L 616.892437 116.589702 
L 619.969128 118.975061 
L 624.584166 119.490903 
L 626.122512 120.589352 
L 629.199203 121.881392 
L 630.737549 123.232888 
L 632.275895 123.830809 
L 633.814241 123.705406 
L 636.890933 126.968066 
L 638.429279 129.779674 
L 639.967625 131.815341 
L 641.50597 135.33167 
L 643.044316 136.243547 
L 644.582662 138.492422 
L 646.121008 139.701981 
L 647.659354 141.089776 
L 649.1977 144.31052 
L 652.274391 146.979168 
L 653.812737 150.774026 
L 655.351083 153.161672 
L 656.889429 155.778218 
L 659.966121 169.121818 
L 661.504467 175.560098 
L 663.042813 194.824431 
L 663.042813 194.824431 
" clip-path="url(#p894d5132ef)" style="fill: none; stroke: #ff7f0e; stroke-width: 2.5; stroke-linecap: square"/>
   </g>
   <g id="line2d_27">
    <path d="M 49.242813 26.877187 
L 60.011234 40.883082 
L 61.549579 41.253609 
L 64.626271 39.956766 
L 70.779655 43.217398 
L 72.318 48.471461 
L 81.548076 44.217819 
L 83.086422 49.436594 
L 86.163113 48.083997 
L 87.701459 47.499014 
L 93.854843 50.077685 
L 95.393188 47.52609 
L 103.084918 52.871509 
L 104.623264 53.283865 
L 106.161609 51.027903 
L 112.314993 50.739105 
L 118.468376 50.557645 
L 124.62176 51.227672 
L 126.160106 50.174244 
L 127.698452 50.361898 
L 129.236797 48.728325 
L 133.851835 49.920325 
L 140.005219 52.348013 
L 141.543564 51.384728 
L 143.08191 51.942158 
L 144.620256 49.539419 
L 150.77364 51.631448 
L 152.311985 50.800366 
L 155.388677 51.389704 
L 161.542061 51.09032 
L 163.080406 52.08736 
L 170.772136 50.973198 
L 172.310482 51.755886 
L 173.848828 53.499296 
L 178.463865 53.835454 
L 180.002211 52.387116 
L 184.617249 52.706899 
L 186.155594 53.750712 
L 187.69394 53.669364 
L 193.847324 54.084421 
L 195.38567 52.647014 
L 196.924016 52.751569 
L 198.462361 54.541248 
L 201.539053 55.061854 
L 203.077399 55.444781 
L 206.154091 55.753029 
L 207.692437 57.183294 
L 209.230782 55.458016 
L 215.384166 56.036789 
L 219.999203 55.73067 
L 221.537549 55.834007 
L 226.152587 56.610439 
L 227.690933 55.73119 
L 229.229279 55.983539 
L 232.30597 56.956943 
L 233.844316 57.60646 
L 235.382662 58.095773 
L 238.459354 58.528084 
L 239.9977 59.974527 
L 241.536046 61.22713 
L 244.612737 62.077359 
L 247.689429 63.572284 
L 249.227775 62.754909 
L 250.766121 63.227626 
L 252.304467 64.467657 
L 256.919504 65.478282 
L 259.996196 65.672412 
L 261.534542 64.746884 
L 264.611234 65.199146 
L 266.149579 65.957914 
L 270.764617 67.074373 
L 272.302963 66.56128 
L 273.841309 66.244769 
L 276.918 66.70394 
L 278.456346 66.263686 
L 279.994692 66.643204 
L 281.533038 68.199811 
L 284.60973 68.469301 
L 286.148076 67.863827 
L 290.763113 68.135056 
L 292.301459 67.578722 
L 293.839805 69.996314 
L 296.916497 70.377724 
L 298.454843 70.622417 
L 299.993188 70.256879 
L 301.531534 70.486367 
L 303.06988 69.93491 
L 306.146572 70.394651 
L 307.684918 70.022579 
L 310.761609 70.161624 
L 312.299955 70.194168 
L 313.838301 71.22116 
L 316.914993 71.519984 
L 319.991685 71.717369 
L 323.068376 73.812297 
L 324.606722 73.308446 
L 326.145068 73.567645 
L 327.683414 74.680775 
L 330.760106 75.19874 
L 332.298452 75.036972 
L 333.836797 75.431036 
L 335.375143 75.60176 
L 338.451835 76.287518 
L 339.990181 75.781973 
L 341.528527 76.549863 
L 344.605219 76.910491 
L 346.143564 76.57641 
L 349.220256 76.866155 
L 352.296948 77.442793 
L 353.835294 77.153579 
L 355.37364 77.339473 
L 356.911985 76.343264 
L 361.527023 77.462043 
L 363.065369 77.385195 
L 364.603715 78.695901 
L 366.142061 79.219213 
L 367.680406 79.345186 
L 369.218752 79.156839 
L 370.757098 79.633334 
L 372.295444 79.955265 
L 373.83379 80.059189 
L 376.910482 80.798669 
L 378.448828 80.594663 
L 379.987173 80.809266 
L 381.525519 80.057285 
L 384.602211 80.605641 
L 386.140557 80.64014 
L 387.678903 81.045256 
L 389.217249 80.666736 
L 392.29394 80.932291 
L 393.832286 80.482092 
L 396.908978 80.844035 
L 398.447324 81.33775 
L 399.98567 81.326176 
L 403.062361 81.822755 
L 404.600707 84.016195 
L 406.139053 83.97811 
L 412.292437 85.141894 
L 413.830782 84.894783 
L 415.369128 85.267602 
L 416.907474 85.327924 
L 419.984166 84.749805 
L 421.522512 85.383876 
L 423.060858 85.769163 
L 426.137549 85.975499 
L 427.675895 85.977536 
L 429.214241 85.542846 
L 430.752587 85.645282 
L 432.290933 86.606793 
L 435.367625 86.73097 
L 436.90597 86.179664 
L 439.982662 86.26384 
L 441.521008 86.335615 
L 444.5977 86.821978 
L 446.136046 86.667757 
L 447.674391 87.531126 
L 449.212737 87.494566 
L 450.751083 87.661882 
L 452.289429 87.324884 
L 453.827775 88.173643 
L 456.904467 88.401448 
L 458.442813 88.844648 
L 459.981158 88.967075 
L 461.519504 88.631156 
L 464.596196 88.791106 
L 469.211234 89.708551 
L 470.749579 89.088519 
L 472.287925 89.013021 
L 475.364617 89.344219 
L 478.441309 89.911793 
L 479.979655 90.143177 
L 481.518 90.043868 
L 483.056346 89.497149 
L 484.594692 89.313497 
L 486.133038 90.350944 
L 487.671384 90.449853 
L 489.20973 90.279691 
L 490.748076 90.275301 
L 492.286422 90.493046 
L 493.824767 90.995437 
L 496.901459 91.27498 
L 498.439805 91.212019 
L 499.978151 90.980243 
L 501.516497 91.956132 
L 503.054843 92.336262 
L 504.593188 92.217502 
L 506.131534 93.08739 
L 509.208226 93.284621 
L 510.746572 93.161189 
L 512.284918 94.403852 
L 513.823264 95.256849 
L 515.361609 95.276222 
L 516.899955 96.154356 
L 518.438301 96.115436 
L 521.514993 95.789652 
L 523.053339 96.03361 
L 524.591685 97.084741 
L 526.130031 98.536534 
L 529.206722 99.134766 
L 530.745068 98.534708 
L 532.283414 98.879365 
L 533.82176 99.039151 
L 535.360106 99.45852 
L 536.898452 99.505871 
L 538.436797 100.109739 
L 543.051835 99.767318 
L 544.590181 99.940835 
L 546.128527 100.457931 
L 549.205219 100.749628 
L 550.743564 101.257564 
L 553.820256 101.629322 
L 555.358602 102.111716 
L 558.435294 102.212539 
L 559.97364 102.348137 
L 561.511985 102.202657 
L 563.050331 102.339123 
L 566.127023 103.724038 
L 567.665369 103.82998 
L 569.203715 104.46432 
L 570.742061 103.992636 
L 572.280406 104.444687 
L 573.818752 104.294036 
L 575.357098 104.494808 
L 576.895444 104.493828 
L 578.43379 104.806055 
L 581.510482 106.137363 
L 583.048828 106.132944 
L 584.587173 106.681525 
L 586.125519 106.066568 
L 587.663865 106.238436 
L 589.202211 106.573697 
L 590.740557 107.195361 
L 593.817249 108.110907 
L 595.355594 108.438443 
L 596.89394 108.479986 
L 598.432286 108.860326 
L 599.970632 109.746426 
L 601.508978 110.1449 
L 603.047324 110.69923 
L 604.58567 111.034259 
L 606.124016 112.572477 
L 607.662361 113.610893 
L 609.200707 114.172654 
L 610.739053 115.344134 
L 612.277399 116.889513 
L 613.815745 117.408893 
L 615.354091 118.066247 
L 616.892437 119.083838 
L 618.430782 119.935817 
L 619.969128 122.832832 
L 621.507474 124.464662 
L 623.04582 125.720348 
L 624.584166 127.488395 
L 626.122512 127.569674 
L 627.660858 127.329931 
L 629.199203 129.290018 
L 630.737549 129.449456 
L 632.275895 130.896513 
L 633.814241 130.598032 
L 636.890933 131.88156 
L 639.967625 135.01036 
L 641.50597 137.561867 
L 643.044316 139.648543 
L 644.582662 141.443284 
L 646.121008 145.00455 
L 647.659354 147.059699 
L 649.1977 153.619298 
L 650.736046 155.079996 
L 652.274391 155.749206 
L 653.812737 157.335045 
L 655.351083 159.450498 
L 656.889429 168.602202 
L 658.427775 175.512846 
L 661.504467 190.67869 
L 663.042813 203.721427 
L 663.042813 203.721427 
" clip-path="url(#p894d5132ef)" style="fill: none; stroke: #2ca02c; stroke-width: 2.5; stroke-linecap: square"/>
   </g>
   <g id="patch_3">
    <path d="M 49.242813 470.397187 
L 49.242813 26.877187 
" style="fill: none; stroke: #000000; stroke-width: 0.8; stroke-linejoin: miter; stroke-linecap: square"/>
   </g>
   <g id="patch_4">
    <path d="M 663.042813 470.397187 
L 663.042813 26.877187 
" style="fill: none; stroke: #000000; stroke-width: 0.8; stroke-linejoin: miter; stroke-linecap: square"/>
   </g>
   <g id="patch_5">
    <path d="M 49.242813 470.397187 
L 663.042813 470.397187 
" style="fill: none; stroke: #000000; stroke-width: 0.8; stroke-linejoin: miter; stroke-linecap: square"/>
   </g>
   <g id="patch_6">
    <path d="M 49.242813 26.877187 
L 663.042813 26.877187 
" style="fill: none; stroke: #000000; stroke-width: 0.8; stroke-linejoin: miter; stroke-linecap: square"/>
   </g>
   <g id="text_15">
    <!-- Mean Precision-Recall Curves (Outer Folds) -->
    <g transform="translate(162.850938 20.877187) scale(0.18 -0.18)">
     <defs>
      <path id="DejaVuSans-4d" d="M 628 4666 
L 1569 4666 
L 2759 1491 
L 3956 4666 
L 4897 4666 
L 4897 0 
L 4281 0 
L 4281 4097 
L 3078 897 
L 2444 897 
L 1241 4097 
L 1241 0 
L 628 0 
L 628 4666 
z
" transform="scale(0.015625)"/>
      <path id="DejaVuSans-20" transform="scale(0.015625)"/>
      <path id="DejaVuSans-2d" d="M 313 2009 
L 1997 2009 
L 1997 1497 
L 313 1497 
L 313 2009 
z
" transform="scale(0.015625)"/>
      <path id="DejaVuSans-43" d="M 4122 4306 
L 4122 3641 
Q 3803 3938 3442 4084 
Q 3081 4231 2675 4231 
Q 1875 4231 1450 3742 
Q 1025 3253 1025 2328 
Q 1025 1406 1450 917 
Q 1875 428 2675 428 
Q 3081 428 3442 575 
Q 3803 722 4122 1019 
L 4122 359 
Q 3791 134 3420 21 
Q 3050 -91 2638 -91 
Q 1578 -91 968 557 
Q 359 1206 359 2328 
Q 359 3453 968 4101 
Q 1578 4750 2638 4750 
Q 3056 4750 3426 4639 
Q 3797 4528 4122 4306 
z
" transform="scale(0.015625)"/>
      <path id="DejaVuSans-75" d="M 544 1381 
L 544 3500 
L 1119 3500 
L 1119 1403 
Q 1119 906 1312 657 
Q 1506 409 1894 409 
Q 2359 409 2629 706 
Q 2900 1003 2900 1516 
L 2900 3500 
L 3475 3500 
L 3475 0 
L 2900 0 
L 2900 538 
Q 2691 219 2414 64 
Q 2138 -91 1772 -91 
Q 1169 -91 856 284 
Q 544 659 544 1381 
z
M 1991 3584 
L 1991 3584 
z
" transform="scale(0.015625)"/>
      <path id="DejaVuSans-76" d="M 191 3500 
L 800 3500 
L 1894 563 
L 2988 3500 
L 3597 3500 
L 2284 0 
L 1503 0 
L 191 3500 
z
" transform="scale(0.015625)"/>
      <path id="DejaVuSans-28" d="M 1984 4856 
Q 1566 4138 1362 3434 
Q 1159 2731 1159 2009 
Q 1159 1288 1364 580 
Q 1569 -128 1984 -844 
L 1484 -844 
Q 1016 -109 783 600 
Q 550 1309 550 2009 
Q 550 2706 781 3412 
Q 1013 4119 1484 4856 
L 1984 4856 
z
" transform="scale(0.015625)"/>
      <path id="DejaVuSans-4f" d="M 2522 4238 
Q 1834 4238 1429 3725 
Q 1025 3213 1025 2328 
Q 1025 1447 1429 934 
Q 1834 422 2522 422 
Q 3209 422 3611 934 
Q 4013 1447 4013 2328 
Q 4013 3213 3611 3725 
Q 3209 4238 2522 4238 
z
M 2522 4750 
Q 3503 4750 4090 4092 
Q 4678 3434 4678 2328 
Q 4678 1225 4090 567 
Q 3503 -91 2522 -91 
Q 1538 -91 948 565 
Q 359 1222 359 2328 
Q 359 3434 948 4092 
Q 1538 4750 2522 4750 
z
" transform="scale(0.015625)"/>
      <path id="DejaVuSans-74" d="M 1172 4494 
L 1172 3500 
L 2356 3500 
L 2356 3053 
L 1172 3053 
L 1172 1153 
Q 1172 725 1289 603 
Q 1406 481 1766 481 
L 2356 481 
L 2356 0 
L 1766 0 
Q 1100 0 847 248 
Q 594 497 594 1153 
L 594 3053 
L 172 3053 
L 172 3500 
L 594 3500 
L 594 4494 
L 1172 4494 
z
" transform="scale(0.015625)"/>
      <path id="DejaVuSans-46" d="M 628 4666 
L 3309 4666 
L 3309 4134 
L 1259 4134 
L 1259 2759 
L 3109 2759 
L 3109 2228 
L 1259 2228 
L 1259 0 
L 628 0 
L 628 4666 
z
" transform="scale(0.015625)"/>
      <path id="DejaVuSans-64" d="M 2906 2969 
L 2906 4863 
L 3481 4863 
L 3481 0 
L 2906 0 
L 2906 525 
Q 2725 213 2448 61 
Q 2172 -91 1784 -91 
Q 1150 -91 751 415 
Q 353 922 353 1747 
Q 353 2572 751 3078 
Q 1150 3584 1784 3584 
Q 2172 3584 2448 3432 
Q 2725 3281 2906 2969 
z
M 947 1747 
Q 947 1113 1208 752 
Q 1469 391 1925 391 
Q 2381 391 2643 752 
Q 2906 1113 2906 1747 
Q 2906 2381 2643 2742 
Q 2381 3103 1925 3103 
Q 1469 3103 1208 2742 
Q 947 2381 947 1747 
z
" transform="scale(0.015625)"/>
      <path id="DejaVuSans-29" d="M 513 4856 
L 1013 4856 
Q 1481 4119 1714 3412 
Q 1947 2706 1947 2009 
Q 1947 1309 1714 600 
Q 1481 -109 1013 -844 
L 513 -844 
Q 928 -128 1133 580 
Q 1338 1288 1338 2009 
Q 1338 2731 1133 3434 
Q 928 4138 513 4856 
z
" transform="scale(0.015625)"/>
     </defs>
     <use xlink:href="#DejaVuSans-4d"/>
     <use xlink:href="#DejaVuSans-65" transform="translate(86.279297 0)"/>
     <use xlink:href="#DejaVuSans-61" transform="translate(147.802734 0)"/>
     <use xlink:href="#DejaVuSans-6e" transform="translate(209.082031 0)"/>
     <use xlink:href="#DejaVuSans-20" transform="translate(272.460938 0)"/>
     <use xlink:href="#DejaVuSans-50" transform="translate(304.248047 0)"/>
     <use xlink:href="#DejaVuSans-72" transform="translate(362.800781 0)"/>
     <use xlink:href="#DejaVuSans-65" transform="translate(401.664062 0)"/>
     <use xlink:href="#DejaVuSans-63" transform="translate(463.1875 0)"/>
     <use xlink:href="#DejaVuSans-69" transform="translate(518.167969 0)"/>
     <use xlink:href="#DejaVuSans-73" transform="translate(545.951172 0)"/>
     <use xlink:href="#DejaVuSans-69" transform="translate(598.050781 0)"/>
     <use xlink:href="#DejaVuSans-6f" transform="translate(625.833984 0)"/>
     <use xlink:href="#DejaVuSans-6e" transform="translate(687.015625 0)"/>
     <use xlink:href="#DejaVuSans-2d" transform="translate(750.394531 0)"/>
     <use xlink:href="#DejaVuSans-52" transform="translate(786.478516 0)"/>
     <use xlink:href="#DejaVuSans-65" transform="translate(851.460938 0)"/>
     <use xlink:href="#DejaVuSans-63" transform="translate(912.984375 0)"/>
     <use xlink:href="#DejaVuSans-61" transform="translate(967.964844 0)"/>
     <use xlink:href="#DejaVuSans-6c" transform="translate(1029.244141 0)"/>
     <use xlink:href="#DejaVuSans-6c" transform="translate(1057.027344 0)"/>
     <use xlink:href="#DejaVuSans-20" transform="translate(1084.810547 0)"/>
     <use xlink:href="#DejaVuSans-43" transform="translate(1116.597656 0)"/>
     <use xlink:href="#DejaVuSans-75" transform="translate(1186.421875 0)"/>
     <use xlink:href="#DejaVuSans-72" transform="translate(1249.800781 0)"/>
     <use xlink:href="#DejaVuSans-76" transform="translate(1290.914062 0)"/>
     <use xlink:href="#DejaVuSans-65" transform="translate(1350.09375 0)"/>
     <use xlink:href="#DejaVuSans-73" transform="translate(1411.617188 0)"/>
     <use xlink:href="#DejaVuSans-20" transform="translate(1463.716797 0)"/>
     <use xlink:href="#DejaVuSans-28" transform="translate(1495.503906 0)"/>
     <use xlink:href="#DejaVuSans-4f" transform="translate(1534.517578 0)"/>
     <use xlink:href="#DejaVuSans-75" transform="translate(1613.228516 0)"/>
     <use xlink:href="#DejaVuSans-74" transform="translate(1676.607422 0)"/>
     <use xlink:href="#DejaVuSans-65" transform="translate(1715.816406 0)"/>
     <use xlink:href="#DejaVuSans-72" transform="translate(1777.339844 0)"/>
     <use xlink:href="#DejaVuSans-20" transform="translate(1818.453125 0)"/>
     <use xlink:href="#DejaVuSans-46" transform="translate(1850.240234 0)"/>
     <use xlink:href="#DejaVuSans-6f" transform="translate(1904.134766 0)"/>
     <use xlink:href="#DejaVuSans-6c" transform="translate(1965.316406 0)"/>
     <use xlink:href="#DejaVuSans-64" transform="translate(1993.099609 0)"/>
     <use xlink:href="#DejaVuSans-73" transform="translate(2056.576172 0)"/>
     <use xlink:href="#DejaVuSans-29" transform="translate(2108.675781 0)"/>
    </g>
   </g>
   <g id="legend_1">
    <g id="patch_7">
     <path d="M 56.942813 464.897187 
L 364.059375 464.897187 
Q 366.259375 464.897187 366.259375 462.697187 
L 366.259375 415.359375 
Q 366.259375 413.159375 364.059375 413.159375 
L 56.942813 413.159375 
Q 54.742813 413.159375 54.742813 415.359375 
L 54.742813 462.697187 
Q 54.742813 464.897187 56.942813 464.897187 
z
" style="fill: #ffffff; opacity: 0.8; stroke: #cccccc; stroke-linejoin: miter"/>
    </g>
    <g id="line2d_28">
     <path d="M 59.142813 422.067656 
L 70.142813 422.067656 
L 81.142813 422.067656 
" style="fill: none; stroke: #1f77b4; stroke-width: 2.5; stroke-linecap: square"/>
    </g>
    <g id="text_16">
     <!-- SVM (RBF) (AP=0.867 +/- 0.138) -->
     <g transform="translate(89.942813 425.917656) scale(0.11 -0.11)">
      <defs>
       <path id="DejaVuSans-53" d="M 3425 4513 
L 3425 3897 
Q 3066 4069 2747 4153 
Q 2428 4238 2131 4238 
Q 1616 4238 1336 4038 
Q 1056 3838 1056 3469 
Q 1056 3159 1242 3001 
Q 1428 2844 1947 2747 
L 2328 2669 
Q 3034 2534 3370 2195 
Q 3706 1856 3706 1288 
Q 3706 609 3251 259 
Q 2797 -91 1919 -91 
Q 1588 -91 1214 -16 
Q 841 59 441 206 
L 441 856 
Q 825 641 1194 531 
Q 1563 422 1919 422 
Q 2459 422 2753 634 
Q 3047 847 3047 1241 
Q 3047 1584 2836 1778 
Q 2625 1972 2144 2069 
L 1759 2144 
Q 1053 2284 737 2584 
Q 422 2884 422 3419 
Q 422 4038 858 4394 
Q 1294 4750 2059 4750 
Q 2388 4750 2728 4690 
Q 3069 4631 3425 4513 
z
" transform="scale(0.015625)"/>
       <path id="DejaVuSans-56" d="M 1831 0 
L 50 4666 
L 709 4666 
L 2188 738 
L 3669 4666 
L 4325 4666 
L 2547 0 
L 1831 0 
z
" transform="scale(0.015625)"/>
       <path id="DejaVuSans-42" d="M 1259 2228 
L 1259 519 
L 2272 519 
Q 2781 519 3026 730 
Q 3272 941 3272 1375 
Q 3272 1813 3026 2020 
Q 2781 2228 2272 2228 
L 1259 2228 
z
M 1259 4147 
L 1259 2741 
L 2194 2741 
Q 2656 2741 2882 2914 
Q 3109 3088 3109 3444 
Q 3109 3797 2882 3972 
Q 2656 4147 2194 4147 
L 1259 4147 
z
M 628 4666 
L 2241 4666 
Q 2963 4666 3353 4366 
Q 3744 4066 3744 3513 
Q 3744 3084 3544 2831 
Q 3344 2578 2956 2516 
Q 3422 2416 3680 2098 
Q 3938 1781 3938 1306 
Q 3938 681 3513 340 
Q 3088 0 2303 0 
L 628 0 
L 628 4666 
z
" transform="scale(0.015625)"/>
       <path id="DejaVuSans-41" d="M 2188 4044 
L 1331 1722 
L 3047 1722 
L 2188 4044 
z
M 1831 4666 
L 2547 4666 
L 4325 0 
L 3669 0 
L 3244 1197 
L 1141 1197 
L 716 0 
L 50 0 
L 1831 4666 
z
" transform="scale(0.015625)"/>
       <path id="DejaVuSans-3d" d="M 678 2906 
L 4684 2906 
L 4684 2381 
L 678 2381 
L 678 2906 
z
M 678 1631 
L 4684 1631 
L 4684 1100 
L 678 1100 
L 678 1631 
z
" transform="scale(0.015625)"/>
       <path id="DejaVuSans-37" d="M 525 4666 
L 3525 4666 
L 3525 4397 
L 1831 0 
L 1172 0 
L 2766 4134 
L 525 4134 
L 525 4666 
z
" transform="scale(0.015625)"/>
       <path id="DejaVuSans-2b" d="M 2944 4013 
L 2944 2272 
L 4684 2272 
L 4684 1741 
L 2944 1741 
L 2944 0 
L 2419 0 
L 2419 1741 
L 678 1741 
L 678 2272 
L 2419 2272 
L 2419 4013 
L 2944 4013 
z
" transform="scale(0.015625)"/>
       <path id="DejaVuSans-2f" d="M 1625 4666 
L 2156 4666 
L 531 -594 
L 0 -594 
L 1625 4666 
z
" transform="scale(0.015625)"/>
       <path id="DejaVuSans-33" d="M 2597 2516 
Q 3050 2419 3304 2112 
Q 3559 1806 3559 1356 
Q 3559 666 3084 287 
Q 2609 -91 1734 -91 
Q 1441 -91 1130 -33 
Q 819 25 488 141 
L 488 750 
Q 750 597 1062 519 
Q 1375 441 1716 441 
Q 2309 441 2620 675 
Q 2931 909 2931 1356 
Q 2931 1769 2642 2001 
Q 2353 2234 1838 2234 
L 1294 2234 
L 1294 2753 
L 1863 2753 
Q 2328 2753 2575 2939 
Q 2822 3125 2822 3475 
Q 2822 3834 2567 4026 
Q 2313 4219 1838 4219 
Q 1578 4219 1281 4162 
Q 984 4106 628 3988 
L 628 4550 
Q 988 4650 1302 4700 
Q 1616 4750 1894 4750 
Q 2613 4750 3031 4423 
Q 3450 4097 3450 3541 
Q 3450 3153 3228 2886 
Q 3006 2619 2597 2516 
z
" transform="scale(0.015625)"/>
      </defs>
      <use xlink:href="#DejaVuSans-53"/>
      <use xlink:href="#DejaVuSans-56" transform="translate(63.476562 0)"/>
      <use xlink:href="#DejaVuSans-4d" transform="translate(131.884766 0)"/>
      <use xlink:href="#DejaVuSans-20" transform="translate(218.164062 0)"/>
      <use xlink:href="#DejaVuSans-28" transform="translate(249.951172 0)"/>
      <use xlink:href="#DejaVuSans-52" transform="translate(288.964844 0)"/>
      <use xlink:href="#DejaVuSans-42" transform="translate(358.447266 0)"/>
      <use xlink:href="#DejaVuSans-46" transform="translate(427.050781 0)"/>
      <use xlink:href="#DejaVuSans-29" transform="translate(484.570312 0)"/>
      <use xlink:href="#DejaVuSans-20" transform="translate(523.583984 0)"/>
      <use xlink:href="#DejaVuSans-28" transform="translate(555.371094 0)"/>
      <use xlink:href="#DejaVuSans-41" transform="translate(594.384766 0)"/>
      <use xlink:href="#DejaVuSans-50" transform="translate(662.792969 0)"/>
      <use xlink:href="#DejaVuSans-3d" transform="translate(723.095703 0)"/>
      <use xlink:href="#DejaVuSans-30" transform="translate(806.884766 0)"/>
      <use xlink:href="#DejaVuSans-2e" transform="translate(870.507812 0)"/>
      <use xlink:href="#DejaVuSans-38" transform="translate(902.294922 0)"/>
      <use xlink:href="#DejaVuSans-36" transform="translate(965.917969 0)"/>
      <use xlink:href="#DejaVuSans-37" transform="translate(1029.541016 0)"/>
      <use xlink:href="#DejaVuSans-20" transform="translate(1093.164062 0)"/>
      <use xlink:href="#DejaVuSans-2b" transform="translate(1124.951172 0)"/>
      <use xlink:href="#DejaVuSans-2f" transform="translate(1208.740234 0)"/>
      <use xlink:href="#DejaVuSans-2d" transform="translate(1242.431641 0)"/>
      <use xlink:href="#DejaVuSans-20" transform="translate(1278.515625 0)"/>
      <use xlink:href="#DejaVuSans-30" transform="translate(1310.302734 0)"/>
      <use xlink:href="#DejaVuSans-2e" transform="translate(1373.925781 0)"/>
      <use xlink:href="#DejaVuSans-31" transform="translate(1405.712891 0)"/>
      <use xlink:href="#DejaVuSans-33" transform="translate(1469.335938 0)"/>
      <use xlink:href="#DejaVuSans-38" transform="translate(1532.958984 0)"/>
      <use xlink:href="#DejaVuSans-29" transform="translate(1596.582031 0)"/>
     </g>
    </g>
    <g id="line2d_29">
     <path d="M 59.142813 438.213594 
L 70.142813 438.213594 
L 81.142813 438.213594 
" style="fill: none; stroke: #ff7f0e; stroke-width: 2.5; stroke-linecap: square"/>
    </g>
    <g id="text_17">
     <!-- Logistic Regression (tuned) (AP=0.889 +/- 0.119) -->
     <g transform="translate(89.942813 442.063594) scale(0.11 -0.11)">
      <defs>
       <path id="DejaVuSans-4c" d="M 628 4666 
L 1259 4666 
L 1259 531 
L 3531 531 
L 3531 0 
L 628 0 
L 628 4666 
z
" transform="scale(0.015625)"/>
       <path id="DejaVuSans-67" d="M 2906 1791 
Q 2906 2416 2648 2759 
Q 2391 3103 1925 3103 
Q 1463 3103 1205 2759 
Q 947 2416 947 1791 
Q 947 1169 1205 825 
Q 1463 481 1925 481 
Q 2391 481 2648 825 
Q 2906 1169 2906 1791 
z
M 3481 434 
Q 3481 -459 3084 -895 
Q 2688 -1331 1869 -1331 
Q 1566 -1331 1297 -1286 
Q 1028 -1241 775 -1147 
L 775 -588 
Q 1028 -725 1275 -790 
Q 1522 -856 1778 -856 
Q 2344 -856 2625 -561 
Q 2906 -266 2906 331 
L 2906 616 
Q 2728 306 2450 153 
Q 2172 0 1784 0 
Q 1141 0 747 490 
Q 353 981 353 1791 
Q 353 2603 747 3093 
Q 1141 3584 1784 3584 
Q 2172 3584 2450 3431 
Q 2728 3278 2906 2969 
L 2906 3500 
L 3481 3500 
L 3481 434 
z
" transform="scale(0.015625)"/>
       <path id="DejaVuSans-39" d="M 703 97 
L 703 672 
Q 941 559 1184 500 
Q 1428 441 1663 441 
Q 2288 441 2617 861 
Q 2947 1281 2994 2138 
Q 2813 1869 2534 1725 
Q 2256 1581 1919 1581 
Q 1219 1581 811 2004 
Q 403 2428 403 3163 
Q 403 3881 828 4315 
Q 1253 4750 1959 4750 
Q 2769 4750 3195 4129 
Q 3622 3509 3622 2328 
Q 3622 1225 3098 567 
Q 2575 -91 1691 -91 
Q 1453 -91 1209 -44 
Q 966 3 703 97 
z
M 1959 2075 
Q 2384 2075 2632 2365 
Q 2881 2656 2881 3163 
Q 2881 3666 2632 3958 
Q 2384 4250 1959 4250 
Q 1534 4250 1286 3958 
Q 1038 3666 1038 3163 
Q 1038 2656 1286 2365 
Q 1534 2075 1959 2075 
z
" transform="scale(0.015625)"/>
      </defs>
      <use xlink:href="#DejaVuSans-4c"/>
      <use xlink:href="#DejaVuSans-6f" transform="translate(53.962891 0)"/>
      <use xlink:href="#DejaVuSans-67" transform="translate(115.144531 0)"/>
      <use xlink:href="#DejaVuSans-69" transform="translate(178.621094 0)"/>
      <use xlink:href="#DejaVuSans-73" transform="translate(206.404297 0)"/>
      <use xlink:href="#DejaVuSans-74" transform="translate(258.503906 0)"/>
      <use xlink:href="#DejaVuSans-69" transform="translate(297.712891 0)"/>
      <use xlink:href="#DejaVuSans-63" transform="translate(325.496094 0)"/>
      <use xlink:href="#DejaVuSans-20" transform="translate(380.476562 0)"/>
      <use xlink:href="#DejaVuSans-52" transform="translate(412.263672 0)"/>
      <use xlink:href="#DejaVuSans-65" transform="translate(477.246094 0)"/>
      <use xlink:href="#DejaVuSans-67" transform="translate(538.769531 0)"/>
      <use xlink:href="#DejaVuSans-72" transform="translate(602.246094 0)"/>
      <use xlink:href="#DejaVuSans-65" transform="translate(641.109375 0)"/>
      <use xlink:href="#DejaVuSans-73" transform="translate(702.632812 0)"/>
      <use xlink:href="#DejaVuSans-73" transform="translate(754.732422 0)"/>
      <use xlink:href="#DejaVuSans-69" transform="translate(806.832031 0)"/>
      <use xlink:href="#DejaVuSans-6f" transform="translate(834.615234 0)"/>
      <use xlink:href="#DejaVuSans-6e" transform="translate(895.796875 0)"/>
      <use xlink:href="#DejaVuSans-20" transform="translate(959.175781 0)"/>
      <use xlink:href="#DejaVuSans-28" transform="translate(990.962891 0)"/>
      <use xlink:href="#DejaVuSans-74" transform="translate(1029.976562 0)"/>
      <use xlink:href="#DejaVuSans-75" transform="translate(1069.185547 0)"/>
      <use xlink:href="#DejaVuSans-6e" transform="translate(1132.564453 0)"/>
      <use xlink:href="#DejaVuSans-65" transform="translate(1195.943359 0)"/>
      <use xlink:href="#DejaVuSans-64" transform="translate(1257.466797 0)"/>
      <use xlink:href="#DejaVuSans-29" transform="translate(1320.943359 0)"/>
      <use xlink:href="#DejaVuSans-20" transform="translate(1359.957031 0)"/>
      <use xlink:href="#DejaVuSans-28" transform="translate(1391.744141 0)"/>
      <use xlink:href="#DejaVuSans-41" transform="translate(1430.757812 0)"/>
      <use xlink:href="#DejaVuSans-50" transform="translate(1499.166016 0)"/>
      <use xlink:href="#DejaVuSans-3d" transform="translate(1559.46875 0)"/>
      <use xlink:href="#DejaVuSans-30" transform="translate(1643.257812 0)"/>
      <use xlink:href="#DejaVuSans-2e" transform="translate(1706.880859 0)"/>
      <use xlink:href="#DejaVuSans-38" transform="translate(1738.667969 0)"/>
      <use xlink:href="#DejaVuSans-38" transform="translate(1802.291016 0)"/>
      <use xlink:href="#DejaVuSans-39" transform="translate(1865.914062 0)"/>
      <use xlink:href="#DejaVuSans-20" transform="translate(1929.537109 0)"/>
      <use xlink:href="#DejaVuSans-2b" transform="translate(1961.324219 0)"/>
      <use xlink:href="#DejaVuSans-2f" transform="translate(2045.113281 0)"/>
      <use xlink:href="#DejaVuSans-2d" transform="translate(2078.804688 0)"/>
      <use xlink:href="#DejaVuSans-20" transform="translate(2114.888672 0)"/>
      <use xlink:href="#DejaVuSans-30" transform="translate(2146.675781 0)"/>
      <use xlink:href="#DejaVuSans-2e" transform="translate(2210.298828 0)"/>
      <use xlink:href="#DejaVuSans-31" transform="translate(2242.085938 0)"/>
      <use xlink:href="#DejaVuSans-31" transform="translate(2305.708984 0)"/>
      <use xlink:href="#DejaVuSans-39" transform="translate(2369.332031 0)"/>
      <use xlink:href="#DejaVuSans-29" transform="translate(2432.955078 0)"/>
     </g>
    </g>
    <g id="line2d_30">
     <path d="M 59.142813 454.359531 
L 70.142813 454.359531 
L 81.142813 454.359531 
" style="fill: none; stroke: #2ca02c; stroke-width: 2.5; stroke-linecap: square"/>
    </g>
    <g id="text_18">
     <!-- XGBoost (tuned) (AP=0.884 +/- 0.099) -->
     <g transform="translate(89.942813 458.209531) scale(0.11 -0.11)">
      <defs>
       <path id="DejaVuSans-58" d="M 403 4666 
L 1081 4666 
L 2241 2931 
L 3406 4666 
L 4084 4666 
L 2584 2425 
L 4184 0 
L 3506 0 
L 2194 1984 
L 872 0 
L 191 0 
L 1856 2491 
L 403 4666 
z
" transform="scale(0.015625)"/>
       <path id="DejaVuSans-47" d="M 3809 666 
L 3809 1919 
L 2778 1919 
L 2778 2438 
L 4434 2438 
L 4434 434 
Q 4069 175 3628 42 
Q 3188 -91 2688 -91 
Q 1594 -91 976 548 
Q 359 1188 359 2328 
Q 359 3472 976 4111 
Q 1594 4750 2688 4750 
Q 3144 4750 3555 4637 
Q 3966 4525 4313 4306 
L 4313 3634 
Q 3963 3931 3569 4081 
Q 3175 4231 2741 4231 
Q 1884 4231 1454 3753 
Q 1025 3275 1025 2328 
Q 1025 1384 1454 906 
Q 1884 428 2741 428 
Q 3075 428 3337 486 
Q 3600 544 3809 666 
z
" transform="scale(0.015625)"/>
      </defs>
      <use xlink:href="#DejaVuSans-58"/>
      <use xlink:href="#DejaVuSans-47" transform="translate(68.505859 0)"/>
      <use xlink:href="#DejaVuSans-42" transform="translate(145.996094 0)"/>
      <use xlink:href="#DejaVuSans-6f" transform="translate(214.599609 0)"/>
      <use xlink:href="#DejaVuSans-6f" transform="translate(275.78125 0)"/>
      <use xlink:href="#DejaVuSans-73" transform="translate(336.962891 0)"/>
      <use xlink:href="#DejaVuSans-74" transform="translate(389.0625 0)"/>
      <use xlink:href="#DejaVuSans-20" transform="translate(428.271484 0)"/>
      <use xlink:href="#DejaVuSans-28" transform="translate(460.058594 0)"/>
      <use xlink:href="#DejaVuSans-74" transform="translate(499.072266 0)"/>
      <use xlink:href="#DejaVuSans-75" transform="translate(538.28125 0)"/>
      <use xlink:href="#DejaVuSans-6e" transform="translate(601.660156 0)"/>
      <use xlink:href="#DejaVuSans-65" transform="translate(665.039062 0)"/>
      <use xlink:href="#DejaVuSans-64" transform="translate(726.5625 0)"/>
      <use xlink:href="#DejaVuSans-29" transform="translate(790.039062 0)"/>
      <use xlink:href="#DejaVuSans-20" transform="translate(829.052734 0)"/>
      <use xlink:href="#DejaVuSans-28" transform="translate(860.839844 0)"/>
      <use xlink:href="#DejaVuSans-41" transform="translate(899.853516 0)"/>
      <use xlink:href="#DejaVuSans-50" transform="translate(968.261719 0)"/>
      <use xlink:href="#DejaVuSans-3d" transform="translate(1028.564453 0)"/>
      <use xlink:href="#DejaVuSans-30" transform="translate(1112.353516 0)"/>
      <use xlink:href="#DejaVuSans-2e" transform="translate(1175.976562 0)"/>
      <use xlink:href="#DejaVuSans-38" transform="translate(1207.763672 0)"/>
      <use xlink:href="#DejaVuSans-38" transform="translate(1271.386719 0)"/>
      <use xlink:href="#DejaVuSans-34" transform="translate(1335.009766 0)"/>
      <use xlink:href="#DejaVuSans-20" transform="translate(1398.632812 0)"/>
      <use xlink:href="#DejaVuSans-2b" transform="translate(1430.419922 0)"/>
      <use xlink:href="#DejaVuSans-2f" transform="translate(1514.208984 0)"/>
      <use xlink:href="#DejaVuSans-2d" transform="translate(1547.900391 0)"/>
      <use xlink:href="#DejaVuSans-20" transform="translate(1583.984375 0)"/>
      <use xlink:href="#DejaVuSans-30" transform="translate(1615.771484 0)"/>
      <use xlink:href="#DejaVuSans-2e" transform="translate(1679.394531 0)"/>
      <use xlink:href="#DejaVuSans-30" transform="translate(1711.181641 0)"/>
      <use xlink:href="#DejaVuSans-39" transform="translate(1774.804688 0)"/>
      <use xlink:href="#DejaVuSans-39" transform="translate(1838.427734 0)"/>
      <use xlink:href="#DejaVuSans-29" transform="translate(1902.050781 0)"/>
     </g>
    </g>
   </g>
  </g>
 </g>
 <defs>
  <clipPath id="p894d5132ef">
   <rect x="49.242813" y="26.877187" width="613.8" height="443.52"/>
  </clipPath>
 </defs>
</svg>
