<?xml version="1.0" encoding="utf-8" standalone="no"?>
<!DOCTYPE svg PUBLIC "-//W3C//DTD SVG 1.1//EN"
  "http://www.w3.org/Graphics/SVG/1.1/DTD/svg11.dtd">
<svg xmlns:xlink="http://www.w3.org/1999/xlink" width="623.189531pt" height="457.3525pt" viewBox="0 0 623.189531 457.3525" xmlns="http://www.w3.org/2000/svg" version="1.1">
 <metadata>
  <rdf:RDF xmlns:dc="http://purl.org/dc/elements/1.1/" xmlns:cc="http://creativecommons.org/ns#" xmlns:rdf="http://www.w3.org/1999/02/22-rdf-syntax-ns#">
   <cc:Work>
    <dc:type rdf:resource="http://purl.org/dc/dcmitype/StillImage"/>
    <dc:date>2026-02-18T18:56:45.317903</dc:date>
    <dc:format>image/svg+xml</dc:format>
    <dc:creator>
     <cc:Agent>
      <dc:title>Matplotlib v3.10.0, https://matplotlib.org/</dc:title>
     </cc:Agent>
    </dc:creator>
   </cc:Work>
  </rdf:RDF>
 </metadata>
 <defs>
  <style type="text/css">*{stroke-linejoin: round; stroke-linecap: butt}</style>
 </defs>
 <g id="figure_1">
  <g id="patch_1">
   <path d="M 0 457.3525 
L 623.189531 457.3525 
L 623.189531 0 
L 0 0 
z
" style="fill: #ffffff"/>
  </g>
  <g id="axes_1">
   <g id="patch_2">
    <path d="M 49.242813 414.957187 
L 607.242813 414.957187 
L 607.242813 26.877187 
L 49.242813 26.877187 
z
" style="fill: #ffffff"/>
   </g>
   <g id="FillBetweenPolyCollection_1">
    <defs>
     <path id="meda55cdfb7" d="M 49.242813 -430.475312 
L 49.242813 -430.475312 
L 50.641309 -422.173918 
L 52.039805 -413.872524 
L 53.438301 -405.57113 
L 54.836797 -397.269735 
L 56.235294 -388.968341 
L 57.63379 -380.666947 
L 59.032286 -372.365553 
L 60.430782 -370.828257 
L 61.829279 -373.595389 
L 63.227775 -376.338593 
L 64.626271 -377.850411 
L 66.024767 -378.717187 
L 67.423264 -378.85844 
L 68.82176 -378.225134 
L 70.220256 -363.162265 
L 71.618752 -365.432121 
L 73.017249 -367.701972 
L 74.415745 -369.971815 
L 75.814241 -372.241652 
L 77.212737 -374.492622 
L 78.611234 -376.384355 
L 80.00973 -370.403011 
L 81.408226 -372.230985 
L 82.806722 -374.00176 
L 84.205219 -375.524596 
L 85.603715 -373.202819 
L 87.002211 -370.658178 
L 88.400707 -367.838022 
L 89.799203 -364.866927 
L 91.1977 -373.958361 
L 92.596196 -370.840963 
L 93.994692 -367.653955 
L 95.393188 -364.375467 
L 96.791685 -361.033105 
L 98.190181 -357.850038 
L 99.588677 -356.659658 
L 100.987173 -362.750143 
L 102.38567 -363.031477 
L 103.784166 -363.271539 
L 105.182662 -363.483867 
L 106.581158 -363.59755 
L 107.979655 -363.694222 
L 109.378151 -363.773823 
L 110.776647 -363.819362 
L 112.175143 -363.888524 
L 113.57364 -363.274162 
L 114.972136 -362.657682 
L 116.370632 -362.039147 
L 117.769128 -361.412385 
L 119.167625 -364.533737 
L 120.566121 -363.866906 
L 121.964617 -368.711132 
L 123.363113 -367.413601 
L 124.761609 -366.104381 
L 126.160106 -364.875993 
L 127.558602 -364.031711 
L 128.957098 -363.110254 
L 130.355594 -362.120553 
L 131.754091 -361.064588 
L 133.152587 -364.953747 
L 134.551083 -364.021759 
L 135.949579 -365.548985 
L 137.348076 -364.818981 
L 138.746572 -364.035843 
L 140.145068 -363.194436 
L 141.543564 -362.275043 
L 142.942061 -365.831102 
L 144.340557 -365.494962 
L 145.739053 -365.21857 
L 147.137549 -365.308359 
L 148.536046 -365.370357 
L 149.934542 -365.428388 
L 151.333038 -365.482833 
L 152.731534 -361.884855 
L 154.130031 -362.475268 
L 155.528527 -363.046211 
L 156.927023 -363.611955 
L 158.325519 -364.177647 
L 159.724016 -364.743285 
L 161.122512 -362.817408 
L 162.521008 -361.397558 
L 163.919504 -361.764432 
L 165.318 -362.093678 
L 166.716497 -362.393039 
L 168.114993 -363.700477 
L 169.513489 -364.064981 
L 170.911985 -364.401246 
L 172.310482 -364.710802 
L 173.708978 -361.835289 
L 175.107474 -362.114993 
L 176.50597 -361.812037 
L 177.904467 -361.49179 
L 179.302963 -361.153288 
L 180.701459 -360.799242 
L 182.099955 -364.561285 
L 183.498452 -364.259468 
L 184.896948 -358.156926 
L 186.295444 -357.5344 
L 187.69394 -356.820688 
L 189.092437 -356.175052 
L 190.490933 -356.101392 
L 191.889429 -356.013673 
L 193.287925 -355.195798 
L 194.686422 -358.514044 
L 196.084918 -358.447222 
L 197.483414 -358.359086 
L 198.88191 -358.25697 
L 200.280406 -358.148851 
L 201.678903 -358.267312 
L 203.077399 -358.382218 
L 204.475895 -358.539425 
L 205.874391 -358.744799 
L 207.272888 -358.80208 
L 208.671384 -358.812051 
L 210.06988 -358.773642 
L 211.468376 -360.125149 
L 212.866873 -360.213006 
L 214.265369 -360.09794 
L 215.663865 -359.845454 
L 217.062361 -359.411011 
L 218.460858 -359.101599 
L 219.859354 -359.076499 
L 221.25785 -359.032316 
L 222.656346 -357.430839 
L 224.054843 -355.83544 
L 225.453339 -355.247973 
L 226.851835 -354.529959 
L 228.250331 -353.531589 
L 229.648828 -352.465979 
L 231.047324 -354.516883 
L 232.44582 -353.931898 
L 233.844316 -352.304752 
L 235.242813 -351.785698 
L 236.641309 -351.245368 
L 238.039805 -350.837315 
L 239.438301 -350.801805 
L 240.836797 -350.774764 
L 242.235294 -352.1211 
L 243.63379 -351.936678 
L 245.032286 -351.727995 
L 246.430782 -348.90182 
L 247.829279 -348.480963 
L 249.227775 -348.029892 
L 250.626271 -347.524392 
L 252.024767 -348.438578 
L 253.423264 -349.165169 
L 254.82176 -348.998905 
L 256.220256 -348.819758 
L 257.618752 -349.273896 
L 259.017249 -348.948619 
L 260.415745 -346.456578 
L 261.814241 -346.454323 
L 263.212737 -346.502488 
L 264.611234 -347.336417 
L 266.00973 -347.417951 
L 267.408226 -347.470379 
L 268.806722 -347.500879 
L 270.205219 -348.311248 
L 271.603715 -344.256834 
L 273.002211 -344.312121 
L 274.400707 -344.324135 
L 275.799203 -344.314156 
L 277.1977 -345.088624 
L 278.596196 -345.086167 
L 279.994692 -345.301381 
L 281.393188 -345.281 
L 282.791685 -345.240814 
L 284.190181 -346.024845 
L 285.588677 -346.012627 
L 286.987173 -346.020734 
L 288.38567 -346.016955 
L 289.784166 -344.440795 
L 291.182662 -345.060647 
L 292.581158 -344.888703 
L 293.979655 -344.706161 
L 295.378151 -344.513897 
L 296.776647 -342.68113 
L 298.175143 -340.545943 
L 299.57364 -341.471678 
L 300.972136 -341.002515 
L 302.370632 -338.936716 
L 303.769128 -338.463672 
L 305.167625 -337.981376 
L 306.566121 -338.182436 
L 307.964617 -337.675739 
L 309.363113 -337.566571 
L 310.761609 -337.081395 
L 312.160106 -336.754508 
L 313.558602 -338.22148 
L 314.957098 -337.140593 
L 316.355594 -336.840237 
L 317.754091 -336.561155 
L 319.152587 -336.941276 
L 320.551083 -336.666505 
L 321.949579 -336.5982 
L 323.348076 -336.293217 
L 324.746572 -335.979169 
L 326.145068 -335.976889 
L 327.543564 -335.800525 
L 328.942061 -337.995406 
L 330.340557 -337.595551 
L 331.739053 -337.209462 
L 333.137549 -336.713107 
L 334.536046 -336.522824 
L 335.934542 -334.742646 
L 337.333038 -334.125646 
L 338.731534 -334.025106 
L 340.130031 -333.399526 
L 341.528527 -332.761908 
L 342.927023 -332.373982 
L 344.325519 -332.745638 
L 345.724016 -332.437152 
L 347.122512 -332.146621 
L 348.521008 -332.85375 
L 349.919504 -332.589451 
L 351.318 -333.229278 
L 352.716497 -333.09741 
L 354.114993 -332.950452 
L 355.513489 -333.428958 
L 356.911985 -333.242875 
L 358.310482 -333.374873 
L 359.708978 -333.493019 
L 361.107474 -333.653558 
L 362.50597 -333.980242 
L 363.904467 -334.221624 
L 365.302963 -334.457622 
L 366.701459 -334.548177 
L 368.099955 -334.195873 
L 369.498452 -334.326152 
L 370.896948 -334.438121 
L 372.295444 -333.749089 
L 373.69394 -333.302855 
L 375.092437 -332.945751 
L 376.490933 -332.57858 
L 377.889429 -332.015992 
L 379.287925 -331.39086 
L 380.686422 -332.10988 
L 382.084918 -331.228024 
L 383.483414 -331.032195 
L 384.88191 -331.333461 
L 386.280406 -331.870845 
L 387.678903 -331.575072 
L 389.077399 -330.852733 
L 390.475895 -330.797895 
L 391.874391 -330.877193 
L 393.272888 -331.042914 
L 394.671384 -331.195062 
L 396.06988 -331.326745 
L 397.468376 -330.933133 
L 398.866873 -331.060978 
L 400.265369 -331.183603 
L 401.663865 -331.51221 
L 403.062361 -331.619749 
L 404.460858 -331.677776 
L 405.859354 -331.873634 
L 407.25785 -331.611094 
L 408.656346 -331.321936 
L 410.054843 -331.305485 
L 411.453339 -330.196852 
L 412.851835 -330.488605 
L 414.250331 -330.271219 
L 415.648828 -330.961888 
L 417.047324 -330.539987 
L 418.44582 -330.485921 
L 419.844316 -330.417158 
L 421.242813 -330.162126 
L 422.641309 -330.094447 
L 424.039805 -330.333916 
L 425.438301 -330.353638 
L 426.836797 -330.182925 
L 428.235294 -329.903995 
L 429.63379 -329.613157 
L 431.032286 -329.310245 
L 432.430782 -329.406796 
L 433.829279 -329.831841 
L 435.227775 -329.731919 
L 436.626271 -329.59411 
L 438.024767 -329.339915 
L 439.423264 -329.12852 
L 440.82176 -328.92688 
L 442.220256 -328.981759 
L 443.618752 -329.274496 
L 445.017249 -329.904378 
L 446.415745 -329.16381 
L 447.814241 -329.129335 
L 449.212737 -329.6421 
L 450.611234 -329.560255 
L 452.00973 -329.016628 
L 453.408226 -328.224688 
L 454.806722 -328.105322 
L 456.205219 -327.98135 
L 457.603715 -328.443591 
L 459.002211 -328.327673 
L 460.400707 -327.447159 
L 461.799203 -327.449164 
L 463.1977 -327.89168 
L 464.596196 -327.112598 
L 465.994692 -326.94323 
L 467.393188 -326.811602 
L 468.791685 -326.859933 
L 470.190181 -325.480021 
L 471.588677 -324.386369 
L 472.987173 -324.743595 
L 474.38567 -324.473381 
L 475.784166 -324.791903 
L 477.182662 -324.868033 
L 478.581158 -324.891694 
L 479.979655 -324.852414 
L 481.378151 -324.709711 
L 482.776647 -323.408343 
L 484.175143 -323.671063 
L 485.57364 -323.511406 
L 486.972136 -323.515334 
L 488.370632 -323.371333 
L 489.769128 -323.610792 
L 491.167625 -323.514022 
L 492.566121 -324.054991 
L 493.964617 -323.40417 
L 495.363113 -323.476717 
L 496.761609 -323.606999 
L 498.160106 -323.725721 
L 499.558602 -323.766862 
L 500.957098 -323.649547 
L 502.355594 -323.643762 
L 503.754091 -323.55759 
L 505.152587 -322.783248 
L 506.551083 -322.539543 
L 507.949579 -322.311206 
L 509.348076 -321.199642 
L 510.746572 -321.06248 
L 512.145068 -321.057155 
L 513.543564 -320.884183 
L 514.942061 -320.802621 
L 516.340557 -320.624057 
L 517.739053 -319.711929 
L 519.137549 -318.69423 
L 520.536046 -318.660169 
L 521.934542 -318.378738 
L 523.333038 -318.823123 
L 524.731534 -318.01015 
L 526.130031 -318.114259 
L 527.528527 -318.077811 
L 528.927023 -318.272536 
L 530.325519 -318.275851 
L 531.724016 -317.625608 
L 533.122512 -316.855071 
L 534.521008 -317.286344 
L 535.919504 -316.780535 
L 537.318 -316.898144 
L 538.716497 -316.953771 
L 540.114993 -316.471284 
L 541.513489 -315.215072 
L 542.911985 -314.622587 
L 544.310482 -314.013937 
L 545.708978 -313.429353 
L 547.107474 -313.586175 
L 548.50597 -312.656316 
L 549.904467 -311.0611 
L 551.302963 -310.361984 
L 552.701459 -309.362183 
L 554.099955 -308.677693 
L 555.498452 -307.247379 
L 556.896948 -305.552357 
L 558.295444 -305.41788 
L 559.69394 -303.576502 
L 561.092437 -303.056879 
L 562.490933 -303.361403 
L 563.889429 -302.914562 
L 565.287925 -301.997547 
L 566.686422 -301.276902 
L 568.084918 -298.530801 
L 569.483414 -296.435646 
L 570.88191 -295.166214 
L 572.280406 -293.972169 
L 573.678903 -293.046424 
L 575.077399 -293.133314 
L 576.475895 -291.555141 
L 577.874391 -292.369716 
L 579.272888 -290.064123 
L 580.671384 -290.418223 
L 582.06988 -289.386037 
L 583.468376 -288.532209 
L 584.866873 -287.806767 
L 586.265369 -286.478419 
L 587.663865 -283.981679 
L 589.062361 -283.275591 
L 590.460858 -282.235446 
L 591.859354 -280.099874 
L 593.25785 -279.30433 
L 594.656346 -276.704467 
L 596.054843 -275.459812 
L 597.453339 -275.280539 
L 598.851835 -274.051069 
L 600.250331 -272.180376 
L 601.648828 -268.222918 
L 603.047324 -264.49239 
L 604.44582 -260.118268 
L 605.844316 -254.73989 
L 607.242813 -234.904426 
L 607.242813 -316.568779 
L 607.242813 -316.568779 
L 605.844316 -319.558105 
L 604.44582 -327.449841 
L 603.047324 -336.345832 
L 601.648828 -344.708932 
L 600.250331 -356.766956 
L 598.851835 -358.598304 
L 597.453339 -360.144054 
L 596.054843 -361.135898 
L 594.656346 -362.447465 
L 593.25785 -371.3269 
L 591.859354 -374.127866 
L 590.460858 -378.224511 
L 589.062361 -380.325162 
L 587.663865 -383.270756 
L 586.265369 -385.239154 
L 584.866873 -386.651265 
L 583.468376 -388.660764 
L 582.06988 -388.86295 
L 580.671384 -389.020923 
L 579.272888 -388.852683 
L 577.874391 -389.079439 
L 576.475895 -390.17303 
L 575.077399 -392.02501 
L 573.678903 -391.69235 
L 572.280406 -390.908843 
L 570.88191 -392.80888 
L 569.483414 -393.736898 
L 568.084918 -394.497445 
L 566.686422 -396.821122 
L 565.287925 -397.591439 
L 563.889429 -398.455209 
L 562.490933 -399.158736 
L 561.092437 -400.372177 
L 559.69394 -402.556965 
L 558.295444 -402.765679 
L 556.896948 -403.614284 
L 555.498452 -403.73649 
L 554.099955 -404.998056 
L 552.701459 -404.899868 
L 551.302963 -404.870145 
L 549.904467 -404.868359 
L 548.50597 -404.823816 
L 547.107474 -404.559552 
L 545.708978 -404.789075 
L 544.310482 -404.777679 
L 542.911985 -404.973319 
L 541.513489 -405.178749 
L 540.114993 -405.01045 
L 538.716497 -405.114669 
L 537.318 -405.471066 
L 535.919504 -404.5125 
L 534.521008 -404.966707 
L 533.122512 -405.390247 
L 531.724016 -405.718178 
L 530.325519 -406.299255 
L 528.927023 -406.848968 
L 527.528527 -407.041977 
L 526.130031 -407.356881 
L 524.731534 -407.197351 
L 523.333038 -407.175468 
L 521.934542 -406.794405 
L 520.536046 -407.623069 
L 519.137549 -407.774407 
L 517.739053 -407.926958 
L 516.340557 -408.26818 
L 514.942061 -408.328432 
L 513.543564 -407.992281 
L 512.145068 -408.056605 
L 510.746572 -408.183976 
L 509.348076 -408.090558 
L 507.949579 -407.823184 
L 506.551083 -407.889912 
L 505.152587 -408.001717 
L 503.754091 -408.116265 
L 502.355594 -408.279344 
L 500.957098 -408.534777 
L 499.558602 -409.32238 
L 498.160106 -409.667175 
L 496.761609 -409.595192 
L 495.363113 -409.560336 
L 493.964617 -409.389489 
L 492.566121 -409.795437 
L 491.167625 -410.419272 
L 489.769128 -411.056398 
L 488.370632 -411.575482 
L 486.972136 -412.034631 
L 485.57364 -410.988456 
L 484.175143 -411.44764 
L 482.776647 -412.138425 
L 481.378151 -413.377696 
L 479.979655 -415.074471 
L 478.581158 -415.462117 
L 477.182662 -415.189499 
L 475.784166 -414.991787 
L 474.38567 -415.2422 
L 472.987173 -416.508719 
L 471.588677 -416.899848 
L 470.190181 -417.298941 
L 468.791685 -418.093689 
L 467.393188 -417.926015 
L 465.994692 -417.925256 
L 464.596196 -417.970173 
L 463.1977 -418.713395 
L 461.799203 -418.948079 
L 460.400707 -419.615313 
L 459.002211 -420.442605 
L 457.603715 -419.921079 
L 456.205219 -420.273138 
L 454.806722 -420.393989 
L 453.408226 -420.519 
L 452.00973 -420.606245 
L 450.611234 -420.443671 
L 449.212737 -420.354144 
L 447.814241 -420.569125 
L 446.415745 -420.707742 
L 445.017249 -421.782704 
L 443.618752 -422.091196 
L 442.220256 -421.427175 
L 440.82176 -421.308263 
L 439.423264 -421.511544 
L 438.024767 -421.739641 
L 436.626271 -422.039209 
L 435.227775 -422.218419 
L 433.829279 -422.381075 
L 432.430782 -422.674 
L 431.032286 -421.685493 
L 429.63379 -421.918264 
L 428.235294 -422.162562 
L 426.836797 -422.418343 
L 425.438301 -422.398955 
L 424.039805 -422.547265 
L 422.641309 -422.198875 
L 421.242813 -422.345443 
L 419.844316 -422.866011 
L 418.44582 -423.01082 
L 417.047324 -423.141841 
L 415.648828 -424.205268 
L 414.250331 -424.306191 
L 412.851835 -424.381608 
L 411.453339 -424.609381 
L 410.054843 -425.011644 
L 408.656346 -424.725306 
L 407.25785 -424.869385 
L 405.859354 -425.024743 
L 404.460858 -425.346208 
L 403.062361 -425.534094 
L 401.663865 -425.659081 
L 400.265369 -425.022903 
L 398.866873 -425.18788 
L 397.468376 -425.490682 
L 396.06988 -426.779715 
L 394.671384 -427.09066 
L 393.272888 -426.482101 
L 391.874391 -426.651387 
L 390.475895 -426.833788 
L 389.077399 -427.036935 
L 387.678903 -426.988847 
L 386.280406 -427.8027 
L 384.88191 -427.803132 
L 383.483414 -427.629642 
L 382.084918 -427.539375 
L 380.686422 -427.309954 
L 379.287925 -427.596529 
L 377.889429 -427.576095 
L 376.490933 -427.562041 
L 375.092437 -427.562626 
L 373.69394 -427.721154 
L 372.295444 -427.208272 
L 370.896948 -430.35776 
L 369.498452 -430.475312 
L 368.099955 -430.475312 
L 366.701459 -430.475312 
L 365.302963 -430.475312 
L 363.904467 -430.475312 
L 362.50597 -430.475312 
L 361.107474 -430.475312 
L 359.708978 -430.475312 
L 358.310482 -430.475312 
L 356.911985 -430.475312 
L 355.513489 -430.475312 
L 354.114993 -430.475312 
L 352.716497 -430.475312 
L 351.318 -430.475312 
L 349.919504 -430.475312 
L 348.521008 -430.475312 
L 347.122512 -430.475312 
L 345.724016 -430.475312 
L 344.325519 -430.475312 
L 342.927023 -430.475312 
L 341.528527 -430.475312 
L 340.130031 -430.475312 
L 338.731534 -430.475312 
L 337.333038 -430.475312 
L 335.934542 -430.475312 
L 334.536046 -430.475312 
L 333.137549 -430.475312 
L 331.739053 -430.475312 
L 330.340557 -430.475312 
L 328.942061 -430.475312 
L 327.543564 -430.475312 
L 326.145068 -430.475312 
L 324.746572 -430.475312 
L 323.348076 -430.475312 
L 321.949579 -430.475312 
L 320.551083 -430.475312 
L 319.152587 -430.475312 
L 317.754091 -430.475312 
L 316.355594 -430.475312 
L 314.957098 -430.475312 
L 313.558602 -430.475312 
L 312.160106 -430.475312 
L 310.761609 -430.475312 
L 309.363113 -430.475312 
L 307.964617 -430.475312 
L 306.566121 -430.475312 
L 305.167625 -430.475312 
L 303.769128 -430.475312 
L 302.370632 -430.475312 
L 300.972136 -430.475312 
L 299.57364 -430.475312 
L 298.175143 -430.475312 
L 296.776647 -430.475312 
L 295.378151 -430.475312 
L 293.979655 -430.475312 
L 292.581158 -430.475312 
L 291.182662 -430.475312 
L 289.784166 -430.475312 
L 288.38567 -430.475312 
L 286.987173 -430.475312 
L 285.588677 -430.475312 
L 284.190181 -430.475312 
L 282.791685 -430.475312 
L 281.393188 -430.475312 
L 279.994692 -430.475312 
L 278.596196 -430.475312 
L 277.1977 -430.475312 
L 275.799203 -430.475312 
L 274.400707 -430.475312 
L 273.002211 -430.475312 
L 271.603715 -430.475312 
L 270.205219 -430.475312 
L 268.806722 -430.475312 
L 267.408226 -430.475312 
L 266.00973 -430.475312 
L 264.611234 -430.475312 
L 263.212737 -430.475312 
L 261.814241 -430.475312 
L 260.415745 -430.475312 
L 259.017249 -430.475312 
L 257.618752 -430.475312 
L 256.220256 -430.475312 
L 254.82176 -430.475312 
L 253.423264 -430.475312 
L 252.024767 -430.475312 
L 250.626271 -430.475312 
L 249.227775 -430.475312 
L 247.829279 -430.475312 
L 246.430782 -430.475312 
L 245.032286 -430.475312 
L 243.63379 -430.475312 
L 242.235294 -430.475312 
L 240.836797 -430.475312 
L 239.438301 -430.475312 
L 238.039805 -430.475312 
L 236.641309 -430.475312 
L 235.242813 -430.475312 
L 233.844316 -430.475312 
L 232.44582 -430.475312 
L 231.047324 -430.475312 
L 229.648828 -430.475312 
L 228.250331 -430.475312 
L 226.851835 -430.475312 
L 225.453339 -430.475312 
L 224.054843 -430.475312 
L 222.656346 -430.475312 
L 221.25785 -430.475312 
L 219.859354 -430.475312 
L 218.460858 -430.475312 
L 217.062361 -430.475312 
L 215.663865 -430.475312 
L 214.265369 -430.475312 
L 212.866873 -430.475312 
L 211.468376 -430.475312 
L 210.06988 -430.475312 
L 208.671384 -430.475312 
L 207.272888 -430.475312 
L 205.874391 -430.475312 
L 204.475895 -430.475312 
L 203.077399 -430.475312 
L 201.678903 -430.475312 
L 200.280406 -430.475312 
L 198.88191 -430.475312 
L 197.483414 -430.475312 
L 196.084918 -430.475312 
L 194.686422 -430.475312 
L 193.287925 -430.475312 
L 191.889429 -430.475312 
L 190.490933 -430.475312 
L 189.092437 -430.475312 
L 187.69394 -430.475312 
L 186.295444 -430.475312 
L 184.896948 -430.475312 
L 183.498452 -430.475312 
L 182.099955 -430.475312 
L 180.701459 -430.475312 
L 179.302963 -430.475312 
L 177.904467 -430.475312 
L 176.50597 -430.475312 
L 175.107474 -430.475312 
L 173.708978 -430.475312 
L 172.310482 -430.475312 
L 170.911985 -430.475312 
L 169.513489 -430.475312 
L 168.114993 -430.475312 
L 166.716497 -430.475312 
L 165.318 -430.475312 
L 163.919504 -430.475312 
L 162.521008 -430.475312 
L 161.122512 -430.475312 
L 159.724016 -430.475312 
L 158.325519 -430.475312 
L 156.927023 -430.475312 
L 155.528527 -430.475312 
L 154.130031 -430.475312 
L 152.731534 -430.475312 
L 151.333038 -430.475312 
L 149.934542 -430.475312 
L 148.536046 -430.475312 
L 147.137549 -430.475312 
L 145.739053 -430.475312 
L 144.340557 -430.475312 
L 142.942061 -430.475312 
L 141.543564 -430.475312 
L 140.145068 -430.475312 
L 138.746572 -430.475312 
L 137.348076 -430.475312 
L 135.949579 -430.475312 
L 134.551083 -430.475312 
L 133.152587 -430.475312 
L 131.754091 -430.475312 
L 130.355594 -430.475312 
L 128.957098 -430.475312 
L 127.558602 -430.475312 
L 126.160106 -430.475312 
L 124.761609 -430.475312 
L 123.363113 -430.475312 
L 121.964617 -430.475312 
L 120.566121 -430.475312 
L 119.167625 -430.475312 
L 117.769128 -430.475312 
L 116.370632 -430.475312 
L 114.972136 -430.475312 
L 113.57364 -430.475312 
L 112.175143 -430.475312 
L 110.776647 -430.475312 
L 109.378151 -430.475312 
L 107.979655 -430.475312 
L 106.581158 -430.475312 
L 105.182662 -430.475312 
L 103.784166 -430.475312 
L 102.38567 -430.475312 
L 100.987173 -430.475312 
L 99.588677 -430.475312 
L 98.190181 -430.475312 
L 96.791685 -430.475312 
L 95.393188 -430.475312 
L 93.994692 -430.475312 
L 92.596196 -430.475312 
L 91.1977 -430.475312 
L 89.799203 -430.475312 
L 88.400707 -430.475312 
L 87.002211 -430.475312 
L 85.603715 -430.475312 
L 84.205219 -430.475312 
L 82.806722 -430.475312 
L 81.408226 -430.475312 
L 80.00973 -430.475312 
L 78.611234 -430.475312 
L 77.212737 -430.475312 
L 75.814241 -430.475312 
L 74.415745 -430.475312 
L 73.017249 -430.475312 
L 71.618752 -430.475312 
L 70.220256 -430.475312 
L 68.82176 -430.475312 
L 67.423264 -430.475312 
L 66.024767 -430.475312 
L 64.626271 -430.475312 
L 63.227775 -430.475312 
L 61.829279 -430.475312 
L 60.430782 -430.475312 
L 59.032286 -430.475312 
L 57.63379 -430.475312 
L 56.235294 -430.475312 
L 54.836797 -430.475312 
L 53.438301 -430.475312 
L 52.039805 -430.475312 
L 50.641309 -430.475312 
L 49.242813 -430.475312 
z
" style="stroke: #1f77b4; stroke-opacity: 0.15"/>
    </defs>
    <g clip-path="url(#pd35354bb6a)">
     <use xlink:href="#meda55cdfb7" x="0" y="457.3525" style="fill: #1f77b4; fill-opacity: 0.15; stroke: #1f77b4; stroke-opacity: 0.15"/>
    </g>
   </g>
   <g id="matplotlib.axis_1">
    <g id="xtick_1">
     <g id="line2d_1">
      <path d="M 49.242813 414.957187 
L 49.242813 26.877187 
" clip-path="url(#pd35354bb6a)" style="fill: none; stroke: #b0b0b0; stroke-opacity: 0.25; stroke-width: 0.8; stroke-linecap: square"/>
     </g>
     <g id="line2d_2">
      <defs>
       <path id="m167e2920f5" d="M 0 0 
L 0 3.5 
" style="stroke: #000000; stroke-width: 0.8"/>
      </defs>
      <g>
       <use xlink:href="#m167e2920f5" x="49.242813" y="414.957187" style="stroke: #000000; stroke-width: 0.8"/>
      </g>
     </g>
     <g id="text_1">
      <!-- 0.0 -->
      <g transform="translate(40.496094 430.315469) scale(0.11 -0.11)">
       <defs>
        <path id="DejaVuSans-30" d="M 2034 4250 
Q 1547 4250 1301 3770 
Q 1056 3291 1056 2328 
Q 1056 1369 1301 889 
Q 1547 409 2034 409 
Q 2525 409 2770 889 
Q 3016 1369 3016 2328 
Q 3016 3291 2770 3770 
Q 2525 4250 2034 4250 
z
M 2034 4750 
Q 2819 4750 3233 4129 
Q 3647 3509 3647 2328 
Q 3647 1150 3233 529 
Q 2819 -91 2034 -91 
Q 1250 -91 836 529 
Q 422 1150 422 2328 
Q 422 3509 836 4129 
Q 1250 4750 2034 4750 
z
" transform="scale(0.015625)"/>
        <path id="DejaVuSans-2e" d="M 684 794 
L 1344 794 
L 1344 0 
L 684 0 
L 684 794 
z
" transform="scale(0.015625)"/>
       </defs>
       <use xlink:href="#DejaVuSans-30"/>
       <use xlink:href="#DejaVuSans-2e" transform="translate(63.623047 0)"/>
       <use xlink:href="#DejaVuSans-30" transform="translate(95.410156 0)"/>
      </g>
     </g>
    </g>
    <g id="xtick_2">
     <g id="line2d_3">
      <path d="M 160.842813 414.957187 
L 160.842813 26.877187 
" clip-path="url(#pd35354bb6a)" style="fill: none; stroke: #b0b0b0; stroke-opacity: 0.25; stroke-width: 0.8; stroke-linecap: square"/>
     </g>
     <g id="line2d_4">
      <g>
       <use xlink:href="#m167e2920f5" x="160.842813" y="414.957187" style="stroke: #000000; stroke-width: 0.8"/>
      </g>
     </g>
     <g id="text_2">
      <!-- 0.2 -->
      <g transform="translate(152.096094 430.315469) scale(0.11 -0.11)">
       <defs>
        <path id="DejaVuSans-32" d="M 1228 531 
L 3431 531 
L 3431 0 
L 469 0 
L 469 531 
Q 828 903 1448 1529 
Q 2069 2156 2228 2338 
Q 2531 2678 2651 2914 
Q 2772 3150 2772 3378 
Q 2772 3750 2511 3984 
Q 2250 4219 1831 4219 
Q 1534 4219 1204 4116 
Q 875 4013 500 3803 
L 500 4441 
Q 881 4594 1212 4672 
Q 1544 4750 1819 4750 
Q 2544 4750 2975 4387 
Q 3406 4025 3406 3419 
Q 3406 3131 3298 2873 
Q 3191 2616 2906 2266 
Q 2828 2175 2409 1742 
Q 1991 1309 1228 531 
z
" transform="scale(0.015625)"/>
       </defs>
       <use xlink:href="#DejaVuSans-30"/>
       <use xlink:href="#DejaVuSans-2e" transform="translate(63.623047 0)"/>
       <use xlink:href="#DejaVuSans-32" transform="translate(95.410156 0)"/>
      </g>
     </g>
    </g>
    <g id="xtick_3">
     <g id="line2d_5">
      <path d="M 272.442813 414.957187 
L 272.442813 26.877187 
" clip-path="url(#pd35354bb6a)" style="fill: none; stroke: #b0b0b0; stroke-opacity: 0.25; stroke-width: 0.8; stroke-linecap: square"/>
     </g>
     <g id="line2d_6">
      <g>
       <use xlink:href="#m167e2920f5" x="272.442813" y="414.957187" style="stroke: #000000; stroke-width: 0.8"/>
      </g>
     </g>
     <g id="text_3">
      <!-- 0.4 -->
      <g transform="translate(263.696094 430.315469) scale(0.11 -0.11)">
       <defs>
        <path id="DejaVuSans-34" d="M 2419 4116 
L 825 1625 
L 2419 1625 
L 2419 4116 
z
M 2253 4666 
L 3047 4666 
L 3047 1625 
L 3713 1625 
L 3713 1100 
L 3047 1100 
L 3047 0 
L 2419 0 
L 2419 1100 
L 313 1100 
L 313 1709 
L 2253 4666 
z
" transform="scale(0.015625)"/>
       </defs>
       <use xlink:href="#DejaVuSans-30"/>
       <use xlink:href="#DejaVuSans-2e" transform="translate(63.623047 0)"/>
       <use xlink:href="#DejaVuSans-34" transform="translate(95.410156 0)"/>
      </g>
     </g>
    </g>
    <g id="xtick_4">
     <g id="line2d_7">
      <path d="M 384.042813 414.957187 
L 384.042813 26.877187 
" clip-path="url(#pd35354bb6a)" style="fill: none; stroke: #b0b0b0; stroke-opacity: 0.25; stroke-width: 0.8; stroke-linecap: square"/>
     </g>
     <g id="line2d_8">
      <g>
       <use xlink:href="#m167e2920f5" x="384.042813" y="414.957187" style="stroke: #000000; stroke-width: 0.8"/>
      </g>
     </g>
     <g id="text_4">
      <!-- 0.6 -->
      <g transform="translate(375.296094 430.315469) scale(0.11 -0.11)">
       <defs>
        <path id="DejaVuSans-36" d="M 2113 2584 
Q 1688 2584 1439 2293 
Q 1191 2003 1191 1497 
Q 1191 994 1439 701 
Q 1688 409 2113 409 
Q 2538 409 2786 701 
Q 3034 994 3034 1497 
Q 3034 2003 2786 2293 
Q 2538 2584 2113 2584 
z
M 3366 4563 
L 3366 3988 
Q 3128 4100 2886 4159 
Q 2644 4219 2406 4219 
Q 1781 4219 1451 3797 
Q 1122 3375 1075 2522 
Q 1259 2794 1537 2939 
Q 1816 3084 2150 3084 
Q 2853 3084 3261 2657 
Q 3669 2231 3669 1497 
Q 3669 778 3244 343 
Q 2819 -91 2113 -91 
Q 1303 -91 875 529 
Q 447 1150 447 2328 
Q 447 3434 972 4092 
Q 1497 4750 2381 4750 
Q 2619 4750 2861 4703 
Q 3103 4656 3366 4563 
z
" transform="scale(0.015625)"/>
       </defs>
       <use xlink:href="#DejaVuSans-30"/>
       <use xlink:href="#DejaVuSans-2e" transform="translate(63.623047 0)"/>
       <use xlink:href="#DejaVuSans-36" transform="translate(95.410156 0)"/>
      </g>
     </g>
    </g>
    <g id="xtick_5">
     <g id="line2d_9">
      <path d="M 495.642813 414.957187 
L 495.642813 26.877187 
" clip-path="url(#pd35354bb6a)" style="fill: none; stroke: #b0b0b0; stroke-opacity: 0.25; stroke-width: 0.8; stroke-linecap: square"/>
     </g>
     <g id="line2d_10">
      <g>
       <use xlink:href="#m167e2920f5" x="495.642813" y="414.957187" style="stroke: #000000; stroke-width: 0.8"/>
      </g>
     </g>
     <g id="text_5">
      <!-- 0.8 -->
      <g transform="translate(486.896094 430.315469) scale(0.11 -0.11)">
       <defs>
        <path id="DejaVuSans-38" d="M 2034 2216 
Q 1584 2216 1326 1975 
Q 1069 1734 1069 1313 
Q 1069 891 1326 650 
Q 1584 409 2034 409 
Q 2484 409 2743 651 
Q 3003 894 3003 1313 
Q 3003 1734 2745 1975 
Q 2488 2216 2034 2216 
z
M 1403 2484 
Q 997 2584 770 2862 
Q 544 3141 544 3541 
Q 544 4100 942 4425 
Q 1341 4750 2034 4750 
Q 2731 4750 3128 4425 
Q 3525 4100 3525 3541 
Q 3525 3141 3298 2862 
Q 3072 2584 2669 2484 
Q 3125 2378 3379 2068 
Q 3634 1759 3634 1313 
Q 3634 634 3220 271 
Q 2806 -91 2034 -91 
Q 1263 -91 848 271 
Q 434 634 434 1313 
Q 434 1759 690 2068 
Q 947 2378 1403 2484 
z
M 1172 3481 
Q 1172 3119 1398 2916 
Q 1625 2713 2034 2713 
Q 2441 2713 2670 2916 
Q 2900 3119 2900 3481 
Q 2900 3844 2670 4047 
Q 2441 4250 2034 4250 
Q 1625 4250 1398 4047 
Q 1172 3844 1172 3481 
z
" transform="scale(0.015625)"/>
       </defs>
       <use xlink:href="#DejaVuSans-30"/>
       <use xlink:href="#DejaVuSans-2e" transform="translate(63.623047 0)"/>
       <use xlink:href="#DejaVuSans-38" transform="translate(95.410156 0)"/>
      </g>
     </g>
    </g>
    <g id="xtick_6">
     <g id="line2d_11">
      <path d="M 607.242813 414.957187 
L 607.242813 26.877187 
" clip-path="url(#pd35354bb6a)" style="fill: none; stroke: #b0b0b0; stroke-opacity: 0.25; stroke-width: 0.8; stroke-linecap: square"/>
     </g>
     <g id="line2d_12">
      <g>
       <use xlink:href="#m167e2920f5" x="607.242813" y="414.957187" style="stroke: #000000; stroke-width: 0.8"/>
      </g>
     </g>
     <g id="text_6">
      <!-- 1.0 -->
      <g transform="translate(598.496094 430.315469) scale(0.11 -0.11)">
       <defs>
        <path id="DejaVuSans-31" d="M 794 531 
L 1825 531 
L 1825 4091 
L 703 3866 
L 703 4441 
L 1819 4666 
L 2450 4666 
L 2450 531 
L 3481 531 
L 3481 0 
L 794 0 
L 794 531 
z
" transform="scale(0.015625)"/>
       </defs>
       <use xlink:href="#DejaVuSans-31"/>
       <use xlink:href="#DejaVuSans-2e" transform="translate(63.623047 0)"/>
       <use xlink:href="#DejaVuSans-30" transform="translate(95.410156 0)"/>
      </g>
     </g>
    </g>
    <g id="text_7">
     <!-- Recall -->
     <g transform="translate(307.35875 447.240937) scale(0.14 -0.14)">
      <defs>
       <path id="DejaVuSans-52" d="M 2841 2188 
Q 3044 2119 3236 1894 
Q 3428 1669 3622 1275 
L 4263 0 
L 3584 0 
L 2988 1197 
Q 2756 1666 2539 1819 
Q 2322 1972 1947 1972 
L 1259 1972 
L 1259 0 
L 628 0 
L 628 4666 
L 2053 4666 
Q 2853 4666 3247 4331 
Q 3641 3997 3641 3322 
Q 3641 2881 3436 2590 
Q 3231 2300 2841 2188 
z
M 1259 4147 
L 1259 2491 
L 2053 2491 
Q 2509 2491 2742 2702 
Q 2975 2913 2975 3322 
Q 2975 3731 2742 3939 
Q 2509 4147 2053 4147 
L 1259 4147 
z
" transform="scale(0.015625)"/>
       <path id="DejaVuSans-65" d="M 3597 1894 
L 3597 1613 
L 953 1613 
Q 991 1019 1311 708 
Q 1631 397 2203 397 
Q 2534 397 2845 478 
Q 3156 559 3463 722 
L 3463 178 
Q 3153 47 2828 -22 
Q 2503 -91 2169 -91 
Q 1331 -91 842 396 
Q 353 884 353 1716 
Q 353 2575 817 3079 
Q 1281 3584 2069 3584 
Q 2775 3584 3186 3129 
Q 3597 2675 3597 1894 
z
M 3022 2063 
Q 3016 2534 2758 2815 
Q 2500 3097 2075 3097 
Q 1594 3097 1305 2825 
Q 1016 2553 972 2059 
L 3022 2063 
z
" transform="scale(0.015625)"/>
       <path id="DejaVuSans-63" d="M 3122 3366 
L 3122 2828 
Q 2878 2963 2633 3030 
Q 2388 3097 2138 3097 
Q 1578 3097 1268 2742 
Q 959 2388 959 1747 
Q 959 1106 1268 751 
Q 1578 397 2138 397 
Q 2388 397 2633 464 
Q 2878 531 3122 666 
L 3122 134 
Q 2881 22 2623 -34 
Q 2366 -91 2075 -91 
Q 1284 -91 818 406 
Q 353 903 353 1747 
Q 353 2603 823 3093 
Q 1294 3584 2113 3584 
Q 2378 3584 2631 3529 
Q 2884 3475 3122 3366 
z
" transform="scale(0.015625)"/>
       <path id="DejaVuSans-61" d="M 2194 1759 
Q 1497 1759 1228 1600 
Q 959 1441 959 1056 
Q 959 750 1161 570 
Q 1363 391 1709 391 
Q 2188 391 2477 730 
Q 2766 1069 2766 1631 
L 2766 1759 
L 2194 1759 
z
M 3341 1997 
L 3341 0 
L 2766 0 
L 2766 531 
Q 2569 213 2275 61 
Q 1981 -91 1556 -91 
Q 1019 -91 701 211 
Q 384 513 384 1019 
Q 384 1609 779 1909 
Q 1175 2209 1959 2209 
L 2766 2209 
L 2766 2266 
Q 2766 2663 2505 2880 
Q 2244 3097 1772 3097 
Q 1472 3097 1187 3025 
Q 903 2953 641 2809 
L 641 3341 
Q 956 3463 1253 3523 
Q 1550 3584 1831 3584 
Q 2591 3584 2966 3190 
Q 3341 2797 3341 1997 
z
" transform="scale(0.015625)"/>
       <path id="DejaVuSans-6c" d="M 603 4863 
L 1178 4863 
L 1178 0 
L 603 0 
L 603 4863 
z
" transform="scale(0.015625)"/>
      </defs>
      <use xlink:href="#DejaVuSans-52"/>
      <use xlink:href="#DejaVuSans-65" transform="translate(64.982422 0)"/>
      <use xlink:href="#DejaVuSans-63" transform="translate(126.505859 0)"/>
      <use xlink:href="#DejaVuSans-61" transform="translate(181.486328 0)"/>
      <use xlink:href="#DejaVuSans-6c" transform="translate(242.765625 0)"/>
      <use xlink:href="#DejaVuSans-6c" transform="translate(270.548828 0)"/>
     </g>
    </g>
   </g>
   <g id="matplotlib.axis_2">
    <g id="ytick_1">
     <g id="line2d_13">
      <path d="M 49.242813 414.957187 
L 607.242813 414.957187 
" clip-path="url(#pd35354bb6a)" style="fill: none; stroke: #b0b0b0; stroke-opacity: 0.25; stroke-width: 0.8; stroke-linecap: square"/>
     </g>
     <g id="line2d_14">
      <defs>
       <path id="mf2221643f7" d="M 0 0 
L -3.5 0 
" style="stroke: #000000; stroke-width: 0.8"/>
      </defs>
      <g>
       <use xlink:href="#mf2221643f7" x="49.242813" y="414.957187" style="stroke: #000000; stroke-width: 0.8"/>
      </g>
     </g>
     <g id="text_8">
      <!-- 0.0 -->
      <g transform="translate(24.749375 419.136328) scale(0.11 -0.11)">
       <use xlink:href="#DejaVuSans-30"/>
       <use xlink:href="#DejaVuSans-2e" transform="translate(63.623047 0)"/>
       <use xlink:href="#DejaVuSans-30" transform="translate(95.410156 0)"/>
      </g>
     </g>
    </g>
    <g id="ytick_2">
     <g id="line2d_15">
      <path d="M 49.242813 337.341187 
L 607.242813 337.341187 
" clip-path="url(#pd35354bb6a)" style="fill: none; stroke: #b0b0b0; stroke-opacity: 0.25; stroke-width: 0.8; stroke-linecap: square"/>
     </g>
     <g id="line2d_16">
      <g>
       <use xlink:href="#mf2221643f7" x="49.242813" y="337.341187" style="stroke: #000000; stroke-width: 0.8"/>
      </g>
     </g>
     <g id="text_9">
      <!-- 0.2 -->
      <g transform="translate(24.749375 341.520328) scale(0.11 -0.11)">
       <use xlink:href="#DejaVuSans-30"/>
       <use xlink:href="#DejaVuSans-2e" transform="translate(63.623047 0)"/>
       <use xlink:href="#DejaVuSans-32" transform="translate(95.410156 0)"/>
      </g>
     </g>
    </g>
    <g id="ytick_3">
     <g id="line2d_17">
      <path d="M 49.242813 259.725187 
L 607.242813 259.725187 
" clip-path="url(#pd35354bb6a)" style="fill: none; stroke: #b0b0b0; stroke-opacity: 0.25; stroke-width: 0.8; stroke-linecap: square"/>
     </g>
     <g id="line2d_18">
      <g>
       <use xlink:href="#mf2221643f7" x="49.242813" y="259.725187" style="stroke: #000000; stroke-width: 0.8"/>
      </g>
     </g>
     <g id="text_10">
      <!-- 0.4 -->
      <g transform="translate(24.749375 263.904328) scale(0.11 -0.11)">
       <use xlink:href="#DejaVuSans-30"/>
       <use xlink:href="#DejaVuSans-2e" transform="translate(63.623047 0)"/>
       <use xlink:href="#DejaVuSans-34" transform="translate(95.410156 0)"/>
      </g>
     </g>
    </g>
    <g id="ytick_4">
     <g id="line2d_19">
      <path d="M 49.242813 182.109187 
L 607.242813 182.109187 
" clip-path="url(#pd35354bb6a)" style="fill: none; stroke: #b0b0b0; stroke-opacity: 0.25; stroke-width: 0.8; stroke-linecap: square"/>
     </g>
     <g id="line2d_20">
      <g>
       <use xlink:href="#mf2221643f7" x="49.242813" y="182.109187" style="stroke: #000000; stroke-width: 0.8"/>
      </g>
     </g>
     <g id="text_11">
      <!-- 0.6 -->
      <g transform="translate(24.749375 186.288328) scale(0.11 -0.11)">
       <use xlink:href="#DejaVuSans-30"/>
       <use xlink:href="#DejaVuSans-2e" transform="translate(63.623047 0)"/>
       <use xlink:href="#DejaVuSans-36" transform="translate(95.410156 0)"/>
      </g>
     </g>
    </g>
    <g id="ytick_5">
     <g id="line2d_21">
      <path d="M 49.242813 104.493187 
L 607.242813 104.493187 
" clip-path="url(#pd35354bb6a)" style="fill: none; stroke: #b0b0b0; stroke-opacity: 0.25; stroke-width: 0.8; stroke-linecap: square"/>
     </g>
     <g id="line2d_22">
      <g>
       <use xlink:href="#mf2221643f7" x="49.242813" y="104.493187" style="stroke: #000000; stroke-width: 0.8"/>
      </g>
     </g>
     <g id="text_12">
      <!-- 0.8 -->
      <g transform="translate(24.749375 108.672328) scale(0.11 -0.11)">
       <use xlink:href="#DejaVuSans-30"/>
       <use xlink:href="#DejaVuSans-2e" transform="translate(63.623047 0)"/>
       <use xlink:href="#DejaVuSans-38" transform="translate(95.410156 0)"/>
      </g>
     </g>
    </g>
    <g id="ytick_6">
     <g id="line2d_23">
      <path d="M 49.242813 26.877187 
L 607.242813 26.877187 
" clip-path="url(#pd35354bb6a)" style="fill: none; stroke: #b0b0b0; stroke-opacity: 0.25; stroke-width: 0.8; stroke-linecap: square"/>
     </g>
     <g id="line2d_24">
      <g>
       <use xlink:href="#mf2221643f7" x="49.242813" y="26.877187" style="stroke: #000000; stroke-width: 0.8"/>
      </g>
     </g>
     <g id="text_13">
      <!-- 1.0 -->
      <g transform="translate(24.749375 31.056328) scale(0.11 -0.11)">
       <use xlink:href="#DejaVuSans-31"/>
       <use xlink:href="#DejaVuSans-2e" transform="translate(63.623047 0)"/>
       <use xlink:href="#DejaVuSans-30" transform="translate(95.410156 0)"/>
      </g>
     </g>
    </g>
    <g id="text_14">
     <!-- Precision -->
     <g transform="translate(17.837813 252.147031) rotate(-90) scale(0.14 -0.14)">
      <defs>
       <path id="DejaVuSans-50" d="M 1259 4147 
L 1259 2394 
L 2053 2394 
Q 2494 2394 2734 2622 
Q 2975 2850 2975 3272 
Q 2975 3691 2734 3919 
Q 2494 4147 2053 4147 
L 1259 4147 
z
M 628 4666 
L 2053 4666 
Q 2838 4666 3239 4311 
Q 3641 3956 3641 3272 
Q 3641 2581 3239 2228 
Q 2838 1875 2053 1875 
L 1259 1875 
L 1259 0 
L 628 0 
L 628 4666 
z
" transform="scale(0.015625)"/>
       <path id="DejaVuSans-72" d="M 2631 2963 
Q 2534 3019 2420 3045 
Q 2306 3072 2169 3072 
Q 1681 3072 1420 2755 
Q 1159 2438 1159 1844 
L 1159 0 
L 581 0 
L 581 3500 
L 1159 3500 
L 1159 2956 
Q 1341 3275 1631 3429 
Q 1922 3584 2338 3584 
Q 2397 3584 2469 3576 
Q 2541 3569 2628 3553 
L 2631 2963 
z
" transform="scale(0.015625)"/>
       <path id="DejaVuSans-69" d="M 603 3500 
L 1178 3500 
L 1178 0 
L 603 0 
L 603 3500 
z
M 603 4863 
L 1178 4863 
L 1178 4134 
L 603 4134 
L 603 4863 
z
" transform="scale(0.015625)"/>
       <path id="DejaVuSans-73" d="M 2834 3397 
L 2834 2853 
Q 2591 2978 2328 3040 
Q 2066 3103 1784 3103 
Q 1356 3103 1142 2972 
Q 928 2841 928 2578 
Q 928 2378 1081 2264 
Q 1234 2150 1697 2047 
L 1894 2003 
Q 2506 1872 2764 1633 
Q 3022 1394 3022 966 
Q 3022 478 2636 193 
Q 2250 -91 1575 -91 
Q 1294 -91 989 -36 
Q 684 19 347 128 
L 347 722 
Q 666 556 975 473 
Q 1284 391 1588 391 
Q 1994 391 2212 530 
Q 2431 669 2431 922 
Q 2431 1156 2273 1281 
Q 2116 1406 1581 1522 
L 1381 1569 
Q 847 1681 609 1914 
Q 372 2147 372 2553 
Q 372 3047 722 3315 
Q 1072 3584 1716 3584 
Q 2034 3584 2315 3537 
Q 2597 3491 2834 3397 
z
" transform="scale(0.015625)"/>
       <path id="DejaVuSans-6f" d="M 1959 3097 
Q 1497 3097 1228 2736 
Q 959 2375 959 1747 
Q 959 1119 1226 758 
Q 1494 397 1959 397 
Q 2419 397 2687 759 
Q 2956 1122 2956 1747 
Q 2956 2369 2687 2733 
Q 2419 3097 1959 3097 
z
M 1959 3584 
Q 2709 3584 3137 3096 
Q 3566 2609 3566 1747 
Q 3566 888 3137 398 
Q 2709 -91 1959 -91 
Q 1206 -91 779 398 
Q 353 888 353 1747 
Q 353 2609 779 3096 
Q 1206 3584 1959 3584 
z
" transform="scale(0.015625)"/>
       <path id="DejaVuSans-6e" d="M 3513 2113 
L 3513 0 
L 2938 0 
L 2938 2094 
Q 2938 2591 2744 2837 
Q 2550 3084 2163 3084 
Q 1697 3084 1428 2787 
Q 1159 2491 1159 1978 
L 1159 0 
L 581 0 
L 581 3500 
L 1159 3500 
L 1159 2956 
Q 1366 3272 1645 3428 
Q 1925 3584 2291 3584 
Q 2894 3584 3203 3211 
Q 3513 2838 3513 2113 
z
" transform="scale(0.015625)"/>
      </defs>
      <use xlink:href="#DejaVuSans-50"/>
      <use xlink:href="#DejaVuSans-72" transform="translate(58.552734 0)"/>
      <use xlink:href="#DejaVuSans-65" transform="translate(97.416016 0)"/>
      <use xlink:href="#DejaVuSans-63" transform="translate(158.939453 0)"/>
      <use xlink:href="#DejaVuSans-69" transform="translate(213.919922 0)"/>
      <use xlink:href="#DejaVuSans-73" transform="translate(241.703125 0)"/>
      <use xlink:href="#DejaVuSans-69" transform="translate(293.802734 0)"/>
      <use xlink:href="#DejaVuSans-6f" transform="translate(321.585938 0)"/>
      <use xlink:href="#DejaVuSans-6e" transform="translate(382.767578 0)"/>
     </g>
    </g>
   </g>
   <g id="line2d_25">
    <path d="M 49.242813 26.877187 
L 59.032286 39.132345 
L 60.430782 39.456556 
L 63.227775 38.321819 
L 68.82176 41.174872 
L 70.220256 45.772177 
L 78.611234 42.05024 
L 80.00973 46.616668 
L 84.205219 44.921286 
L 89.799203 47.177623 
L 91.1977 44.944977 
L 98.190181 49.622219 
L 99.588677 49.98303 
L 100.987173 48.009063 
L 107.979655 47.713949 
L 112.175143 47.597588 
L 117.769128 48.183861 
L 119.167625 47.262112 
L 120.566121 47.426309 
L 121.964617 45.996933 
L 126.160106 47.039933 
L 131.754091 49.16416 
L 133.152587 48.321286 
L 134.551083 48.809036 
L 135.949579 46.70664 
L 141.543564 48.537166 
L 142.942061 47.809969 
L 145.739053 48.325639 
L 151.333038 48.063679 
L 152.731534 48.936089 
L 159.724016 47.961197 
L 161.122512 48.646049 
L 162.521008 50.171532 
L 166.716497 50.465671 
L 168.114993 49.198375 
L 172.310482 49.478185 
L 173.708978 50.391521 
L 175.107474 50.320342 
L 180.701459 50.683517 
L 182.099955 49.425785 
L 183.498452 49.517272 
L 184.896948 51.08324 
L 187.69394 51.53877 
L 189.092437 51.873831 
L 191.889429 52.143549 
L 193.287925 53.395031 
L 194.686422 51.885413 
L 200.280406 52.391839 
L 204.475895 52.123985 
L 205.874391 52.214405 
L 210.06988 52.893782 
L 211.468376 52.12444 
L 212.866873 52.345245 
L 215.663865 53.196974 
L 217.062361 53.765301 
L 218.460858 54.19345 
L 221.25785 54.571722 
L 222.656346 55.837359 
L 224.054843 56.933387 
L 226.851835 57.677338 
L 229.648828 58.985397 
L 231.047324 58.270194 
L 232.44582 58.683821 
L 233.844316 59.768848 
L 238.039805 60.653145 
L 240.836797 60.823009 
L 242.235294 60.013172 
L 245.032286 60.408901 
L 246.430782 61.072823 
L 250.626271 62.049725 
L 252.024767 61.600768 
L 253.423264 61.323822 
L 256.220256 61.725596 
L 257.618752 61.340374 
L 259.017249 61.672452 
L 260.415745 63.034483 
L 263.212737 63.270287 
L 264.611234 62.740497 
L 268.806722 62.977823 
L 270.205219 62.49103 
L 271.603715 64.606424 
L 274.400707 64.940157 
L 275.799203 65.154263 
L 277.1977 64.834418 
L 278.596196 65.035219 
L 279.994692 64.552694 
L 282.791685 64.954968 
L 284.190181 64.629405 
L 286.987173 64.751069 
L 288.38567 64.779545 
L 289.784166 65.678163 
L 292.581158 65.939634 
L 295.378151 66.112347 
L 298.175143 67.945408 
L 299.57364 67.504539 
L 300.972136 67.731338 
L 302.370632 68.705326 
L 305.167625 69.158546 
L 306.566121 69.016999 
L 307.964617 69.361805 
L 309.363113 69.511188 
L 312.160106 70.111227 
L 313.558602 69.668875 
L 314.957098 70.340778 
L 317.754091 70.656328 
L 319.152587 70.364007 
L 321.949579 70.617534 
L 324.746572 71.122092 
L 326.145068 70.86903 
L 327.543564 71.031688 
L 328.942061 70.160005 
L 333.137549 71.138936 
L 334.536046 71.071694 
L 335.934542 72.218562 
L 337.333038 72.67646 
L 338.731534 72.786687 
L 340.130031 72.621882 
L 341.528527 73.038816 
L 342.927023 73.320506 
L 344.325519 73.411439 
L 347.122512 74.058484 
L 348.521008 73.879979 
L 349.919504 74.067757 
L 351.318 73.409773 
L 354.114993 73.889585 
L 355.513489 73.919771 
L 356.911985 74.274248 
L 358.310482 73.943043 
L 361.107474 74.175403 
L 362.50597 73.781479 
L 365.302963 74.098179 
L 366.701459 74.53018 
L 368.099955 74.520053 
L 370.896948 74.954559 
L 372.295444 76.873819 
L 373.69394 76.840495 
L 379.287925 77.858806 
L 380.686422 77.642583 
L 382.084918 77.968801 
L 383.483414 78.021582 
L 386.280406 77.515727 
L 387.678903 78.07054 
L 389.077399 78.407666 
L 391.874391 78.58821 
L 393.272888 78.589992 
L 394.671384 78.209639 
L 396.06988 78.29927 
L 397.468376 79.140592 
L 400.265369 79.249247 
L 401.663865 78.766855 
L 405.859354 78.903311 
L 408.656346 79.328879 
L 410.054843 79.193936 
L 411.453339 79.949384 
L 412.851835 79.917393 
L 414.250331 80.063795 
L 415.648828 79.768922 
L 417.047324 80.511586 
L 419.844316 80.710916 
L 421.242813 81.098716 
L 422.641309 81.205839 
L 424.039805 80.91191 
L 426.836797 81.051866 
L 431.032286 81.854631 
L 432.430782 81.312102 
L 433.829279 81.246042 
L 436.626271 81.53584 
L 439.423264 82.032468 
L 440.82176 82.234928 
L 442.220256 82.148033 
L 443.618752 81.669654 
L 445.017249 81.508959 
L 446.415745 82.416724 
L 447.814241 82.50327 
L 449.212737 82.354378 
L 450.611234 82.350537 
L 452.00973 82.541064 
L 453.408226 82.980656 
L 456.205219 83.225256 
L 457.603715 83.170165 
L 459.002211 82.967361 
L 460.400707 83.821264 
L 461.799203 84.153878 
L 463.1977 84.049963 
L 464.596196 84.811115 
L 467.393188 84.983692 
L 468.791685 84.875689 
L 470.190181 85.963019 
L 471.588677 86.709392 
L 472.987173 86.726343 
L 474.38567 87.49471 
L 477.182662 87.323734 
L 478.581158 87.175594 
L 479.979655 87.389057 
L 481.378151 88.308797 
L 482.776647 89.579116 
L 485.57364 90.102569 
L 486.972136 89.577518 
L 488.370632 89.879093 
L 489.769128 90.018905 
L 491.167625 90.385853 
L 492.566121 90.427286 
L 493.964617 90.95567 
L 498.160106 90.656052 
L 499.558602 90.807879 
L 500.957098 91.260338 
L 503.754091 91.515573 
L 505.152587 91.960017 
L 507.949579 92.285305 
L 509.348076 92.7074 
L 512.145068 92.79562 
L 513.543564 92.914268 
L 514.942061 92.786973 
L 516.340557 92.906381 
L 519.137549 94.118182 
L 520.536046 94.210881 
L 521.934542 94.765928 
L 523.333038 94.353205 
L 524.731534 94.748749 
L 526.130031 94.61693 
L 527.528527 94.792606 
L 528.927023 94.791748 
L 530.325519 95.064947 
L 533.122512 96.229841 
L 534.521008 96.225975 
L 535.919504 96.705983 
L 537.318 96.167895 
L 538.716497 96.31828 
L 540.114993 96.611633 
L 541.513489 97.15559 
L 545.708978 98.243286 
L 547.107474 98.279636 
L 548.50597 98.612434 
L 549.904467 99.387771 
L 551.302963 99.736436 
L 552.701459 100.221474 
L 554.099955 100.514625 
L 555.498452 101.860566 
L 556.896948 102.769179 
L 558.295444 103.26072 
L 559.69394 104.285766 
L 561.092437 105.637972 
L 562.490933 106.09243 
L 563.889429 106.667614 
L 565.287925 107.558007 
L 566.686422 108.303488 
L 568.084918 110.838377 
L 569.483414 112.266228 
L 570.88191 113.364953 
L 572.280406 114.911994 
L 573.678903 114.983113 
L 575.077399 114.773338 
L 576.475895 116.488415 
L 577.874391 116.627923 
L 579.272888 117.894097 
L 580.671384 117.632927 
L 583.468376 118.756013 
L 586.265369 121.493713 
L 587.663865 123.726282 
L 589.062361 125.552123 
L 590.460858 127.122522 
L 591.859354 130.23863 
L 593.25785 132.036885 
L 594.656346 137.776534 
L 596.054843 139.054645 
L 597.453339 139.640204 
L 598.851835 141.027813 
L 600.250331 142.878834 
L 601.648828 150.886575 
L 603.047324 156.933389 
L 605.844316 170.203502 
L 607.242813 181.615897 
L 607.242813 181.615897 
" clip-path="url(#pd35354bb6a)" style="fill: none; stroke: #1f77b4; stroke-width: 2.5; stroke-linecap: square"/>
   </g>
   <g id="patch_3">
    <path d="M 49.242813 414.957187 
L 49.242813 26.877187 
" style="fill: none; stroke: #000000; stroke-width: 0.8; stroke-linejoin: miter; stroke-linecap: square"/>
   </g>
   <g id="patch_4">
    <path d="M 607.242813 414.957187 
L 607.242813 26.877187 
" style="fill: none; stroke: #000000; stroke-width: 0.8; stroke-linejoin: miter; stroke-linecap: square"/>
   </g>
   <g id="patch_5">
    <path d="M 49.242813 414.957187 
L 607.242813 414.957187 
" style="fill: none; stroke: #000000; stroke-width: 0.8; stroke-linejoin: miter; stroke-linecap: square"/>
   </g>
   <g id="patch_6">
    <path d="M 49.242813 26.877187 
L 607.242813 26.877187 
" style="fill: none; stroke: #000000; stroke-width: 0.8; stroke-linejoin: miter; stroke-linecap: square"/>
   </g>
   <g id="text_15">
    <!-- XGBoost (tuned): Mean PR Curve (AP=0.884 +/- 0.099) -->
    <g transform="translate(79.180469 20.877187) scale(0.18 -0.18)">
     <defs>
      <path id="DejaVuSans-58" d="M 403 4666 
L 1081 4666 
L 2241 2931 
L 3406 4666 
L 4084 4666 
L 2584 2425 
L 4184 0 
L 3506 0 
L 2194 1984 
L 872 0 
L 191 0 
L 1856 2491 
L 403 4666 
z
" transform="scale(0.015625)"/>
      <path id="DejaVuSans-47" d="M 3809 666 
L 3809 1919 
L 2778 1919 
L 2778 2438 
L 4434 2438 
L 4434 434 
Q 4069 175 3628 42 
Q 3188 -91 2688 -91 
Q 1594 -91 976 548 
Q 359 1188 359 2328 
Q 359 3472 976 4111 
Q 1594 4750 2688 4750 
Q 3144 4750 3555 4637 
Q 3966 4525 4313 4306 
L 4313 3634 
Q 3963 3931 3569 4081 
Q 3175 4231 2741 4231 
Q 1884 4231 1454 3753 
Q 1025 3275 1025 2328 
Q 1025 1384 1454 906 
Q 1884 428 2741 428 
Q 3075 428 3337 486 
Q 3600 544 3809 666 
z
" transform="scale(0.015625)"/>
      <path id="DejaVuSans-42" d="M 1259 2228 
L 1259 519 
L 2272 519 
Q 2781 519 3026 730 
Q 3272 941 3272 1375 
Q 3272 1813 3026 2020 
Q 2781 2228 2272 2228 
L 1259 2228 
z
M 1259 4147 
L 1259 2741 
L 2194 2741 
Q 2656 2741 2882 2914 
Q 3109 3088 3109 3444 
Q 3109 3797 2882 3972 
Q 2656 4147 2194 4147 
L 1259 4147 
z
M 628 4666 
L 2241 4666 
Q 2963 4666 3353 4366 
Q 3744 4066 3744 3513 
Q 3744 3084 3544 2831 
Q 3344 2578 2956 2516 
Q 3422 2416 3680 2098 
Q 3938 1781 3938 1306 
Q 3938 681 3513 340 
Q 3088 0 2303 0 
L 628 0 
L 628 4666 
z
" transform="scale(0.015625)"/>
      <path id="DejaVuSans-74" d="M 1172 4494 
L 1172 3500 
L 2356 3500 
L 2356 3053 
L 1172 3053 
L 1172 1153 
Q 1172 725 1289 603 
Q 1406 481 1766 481 
L 2356 481 
L 2356 0 
L 1766 0 
Q 1100 0 847 248 
Q 594 497 594 1153 
L 594 3053 
L 172 3053 
L 172 3500 
L 594 3500 
L 594 4494 
L 1172 4494 
z
" transform="scale(0.015625)"/>
      <path id="DejaVuSans-20" transform="scale(0.015625)"/>
      <path id="DejaVuSans-28" d="M 1984 4856 
Q 1566 4138 1362 3434 
Q 1159 2731 1159 2009 
Q 1159 1288 1364 580 
Q 1569 -128 1984 -844 
L 1484 -844 
Q 1016 -109 783 600 
Q 550 1309 550 2009 
Q 550 2706 781 3412 
Q 1013 4119 1484 4856 
L 1984 4856 
z
" transform="scale(0.015625)"/>
      <path id="DejaVuSans-75" d="M 544 1381 
L 544 3500 
L 1119 3500 
L 1119 1403 
Q 1119 906 1312 657 
Q 1506 409 1894 409 
Q 2359 409 2629 706 
Q 2900 1003 2900 1516 
L 2900 3500 
L 3475 3500 
L 3475 0 
L 2900 0 
L 2900 538 
Q 2691 219 2414 64 
Q 2138 -91 1772 -91 
Q 1169 -91 856 284 
Q 544 659 544 1381 
z
M 1991 3584 
L 1991 3584 
z
" transform="scale(0.015625)"/>
      <path id="DejaVuSans-64" d="M 2906 2969 
L 2906 4863 
L 3481 4863 
L 3481 0 
L 2906 0 
L 2906 525 
Q 2725 213 2448 61 
Q 2172 -91 1784 -91 
Q 1150 -91 751 415 
Q 353 922 353 1747 
Q 353 2572 751 3078 
Q 1150 3584 1784 3584 
Q 2172 3584 2448 3432 
Q 2725 3281 2906 2969 
z
M 947 1747 
Q 947 1113 1208 752 
Q 1469 391 1925 391 
Q 2381 391 2643 752 
Q 2906 1113 2906 1747 
Q 2906 2381 2643 2742 
Q 2381 3103 1925 3103 
Q 1469 3103 1208 2742 
Q 947 2381 947 1747 
z
" transform="scale(0.015625)"/>
      <path id="DejaVuSans-29" d="M 513 4856 
L 1013 4856 
Q 1481 4119 1714 3412 
Q 1947 2706 1947 2009 
Q 1947 1309 1714 600 
Q 1481 -109 1013 -844 
L 513 -844 
Q 928 -128 1133 580 
Q 1338 1288 1338 2009 
Q 1338 2731 1133 3434 
Q 928 4138 513 4856 
z
" transform="scale(0.015625)"/>
      <path id="DejaVuSans-3a" d="M 750 794 
L 1409 794 
L 1409 0 
L 750 0 
L 750 794 
z
M 750 3309 
L 1409 3309 
L 1409 2516 
L 750 2516 
L 750 3309 
z
" transform="scale(0.015625)"/>
      <path id="DejaVuSans-4d" d="M 628 4666 
L 1569 4666 
L 2759 1491 
L 3956 4666 
L 4897 4666 
L 4897 0 
L 4281 0 
L 4281 4097 
L 3078 897 
L 2444 897 
L 1241 4097 
L 1241 0 
L 628 0 
L 628 4666 
z
" transform="scale(0.015625)"/>
      <path id="DejaVuSans-43" d="M 4122 4306 
L 4122 3641 
Q 3803 3938 3442 4084 
Q 3081 4231 2675 4231 
Q 1875 4231 1450 3742 
Q 1025 3253 1025 2328 
Q 1025 1406 1450 917 
Q 1875 428 2675 428 
Q 3081 428 3442 575 
Q 3803 722 4122 1019 
L 4122 359 
Q 3791 134 3420 21 
Q 3050 -91 2638 -91 
Q 1578 -91 968 557 
Q 359 1206 359 2328 
Q 359 3453 968 4101 
Q 1578 4750 2638 4750 
Q 3056 4750 3426 4639 
Q 3797 4528 4122 4306 
z
" transform="scale(0.015625)"/>
      <path id="DejaVuSans-76" d="M 191 3500 
L 800 3500 
L 1894 563 
L 2988 3500 
L 3597 3500 
L 2284 0 
L 1503 0 
L 191 3500 
z
" transform="scale(0.015625)"/>
      <path id="DejaVuSans-41" d="M 2188 4044 
L 1331 1722 
L 3047 1722 
L 2188 4044 
z
M 1831 4666 
L 2547 4666 
L 4325 0 
L 3669 0 
L 3244 1197 
L 1141 1197 
L 716 0 
L 50 0 
L 1831 4666 
z
" transform="scale(0.015625)"/>
      <path id="DejaVuSans-3d" d="M 678 2906 
L 4684 2906 
L 4684 2381 
L 678 2381 
L 678 2906 
z
M 678 1631 
L 4684 1631 
L 4684 1100 
L 678 1100 
L 678 1631 
z
" transform="scale(0.015625)"/>
      <path id="DejaVuSans-2b" d="M 2944 4013 
L 2944 2272 
L 4684 2272 
L 4684 1741 
L 2944 1741 
L 2944 0 
L 2419 0 
L 2419 1741 
L 678 1741 
L 678 2272 
L 2419 2272 
L 2419 4013 
L 2944 4013 
z
" transform="scale(0.015625)"/>
      <path id="DejaVuSans-2f" d="M 1625 4666 
L 2156 4666 
L 531 -594 
L 0 -594 
L 1625 4666 
z
" transform="scale(0.015625)"/>
      <path id="DejaVuSans-2d" d="M 313 2009 
L 1997 2009 
L 1997 1497 
L 313 1497 
L 313 2009 
z
" transform="scale(0.015625)"/>
      <path id="DejaVuSans-39" d="M 703 97 
L 703 672 
Q 941 559 1184 500 
Q 1428 441 1663 441 
Q 2288 441 2617 861 
Q 2947 1281 2994 2138 
Q 2813 1869 2534 1725 
Q 2256 1581 1919 1581 
Q 1219 1581 811 2004 
Q 403 2428 403 3163 
Q 403 3881 828 4315 
Q 1253 4750 1959 4750 
Q 2769 4750 3195 4129 
Q 3622 3509 3622 2328 
Q 3622 1225 3098 567 
Q 2575 -91 1691 -91 
Q 1453 -91 1209 -44 
Q 966 3 703 97 
z
M 1959 2075 
Q 2384 2075 2632 2365 
Q 2881 2656 2881 3163 
Q 2881 3666 2632 3958 
Q 2384 4250 1959 4250 
Q 1534 4250 1286 3958 
Q 1038 3666 1038 3163 
Q 1038 2656 1286 2365 
Q 1534 2075 1959 2075 
z
" transform="scale(0.015625)"/>
     </defs>
     <use xlink:href="#DejaVuSans-58"/>
     <use xlink:href="#DejaVuSans-47" transform="translate(68.505859 0)"/>
     <use xlink:href="#DejaVuSans-42" transform="translate(145.996094 0)"/>
     <use xlink:href="#DejaVuSans-6f" transform="translate(214.599609 0)"/>
     <use xlink:href="#DejaVuSans-6f" transform="translate(275.78125 0)"/>
     <use xlink:href="#DejaVuSans-73" transform="translate(336.962891 0)"/>
     <use xlink:href="#DejaVuSans-74" transform="translate(389.0625 0)"/>
     <use xlink:href="#DejaVuSans-20" transform="translate(428.271484 0)"/>
     <use xlink:href="#DejaVuSans-28" transform="translate(460.058594 0)"/>
     <use xlink:href="#DejaVuSans-74" transform="translate(499.072266 0)"/>
     <use xlink:href="#DejaVuSans-75" transform="translate(538.28125 0)"/>
     <use xlink:href="#DejaVuSans-6e" transform="translate(601.660156 0)"/>
     <use xlink:href="#DejaVuSans-65" transform="translate(665.039062 0)"/>
     <use xlink:href="#DejaVuSans-64" transform="translate(726.5625 0)"/>
     <use xlink:href="#DejaVuSans-29" transform="translate(790.039062 0)"/>
     <use xlink:href="#DejaVuSans-3a" transform="translate(829.052734 0)"/>
     <use xlink:href="#DejaVuSans-20" transform="translate(862.744141 0)"/>
     <use xlink:href="#DejaVuSans-4d" transform="translate(894.53125 0)"/>
     <use xlink:href="#DejaVuSans-65" transform="translate(980.810547 0)"/>
     <use xlink:href="#DejaVuSans-61" transform="translate(1042.333984 0)"/>
     <use xlink:href="#DejaVuSans-6e" transform="translate(1103.613281 0)"/>
     <use xlink:href="#DejaVuSans-20" transform="translate(1166.992188 0)"/>
     <use xlink:href="#DejaVuSans-50" transform="translate(1198.779297 0)"/>
     <use xlink:href="#DejaVuSans-52" transform="translate(1259.082031 0)"/>
     <use xlink:href="#DejaVuSans-20" transform="translate(1328.564453 0)"/>
     <use xlink:href="#DejaVuSans-43" transform="translate(1360.351562 0)"/>
     <use xlink:href="#DejaVuSans-75" transform="translate(1430.175781 0)"/>
     <use xlink:href="#DejaVuSans-72" transform="translate(1493.554688 0)"/>
     <use xlink:href="#DejaVuSans-76" transform="translate(1534.667969 0)"/>
     <use xlink:href="#DejaVuSans-65" transform="translate(1593.847656 0)"/>
     <use xlink:href="#DejaVuSans-20" transform="translate(1655.371094 0)"/>
     <use xlink:href="#DejaVuSans-28" transform="translate(1687.158203 0)"/>
     <use xlink:href="#DejaVuSans-41" transform="translate(1726.171875 0)"/>
     <use xlink:href="#DejaVuSans-50" transform="translate(1794.580078 0)"/>
     <use xlink:href="#DejaVuSans-3d" transform="translate(1854.882812 0)"/>
     <use xlink:href="#DejaVuSans-30" transform="translate(1938.671875 0)"/>
     <use xlink:href="#DejaVuSans-2e" transform="translate(2002.294922 0)"/>
     <use xlink:href="#DejaVuSans-38" transform="translate(2034.082031 0)"/>
     <use xlink:href="#DejaVuSans-38" transform="translate(2097.705078 0)"/>
     <use xlink:href="#DejaVuSans-34" transform="translate(2161.328125 0)"/>
     <use xlink:href="#DejaVuSans-20" transform="translate(2224.951172 0)"/>
     <use xlink:href="#DejaVuSans-2b" transform="translate(2256.738281 0)"/>
     <use xlink:href="#DejaVuSans-2f" transform="translate(2340.527344 0)"/>
     <use xlink:href="#DejaVuSans-2d" transform="translate(2374.21875 0)"/>
     <use xlink:href="#DejaVuSans-20" transform="translate(2410.302734 0)"/>
     <use xlink:href="#DejaVuSans-30" transform="translate(2442.089844 0)"/>
     <use xlink:href="#DejaVuSans-2e" transform="translate(2505.712891 0)"/>
     <use xlink:href="#DejaVuSans-30" transform="translate(2537.5 0)"/>
     <use xlink:href="#DejaVuSans-39" transform="translate(2601.123047 0)"/>
     <use xlink:href="#DejaVuSans-39" transform="translate(2664.746094 0)"/>
     <use xlink:href="#DejaVuSans-29" transform="translate(2728.369141 0)"/>
    </g>
   </g>
  </g>
 </g>
 <defs>
  <clipPath id="pd35354bb6a">
   <rect x="49.242813" y="26.877187" width="558" height="388.08"/>
  </clipPath>
 </defs>
</svg>
