<?xml version="1.0" encoding="utf-8" standalone="no"?>
<!DOCTYPE svg PUBLIC "-//W3C//DTD SVG 1.1//EN"
  "http://www.w3.org/Graphics/SVG/1.1/DTD/svg11.dtd">
<svg xmlns:xlink="http://www.w3.org/1999/xlink" width="623.189531pt" height="457.3525pt" viewBox="0 0 623.189531 457.3525" xmlns="http://www.w3.org/2000/svg" version="1.1">
 <metadata>
  <rdf:RDF xmlns:dc="http://purl.org/dc/elements/1.1/" xmlns:cc="http://creativecommons.org/ns#" xmlns:rdf="http://www.w3.org/1999/02/22-rdf-syntax-ns#">
   <cc:Work>
    <dc:type rdf:resource="http://purl.org/dc/dcmitype/StillImage"/>
    <dc:date>2026-02-18T18:56:42.058535</dc:date>
    <dc:format>image/svg+xml</dc:format>
    <dc:creator>
     <cc:Agent>
      <dc:title>Matplotlib v3.10.0, https://matplotlib.org/</dc:title>
     </cc:Agent>
    </dc:creator>
   </cc:Work>
  </rdf:RDF>
 </metadata>
 <defs>
  <style type="text/css">*{stroke-linejoin: round; stroke-linecap: butt}</style>
 </defs>
 <g id="figure_1">
  <g id="patch_1">
   <path d="M 0 457.3525 
L 623.189531 457.3525 
L 623.189531 0 
L 0 0 
z
" style="fill: #ffffff"/>
  </g>
  <g id="axes_1">
   <g id="patch_2">
    <path d="M 49.242813 414.957187 
L 607.242813 414.957187 
L 607.242813 26.877187 
L 49.242813 26.877187 
z
" style="fill: #ffffff"/>
   </g>
   <g id="FillBetweenPolyCollection_1">
    <defs>
     <path id="m0472fc090c" d="M 49.242813 -430.475312 
L 49.242813 -430.475312 
L 50.641309 -412.273737 
L 52.039805 -394.072161 
L 53.438301 -375.870586 
L 54.836797 -357.66901 
L 56.235294 -339.467434 
L 57.63379 -327.197023 
L 59.032286 -325.473389 
L 60.430782 -323.749755 
L 61.829279 -322.026121 
L 63.227775 -320.302487 
L 64.626271 -341.990551 
L 66.024767 -338.017985 
L 67.423264 -334.045419 
L 68.82176 -330.072852 
L 70.220256 -326.100286 
L 71.618752 -322.12772 
L 73.017249 -322.210056 
L 74.415745 -322.520566 
L 75.814241 -322.831077 
L 77.212737 -323.141588 
L 78.611234 -323.452099 
L 80.00973 -324.381444 
L 81.408226 -324.902843 
L 82.806722 -325.424242 
L 84.205219 -325.945642 
L 85.603715 -326.467041 
L 87.002211 -326.990886 
L 88.400707 -327.572613 
L 89.799203 -328.154339 
L 91.1977 -328.736066 
L 92.596196 -329.317792 
L 93.994692 -329.899519 
L 95.393188 -330.395039 
L 96.791685 -330.451054 
L 98.190181 -330.439319 
L 99.588677 -330.358564 
L 100.987173 -330.207668 
L 102.38567 -333.002493 
L 103.784166 -333.062219 
L 105.182662 -333.065341 
L 106.581158 -333.010856 
L 107.979655 -332.89787 
L 109.378151 -333.292775 
L 110.776647 -333.841557 
L 112.175143 -334.38623 
L 113.57364 -334.930639 
L 114.972136 -335.474198 
L 116.370632 -336.00825 
L 117.769128 -336.529736 
L 119.167625 -337.037232 
L 120.566121 -337.544548 
L 121.964617 -337.741511 
L 123.363113 -337.886404 
L 124.761609 -337.991787 
L 126.160106 -338.036826 
L 127.558602 -339.820151 
L 128.957098 -339.676053 
L 130.355594 -339.416433 
L 131.754091 -339.041375 
L 133.152587 -338.53443 
L 134.551083 -340.425278 
L 135.949579 -340.518023 
L 137.348076 -340.590591 
L 138.746572 -340.642857 
L 140.145068 -340.657043 
L 141.543564 -340.384016 
L 142.942061 -339.952455 
L 144.340557 -339.351533 
L 145.739053 -338.682134 
L 147.137549 -336.067649 
L 148.536046 -335.526784 
L 149.934542 -334.942867 
L 151.333038 -334.3188 
L 152.731534 -335.678943 
L 154.130031 -334.57338 
L 155.528527 -333.203734 
L 156.927023 -331.740326 
L 158.325519 -330.193693 
L 159.724016 -331.56979 
L 161.122512 -329.246076 
L 162.521008 -326.780704 
L 163.919504 -317.222613 
L 165.318 -314.390237 
L 166.716497 -320.081681 
L 168.114993 -318.268422 
L 169.513489 -316.396058 
L 170.911985 -314.458646 
L 172.310482 -312.464184 
L 173.708978 -314.161795 
L 175.107474 -315.18571 
L 176.50597 -314.459032 
L 177.904467 -313.379936 
L 179.302963 -311.939863 
L 180.701459 -310.142125 
L 182.099955 -308.001292 
L 183.498452 -305.529138 
L 184.896948 -313.165102 
L 186.295444 -312.738624 
L 187.69394 -312.22435 
L 189.092437 -311.627081 
L 190.490933 -310.947694 
L 191.889429 -310.186935 
L 193.287925 -309.332866 
L 194.686422 -309.526852 
L 196.084918 -309.904142 
L 197.483414 -310.279598 
L 198.88191 -310.650914 
L 200.280406 -311.008955 
L 201.678903 -311.232311 
L 203.077399 -311.446643 
L 204.475895 -313.116871 
L 205.874391 -313.095617 
L 207.272888 -312.341345 
L 208.671384 -312.474735 
L 210.06988 -312.603739 
L 211.468376 -312.730085 
L 212.866873 -314.289598 
L 214.265369 -313.868075 
L 215.663865 -313.439856 
L 217.062361 -312.992266 
L 218.460858 -312.456065 
L 219.859354 -311.785192 
L 221.25785 -311.096374 
L 222.656346 -311.811989 
L 224.054843 -311.770063 
L 225.453339 -314.036618 
L 226.851835 -313.992736 
L 228.250331 -313.946531 
L 229.648828 -313.898836 
L 231.047324 -313.40486 
L 232.44582 -313.409652 
L 233.844316 -313.542687 
L 235.242813 -313.673702 
L 236.641309 -313.819547 
L 238.039805 -314.754814 
L 239.438301 -314.889396 
L 240.836797 -314.990173 
L 242.235294 -315.050511 
L 243.63379 -315.099479 
L 245.032286 -314.380728 
L 246.430782 -315.763792 
L 247.829279 -315.286879 
L 249.227775 -315.419973 
L 250.626271 -315.579409 
L 252.024767 -315.35343 
L 253.423264 -315.533849 
L 254.82176 -315.111363 
L 256.220256 -315.323112 
L 257.618752 -315.583425 
L 259.017249 -313.828893 
L 260.415745 -314.062323 
L 261.814241 -314.261637 
L 263.212737 -314.45438 
L 264.611234 -315.352911 
L 266.00973 -316.059181 
L 267.408226 -316.252285 
L 268.806722 -316.437588 
L 270.205219 -316.617473 
L 271.603715 -316.791182 
L 273.002211 -316.921507 
L 274.400707 -316.984595 
L 275.799203 -317.034069 
L 277.1977 -317.666614 
L 278.596196 -317.537722 
L 279.994692 -317.935051 
L 281.393188 -317.702409 
L 282.791685 -317.445109 
L 284.190181 -317.863938 
L 285.588677 -318.202024 
L 286.987173 -317.445928 
L 288.38567 -317.326218 
L 289.784166 -317.245543 
L 291.182662 -317.944171 
L 292.581158 -316.843649 
L 293.979655 -316.935423 
L 295.378151 -316.813845 
L 296.776647 -316.808216 
L 298.175143 -316.663473 
L 299.57364 -316.533571 
L 300.972136 -318.262447 
L 302.370632 -318.058225 
L 303.769128 -317.821491 
L 305.167625 -317.554932 
L 306.566121 -317.740767 
L 307.964617 -317.524967 
L 309.363113 -317.610211 
L 310.761609 -317.83814 
L 312.160106 -318.565095 
L 313.558602 -318.294101 
L 314.957098 -318.507693 
L 316.355594 -318.737509 
L 317.754091 -318.989785 
L 319.152587 -319.240902 
L 320.551083 -319.49176 
L 321.949579 -319.222788 
L 323.348076 -319.466421 
L 324.746572 -319.708747 
L 326.145068 -320.553937 
L 327.543564 -320.800156 
L 328.942061 -321.038844 
L 330.340557 -321.270012 
L 331.739053 -321.51962 
L 333.137549 -321.878154 
L 334.536046 -322.226915 
L 335.934542 -322.502403 
L 337.333038 -322.711896 
L 338.731534 -322.914252 
L 340.130031 -323.204724 
L 341.528527 -323.237122 
L 342.927023 -324.024712 
L 344.325519 -324.026186 
L 345.724016 -324.003802 
L 347.122512 -324.069259 
L 348.521008 -324.052258 
L 349.919504 -324.091734 
L 351.318 -323.666022 
L 352.716497 -322.628609 
L 354.114993 -321.560703 
L 355.513489 -320.094042 
L 356.911985 -318.624384 
L 358.310482 -317.1269 
L 359.708978 -316.867666 
L 361.107474 -317.101809 
L 362.50597 -316.781005 
L 363.904467 -316.918894 
L 365.302963 -317.533394 
L 366.701459 -317.328047 
L 368.099955 -317.193895 
L 369.498452 -317.092833 
L 370.896948 -317.52262 
L 372.295444 -317.364069 
L 373.69394 -317.471496 
L 375.092437 -317.566119 
L 376.490933 -317.654008 
L 377.889429 -318.326489 
L 379.287925 -318.490831 
L 380.686422 -318.698457 
L 382.084918 -318.858123 
L 383.483414 -319.012047 
L 384.88191 -318.759456 
L 386.280406 -318.902139 
L 387.678903 -319.003645 
L 389.077399 -319.060067 
L 390.475895 -318.541076 
L 391.874391 -319.019801 
L 393.272888 -319.036064 
L 394.671384 -319.49174 
L 396.06988 -319.477326 
L 397.468376 -319.421601 
L 398.866873 -319.413902 
L 400.265369 -319.576041 
L 401.663865 -320.176006 
L 403.062361 -320.051507 
L 404.460858 -319.580029 
L 405.859354 -319.057724 
L 407.25785 -318.610456 
L 408.656346 -318.134566 
L 410.054843 -319.115768 
L 411.453339 -319.335138 
L 412.851835 -318.698913 
L 414.250331 -318.270286 
L 415.648828 -317.551092 
L 417.047324 -316.923121 
L 418.44582 -316.924256 
L 419.844316 -317.21912 
L 421.242813 -317.276726 
L 422.641309 -317.431187 
L 424.039805 -317.089924 
L 425.438301 -317.082378 
L 426.836797 -317.072626 
L 428.235294 -316.918516 
L 429.63379 -316.607455 
L 431.032286 -316.266265 
L 432.430782 -315.410917 
L 433.829279 -315.576254 
L 435.227775 -315.886185 
L 436.626271 -315.799342 
L 438.024767 -315.431991 
L 439.423264 -314.204799 
L 440.82176 -314.03403 
L 442.220256 -313.342494 
L 443.618752 -313.434937 
L 445.017249 -313.246496 
L 446.415745 -314.013688 
L 447.814241 -313.69229 
L 449.212737 -313.368134 
L 450.611234 -313.046105 
L 452.00973 -312.757797 
L 453.408226 -313.044909 
L 454.806722 -312.813903 
L 456.205219 -312.588834 
L 457.603715 -313.489439 
L 459.002211 -313.130583 
L 460.400707 -313.682745 
L 461.799203 -313.594929 
L 463.1977 -313.36326 
L 464.596196 -312.807442 
L 465.994692 -312.636996 
L 467.393188 -312.49583 
L 468.791685 -312.0535 
L 470.190181 -312.057878 
L 471.588677 -312.261943 
L 472.987173 -312.177028 
L 474.38567 -312.087541 
L 475.784166 -311.556373 
L 477.182662 -312.042875 
L 478.581158 -311.887439 
L 479.979655 -312.500972 
L 481.378151 -312.264699 
L 482.776647 -311.516722 
L 484.175143 -311.594751 
L 485.57364 -311.384193 
L 486.972136 -311.588865 
L 488.370632 -311.458986 
L 489.769128 -311.33511 
L 491.167625 -311.489703 
L 492.566121 -311.387202 
L 493.964617 -311.750349 
L 495.363113 -311.292488 
L 496.761609 -311.207588 
L 498.160106 -311.309056 
L 499.558602 -311.407446 
L 500.957098 -311.565425 
L 502.355594 -311.107362 
L 503.754091 -311.084656 
L 505.152587 -310.82885 
L 506.551083 -310.593965 
L 507.949579 -310.334659 
L 509.348076 -311.628007 
L 510.746572 -311.395821 
L 512.145068 -311.260602 
L 513.543564 -310.460204 
L 514.942061 -309.973392 
L 516.340557 -309.38564 
L 517.739053 -308.735183 
L 519.137549 -308.906012 
L 520.536046 -308.510761 
L 521.934542 -309.342371 
L 523.333038 -309.178433 
L 524.731534 -308.262036 
L 526.130031 -308.002183 
L 527.528527 -307.119485 
L 528.927023 -307.14477 
L 530.325519 -307.416774 
L 531.724016 -307.459802 
L 533.122512 -307.035126 
L 534.521008 -306.72378 
L 535.919504 -306.991474 
L 537.318 -306.877045 
L 538.716497 -306.978781 
L 540.114993 -307.099231 
L 541.513489 -306.837696 
L 542.911985 -306.322523 
L 544.310482 -306.050678 
L 545.708978 -306.294443 
L 547.107474 -306.515775 
L 548.50597 -306.510861 
L 549.904467 -306.532326 
L 551.302963 -306.552059 
L 552.701459 -306.539335 
L 554.099955 -306.572532 
L 555.498452 -306.411233 
L 556.896948 -306.375608 
L 558.295444 -306.365355 
L 559.69394 -306.914358 
L 561.092437 -306.832578 
L 562.490933 -307.559125 
L 563.889429 -306.620593 
L 565.287925 -306.334636 
L 566.686422 -306.309263 
L 568.084918 -305.825048 
L 569.483414 -306.017563 
L 570.88191 -305.758026 
L 572.280406 -305.497519 
L 573.678903 -305.287304 
L 575.077399 -304.749618 
L 576.475895 -305.059981 
L 577.874391 -304.510084 
L 579.272888 -304.502915 
L 580.671384 -304.057863 
L 582.06988 -303.541618 
L 583.468376 -302.787024 
L 584.866873 -302.02982 
L 586.265369 -300.306707 
L 587.663865 -300.062592 
L 589.062361 -299.343263 
L 590.460858 -298.617395 
L 591.859354 -297.259171 
L 593.25785 -295.955145 
L 594.656346 -293.707539 
L 596.054843 -291.330741 
L 597.453339 -288.988666 
L 598.851835 -285.967295 
L 600.250331 -283.592352 
L 601.648828 -278.41643 
L 603.047324 -273.82968 
L 604.44582 -268.468499 
L 605.844316 -262.244089 
L 607.242813 -236.015529 
L 607.242813 -328.610747 
L 607.242813 -328.610747 
L 605.844316 -324.825789 
L 604.44582 -334.703112 
L 603.047324 -345.443661 
L 601.648828 -356.4143 
L 600.250331 -364.959489 
L 598.851835 -368.430048 
L 597.453339 -371.106833 
L 596.054843 -373.429444 
L 594.656346 -374.13482 
L 593.25785 -376.489218 
L 591.859354 -377.257627 
L 590.460858 -379.374425 
L 589.062361 -383.782296 
L 587.663865 -385.828458 
L 586.265369 -386.475461 
L 584.866873 -388.456304 
L 583.468376 -391.428888 
L 582.06988 -394.035132 
L 580.671384 -396.669165 
L 579.272888 -398.569502 
L 577.874391 -399.604425 
L 576.475895 -400.973002 
L 575.077399 -401.443401 
L 573.678903 -401.790585 
L 572.280406 -402.010866 
L 570.88191 -402.220294 
L 569.483414 -402.431487 
L 568.084918 -402.373636 
L 566.686422 -402.792436 
L 565.287925 -402.716606 
L 563.889429 -402.855376 
L 562.490933 -403.025167 
L 561.092437 -403.330123 
L 559.69394 -403.654987 
L 558.295444 -403.665773 
L 556.896948 -403.986329 
L 555.498452 -404.363901 
L 554.099955 -404.085045 
L 552.701459 -404.497772 
L 551.302963 -403.813185 
L 549.904467 -404.335356 
L 548.50597 -404.698999 
L 547.107474 -405.059549 
L 545.708978 -406.417463 
L 544.310482 -406.490295 
L 542.911985 -406.711007 
L 541.513489 -407.113776 
L 540.114993 -407.353244 
L 538.716497 -407.741517 
L 537.318 -407.709844 
L 535.919504 -407.346794 
L 534.521008 -407.279249 
L 533.122512 -407.741138 
L 531.724016 -407.801287 
L 530.325519 -408.015316 
L 528.927023 -407.867954 
L 527.528527 -407.927551 
L 526.130031 -408.602437 
L 524.731534 -408.711466 
L 523.333038 -408.490593 
L 521.934542 -408.532006 
L 520.536046 -408.784515 
L 519.137549 -409.417723 
L 517.739053 -410.139902 
L 516.340557 -410.669739 
L 514.942061 -411.368558 
L 513.543564 -411.562173 
L 512.145068 -411.244122 
L 510.746572 -411.72849 
L 509.348076 -412.194972 
L 507.949579 -412.803312 
L 506.551083 -413.900736 
L 505.152587 -414.211276 
L 503.754091 -414.366733 
L 502.355594 -414.246666 
L 500.957098 -414.203507 
L 499.558602 -415.987375 
L 498.160106 -416.27518 
L 496.761609 -416.566087 
L 495.363113 -416.692018 
L 493.964617 -416.007342 
L 492.566121 -415.999243 
L 491.167625 -416.235228 
L 489.769128 -416.174514 
L 488.370632 -416.4256 
L 486.972136 -416.591401 
L 485.57364 -416.800692 
L 484.175143 -416.85344 
L 482.776647 -416.550685 
L 481.378151 -416.317882 
L 479.979655 -416.333194 
L 478.581158 -416.676907 
L 477.182662 -416.727524 
L 475.784166 -416.481962 
L 474.38567 -416.602431 
L 472.987173 -416.780611 
L 471.588677 -416.961598 
L 470.190181 -416.194151 
L 468.791685 -416.317805 
L 467.393188 -416.369492 
L 465.994692 -416.489898 
L 464.596196 -416.618393 
L 463.1977 -416.406642 
L 461.799203 -416.39546 
L 460.400707 -416.120074 
L 459.002211 -416.273564 
L 457.603715 -416.439862 
L 456.205219 -416.772788 
L 454.806722 -416.836445 
L 453.408226 -416.240553 
L 452.00973 -416.35235 
L 450.611234 -416.567925 
L 449.212737 -416.844458 
L 447.814241 -417.030893 
L 446.415745 -417.146854 
L 445.017249 -416.719769 
L 443.618752 -416.760011 
L 442.220256 -416.652882 
L 440.82176 -416.60357 
L 439.423264 -416.829561 
L 438.024767 -417.012125 
L 436.626271 -417.192748 
L 435.227775 -417.048419 
L 433.829279 -417.042113 
L 432.430782 -416.902905 
L 431.032286 -418.040635 
L 429.63379 -418.495447 
L 428.235294 -418.979633 
L 426.836797 -419.345114 
L 425.438301 -418.790753 
L 424.039805 -419.05645 
L 422.641309 -419.387699 
L 421.242813 -419.653463 
L 419.844316 -419.754366 
L 418.44582 -419.474821 
L 417.047324 -419.672327 
L 415.648828 -420.627502 
L 414.250331 -421.310951 
L 412.851835 -421.716854 
L 411.453339 -422.689601 
L 410.054843 -423.096849 
L 408.656346 -423.178576 
L 407.25785 -423.774627 
L 405.859354 -424.280347 
L 404.460858 -425.245476 
L 403.062361 -426.258988 
L 401.663865 -426.931439 
L 400.265369 -427.587404 
L 398.866873 -426.609096 
L 397.468376 -427.081494 
L 396.06988 -427.564874 
L 394.671384 -427.999739 
L 393.272888 -428.169069 
L 391.874391 -428.289569 
L 390.475895 -428.223117 
L 389.077399 -429.293213 
L 387.678903 -429.465668 
L 386.280406 -429.666606 
L 384.88191 -429.995018 
L 383.483414 -430.475312 
L 382.084918 -430.475312 
L 380.686422 -430.475312 
L 379.287925 -430.475312 
L 377.889429 -430.475312 
L 376.490933 -430.475312 
L 375.092437 -430.475312 
L 373.69394 -430.475312 
L 372.295444 -430.475312 
L 370.896948 -430.475312 
L 369.498452 -430.475312 
L 368.099955 -430.475312 
L 366.701459 -430.475312 
L 365.302963 -430.475312 
L 363.904467 -430.475312 
L 362.50597 -430.475312 
L 361.107474 -430.475312 
L 359.708978 -430.475312 
L 358.310482 -430.475312 
L 356.911985 -430.475312 
L 355.513489 -430.475312 
L 354.114993 -430.475312 
L 352.716497 -430.475312 
L 351.318 -430.475312 
L 349.919504 -430.475312 
L 348.521008 -430.475312 
L 347.122512 -430.475312 
L 345.724016 -430.475312 
L 344.325519 -430.475312 
L 342.927023 -430.475312 
L 341.528527 -430.475312 
L 340.130031 -430.475312 
L 338.731534 -430.475312 
L 337.333038 -430.475312 
L 335.934542 -430.475312 
L 334.536046 -430.475312 
L 333.137549 -430.475312 
L 331.739053 -430.475312 
L 330.340557 -430.475312 
L 328.942061 -430.475312 
L 327.543564 -430.475312 
L 326.145068 -430.475312 
L 324.746572 -430.475312 
L 323.348076 -430.475312 
L 321.949579 -430.475312 
L 320.551083 -430.475312 
L 319.152587 -430.475312 
L 317.754091 -430.475312 
L 316.355594 -430.475312 
L 314.957098 -430.475312 
L 313.558602 -430.475312 
L 312.160106 -430.475312 
L 310.761609 -430.475312 
L 309.363113 -430.475312 
L 307.964617 -430.475312 
L 306.566121 -430.475312 
L 305.167625 -430.475312 
L 303.769128 -430.475312 
L 302.370632 -430.475312 
L 300.972136 -430.475312 
L 299.57364 -430.475312 
L 298.175143 -430.475312 
L 296.776647 -430.475312 
L 295.378151 -430.475312 
L 293.979655 -430.475312 
L 292.581158 -430.475312 
L 291.182662 -430.475312 
L 289.784166 -430.475312 
L 288.38567 -430.475312 
L 286.987173 -430.475312 
L 285.588677 -430.475312 
L 284.190181 -430.475312 
L 282.791685 -430.475312 
L 281.393188 -430.475312 
L 279.994692 -430.475312 
L 278.596196 -430.475312 
L 277.1977 -430.475312 
L 275.799203 -430.475312 
L 274.400707 -430.475312 
L 273.002211 -430.475312 
L 271.603715 -430.475312 
L 270.205219 -430.475312 
L 268.806722 -430.475312 
L 267.408226 -430.475312 
L 266.00973 -430.475312 
L 264.611234 -430.475312 
L 263.212737 -430.475312 
L 261.814241 -430.475312 
L 260.415745 -430.475312 
L 259.017249 -430.475312 
L 257.618752 -430.475312 
L 256.220256 -430.475312 
L 254.82176 -430.475312 
L 253.423264 -430.475312 
L 252.024767 -430.475312 
L 250.626271 -430.475312 
L 249.227775 -430.475312 
L 247.829279 -430.475312 
L 246.430782 -430.475312 
L 245.032286 -430.475312 
L 243.63379 -430.475312 
L 242.235294 -430.475312 
L 240.836797 -430.475312 
L 239.438301 -430.475312 
L 238.039805 -430.475312 
L 236.641309 -430.475312 
L 235.242813 -430.475312 
L 233.844316 -430.475312 
L 232.44582 -430.475312 
L 231.047324 -430.475312 
L 229.648828 -430.475312 
L 228.250331 -430.475312 
L 226.851835 -430.475312 
L 225.453339 -430.475312 
L 224.054843 -430.475312 
L 222.656346 -430.475312 
L 221.25785 -430.475312 
L 219.859354 -430.475312 
L 218.460858 -430.475312 
L 217.062361 -430.475312 
L 215.663865 -430.475312 
L 214.265369 -430.475312 
L 212.866873 -430.475312 
L 211.468376 -430.475312 
L 210.06988 -430.475312 
L 208.671384 -430.475312 
L 207.272888 -430.475312 
L 205.874391 -430.475312 
L 204.475895 -430.475312 
L 203.077399 -430.475312 
L 201.678903 -430.475312 
L 200.280406 -430.475312 
L 198.88191 -430.475312 
L 197.483414 -430.475312 
L 196.084918 -430.475312 
L 194.686422 -430.475312 
L 193.287925 -430.475312 
L 191.889429 -430.475312 
L 190.490933 -430.475312 
L 189.092437 -430.475312 
L 187.69394 -430.475312 
L 186.295444 -430.475312 
L 184.896948 -430.475312 
L 183.498452 -430.475312 
L 182.099955 -430.475312 
L 180.701459 -430.475312 
L 179.302963 -430.475312 
L 177.904467 -430.475312 
L 176.50597 -430.475312 
L 175.107474 -430.475312 
L 173.708978 -430.475312 
L 172.310482 -430.475312 
L 170.911985 -430.475312 
L 169.513489 -430.475312 
L 168.114993 -430.475312 
L 166.716497 -430.475312 
L 165.318 -430.475312 
L 163.919504 -430.475312 
L 162.521008 -430.475312 
L 161.122512 -430.475312 
L 159.724016 -430.475312 
L 158.325519 -430.475312 
L 156.927023 -430.475312 
L 155.528527 -430.475312 
L 154.130031 -430.475312 
L 152.731534 -430.475312 
L 151.333038 -430.475312 
L 149.934542 -430.475312 
L 148.536046 -430.475312 
L 147.137549 -430.475312 
L 145.739053 -430.475312 
L 144.340557 -430.475312 
L 142.942061 -430.475312 
L 141.543564 -430.475312 
L 140.145068 -430.475312 
L 138.746572 -430.475312 
L 137.348076 -430.475312 
L 135.949579 -430.475312 
L 134.551083 -430.475312 
L 133.152587 -430.475312 
L 131.754091 -430.475312 
L 130.355594 -430.475312 
L 128.957098 -430.475312 
L 127.558602 -430.475312 
L 126.160106 -430.475312 
L 124.761609 -430.475312 
L 123.363113 -430.475312 
L 121.964617 -430.475312 
L 120.566121 -430.475312 
L 119.167625 -430.475312 
L 117.769128 -430.475312 
L 116.370632 -430.475312 
L 114.972136 -430.475312 
L 113.57364 -430.475312 
L 112.175143 -430.475312 
L 110.776647 -430.475312 
L 109.378151 -430.475312 
L 107.979655 -430.475312 
L 106.581158 -430.475312 
L 105.182662 -430.475312 
L 103.784166 -430.475312 
L 102.38567 -430.475312 
L 100.987173 -430.475312 
L 99.588677 -430.475312 
L 98.190181 -430.475312 
L 96.791685 -430.475312 
L 95.393188 -430.475312 
L 93.994692 -430.475312 
L 92.596196 -430.475312 
L 91.1977 -430.475312 
L 89.799203 -430.475312 
L 88.400707 -430.475312 
L 87.002211 -430.475312 
L 85.603715 -430.475312 
L 84.205219 -430.475312 
L 82.806722 -430.475312 
L 81.408226 -430.475312 
L 80.00973 -430.475312 
L 78.611234 -430.475312 
L 77.212737 -430.475312 
L 75.814241 -430.475312 
L 74.415745 -430.475312 
L 73.017249 -430.475312 
L 71.618752 -430.475312 
L 70.220256 -430.475312 
L 68.82176 -430.475312 
L 67.423264 -430.475312 
L 66.024767 -430.475312 
L 64.626271 -430.475312 
L 63.227775 -430.475312 
L 61.829279 -430.475312 
L 60.430782 -430.475312 
L 59.032286 -430.475312 
L 57.63379 -430.475312 
L 56.235294 -430.475312 
L 54.836797 -430.475312 
L 53.438301 -430.475312 
L 52.039805 -430.475312 
L 50.641309 -430.475312 
L 49.242813 -430.475312 
z
" style="stroke: #1f77b4; stroke-opacity: 0.15"/>
    </defs>
    <g clip-path="url(#pda103a0d88)">
     <use xlink:href="#m0472fc090c" x="0" y="457.3525" style="fill: #1f77b4; fill-opacity: 0.15; stroke: #1f77b4; stroke-opacity: 0.15"/>
    </g>
   </g>
   <g id="matplotlib.axis_1">
    <g id="xtick_1">
     <g id="line2d_1">
      <path d="M 49.242813 414.957187 
L 49.242813 26.877187 
" clip-path="url(#pda103a0d88)" style="fill: none; stroke: #b0b0b0; stroke-opacity: 0.25; stroke-width: 0.8; stroke-linecap: square"/>
     </g>
     <g id="line2d_2">
      <defs>
       <path id="m6b73ec7044" d="M 0 0 
L 0 3.5 
" style="stroke: #000000; stroke-width: 0.8"/>
      </defs>
      <g>
       <use xlink:href="#m6b73ec7044" x="49.242813" y="414.957187" style="stroke: #000000; stroke-width: 0.8"/>
      </g>
     </g>
     <g id="text_1">
      <!-- 0.0 -->
      <g transform="translate(40.496094 430.315469) scale(0.11 -0.11)">
       <defs>
        <path id="DejaVuSans-30" d="M 2034 4250 
Q 1547 4250 1301 3770 
Q 1056 3291 1056 2328 
Q 1056 1369 1301 889 
Q 1547 409 2034 409 
Q 2525 409 2770 889 
Q 3016 1369 3016 2328 
Q 3016 3291 2770 3770 
Q 2525 4250 2034 4250 
z
M 2034 4750 
Q 2819 4750 3233 4129 
Q 3647 3509 3647 2328 
Q 3647 1150 3233 529 
Q 2819 -91 2034 -91 
Q 1250 -91 836 529 
Q 422 1150 422 2328 
Q 422 3509 836 4129 
Q 1250 4750 2034 4750 
z
" transform="scale(0.015625)"/>
        <path id="DejaVuSans-2e" d="M 684 794 
L 1344 794 
L 1344 0 
L 684 0 
L 684 794 
z
" transform="scale(0.015625)"/>
       </defs>
       <use xlink:href="#DejaVuSans-30"/>
       <use xlink:href="#DejaVuSans-2e" transform="translate(63.623047 0)"/>
       <use xlink:href="#DejaVuSans-30" transform="translate(95.410156 0)"/>
      </g>
     </g>
    </g>
    <g id="xtick_2">
     <g id="line2d_3">
      <path d="M 160.842813 414.957187 
L 160.842813 26.877187 
" clip-path="url(#pda103a0d88)" style="fill: none; stroke: #b0b0b0; stroke-opacity: 0.25; stroke-width: 0.8; stroke-linecap: square"/>
     </g>
     <g id="line2d_4">
      <g>
       <use xlink:href="#m6b73ec7044" x="160.842813" y="414.957187" style="stroke: #000000; stroke-width: 0.8"/>
      </g>
     </g>
     <g id="text_2">
      <!-- 0.2 -->
      <g transform="translate(152.096094 430.315469) scale(0.11 -0.11)">
       <defs>
        <path id="DejaVuSans-32" d="M 1228 531 
L 3431 531 
L 3431 0 
L 469 0 
L 469 531 
Q 828 903 1448 1529 
Q 2069 2156 2228 2338 
Q 2531 2678 2651 2914 
Q 2772 3150 2772 3378 
Q 2772 3750 2511 3984 
Q 2250 4219 1831 4219 
Q 1534 4219 1204 4116 
Q 875 4013 500 3803 
L 500 4441 
Q 881 4594 1212 4672 
Q 1544 4750 1819 4750 
Q 2544 4750 2975 4387 
Q 3406 4025 3406 3419 
Q 3406 3131 3298 2873 
Q 3191 2616 2906 2266 
Q 2828 2175 2409 1742 
Q 1991 1309 1228 531 
z
" transform="scale(0.015625)"/>
       </defs>
       <use xlink:href="#DejaVuSans-30"/>
       <use xlink:href="#DejaVuSans-2e" transform="translate(63.623047 0)"/>
       <use xlink:href="#DejaVuSans-32" transform="translate(95.410156 0)"/>
      </g>
     </g>
    </g>
    <g id="xtick_3">
     <g id="line2d_5">
      <path d="M 272.442813 414.957187 
L 272.442813 26.877187 
" clip-path="url(#pda103a0d88)" style="fill: none; stroke: #b0b0b0; stroke-opacity: 0.25; stroke-width: 0.8; stroke-linecap: square"/>
     </g>
     <g id="line2d_6">
      <g>
       <use xlink:href="#m6b73ec7044" x="272.442813" y="414.957187" style="stroke: #000000; stroke-width: 0.8"/>
      </g>
     </g>
     <g id="text_3">
      <!-- 0.4 -->
      <g transform="translate(263.696094 430.315469) scale(0.11 -0.11)">
       <defs>
        <path id="DejaVuSans-34" d="M 2419 4116 
L 825 1625 
L 2419 1625 
L 2419 4116 
z
M 2253 4666 
L 3047 4666 
L 3047 1625 
L 3713 1625 
L 3713 1100 
L 3047 1100 
L 3047 0 
L 2419 0 
L 2419 1100 
L 313 1100 
L 313 1709 
L 2253 4666 
z
" transform="scale(0.015625)"/>
       </defs>
       <use xlink:href="#DejaVuSans-30"/>
       <use xlink:href="#DejaVuSans-2e" transform="translate(63.623047 0)"/>
       <use xlink:href="#DejaVuSans-34" transform="translate(95.410156 0)"/>
      </g>
     </g>
    </g>
    <g id="xtick_4">
     <g id="line2d_7">
      <path d="M 384.042813 414.957187 
L 384.042813 26.877187 
" clip-path="url(#pda103a0d88)" style="fill: none; stroke: #b0b0b0; stroke-opacity: 0.25; stroke-width: 0.8; stroke-linecap: square"/>
     </g>
     <g id="line2d_8">
      <g>
       <use xlink:href="#m6b73ec7044" x="384.042813" y="414.957187" style="stroke: #000000; stroke-width: 0.8"/>
      </g>
     </g>
     <g id="text_4">
      <!-- 0.6 -->
      <g transform="translate(375.296094 430.315469) scale(0.11 -0.11)">
       <defs>
        <path id="DejaVuSans-36" d="M 2113 2584 
Q 1688 2584 1439 2293 
Q 1191 2003 1191 1497 
Q 1191 994 1439 701 
Q 1688 409 2113 409 
Q 2538 409 2786 701 
Q 3034 994 3034 1497 
Q 3034 2003 2786 2293 
Q 2538 2584 2113 2584 
z
M 3366 4563 
L 3366 3988 
Q 3128 4100 2886 4159 
Q 2644 4219 2406 4219 
Q 1781 4219 1451 3797 
Q 1122 3375 1075 2522 
Q 1259 2794 1537 2939 
Q 1816 3084 2150 3084 
Q 2853 3084 3261 2657 
Q 3669 2231 3669 1497 
Q 3669 778 3244 343 
Q 2819 -91 2113 -91 
Q 1303 -91 875 529 
Q 447 1150 447 2328 
Q 447 3434 972 4092 
Q 1497 4750 2381 4750 
Q 2619 4750 2861 4703 
Q 3103 4656 3366 4563 
z
" transform="scale(0.015625)"/>
       </defs>
       <use xlink:href="#DejaVuSans-30"/>
       <use xlink:href="#DejaVuSans-2e" transform="translate(63.623047 0)"/>
       <use xlink:href="#DejaVuSans-36" transform="translate(95.410156 0)"/>
      </g>
     </g>
    </g>
    <g id="xtick_5">
     <g id="line2d_9">
      <path d="M 495.642813 414.957187 
L 495.642813 26.877187 
" clip-path="url(#pda103a0d88)" style="fill: none; stroke: #b0b0b0; stroke-opacity: 0.25; stroke-width: 0.8; stroke-linecap: square"/>
     </g>
     <g id="line2d_10">
      <g>
       <use xlink:href="#m6b73ec7044" x="495.642813" y="414.957187" style="stroke: #000000; stroke-width: 0.8"/>
      </g>
     </g>
     <g id="text_5">
      <!-- 0.8 -->
      <g transform="translate(486.896094 430.315469) scale(0.11 -0.11)">
       <defs>
        <path id="DejaVuSans-38" d="M 2034 2216 
Q 1584 2216 1326 1975 
Q 1069 1734 1069 1313 
Q 1069 891 1326 650 
Q 1584 409 2034 409 
Q 2484 409 2743 651 
Q 3003 894 3003 1313 
Q 3003 1734 2745 1975 
Q 2488 2216 2034 2216 
z
M 1403 2484 
Q 997 2584 770 2862 
Q 544 3141 544 3541 
Q 544 4100 942 4425 
Q 1341 4750 2034 4750 
Q 2731 4750 3128 4425 
Q 3525 4100 3525 3541 
Q 3525 3141 3298 2862 
Q 3072 2584 2669 2484 
Q 3125 2378 3379 2068 
Q 3634 1759 3634 1313 
Q 3634 634 3220 271 
Q 2806 -91 2034 -91 
Q 1263 -91 848 271 
Q 434 634 434 1313 
Q 434 1759 690 2068 
Q 947 2378 1403 2484 
z
M 1172 3481 
Q 1172 3119 1398 2916 
Q 1625 2713 2034 2713 
Q 2441 2713 2670 2916 
Q 2900 3119 2900 3481 
Q 2900 3844 2670 4047 
Q 2441 4250 2034 4250 
Q 1625 4250 1398 4047 
Q 1172 3844 1172 3481 
z
" transform="scale(0.015625)"/>
       </defs>
       <use xlink:href="#DejaVuSans-30"/>
       <use xlink:href="#DejaVuSans-2e" transform="translate(63.623047 0)"/>
       <use xlink:href="#DejaVuSans-38" transform="translate(95.410156 0)"/>
      </g>
     </g>
    </g>
    <g id="xtick_6">
     <g id="line2d_11">
      <path d="M 607.242813 414.957187 
L 607.242813 26.877187 
" clip-path="url(#pda103a0d88)" style="fill: none; stroke: #b0b0b0; stroke-opacity: 0.25; stroke-width: 0.8; stroke-linecap: square"/>
     </g>
     <g id="line2d_12">
      <g>
       <use xlink:href="#m6b73ec7044" x="607.242813" y="414.957187" style="stroke: #000000; stroke-width: 0.8"/>
      </g>
     </g>
     <g id="text_6">
      <!-- 1.0 -->
      <g transform="translate(598.496094 430.315469) scale(0.11 -0.11)">
       <defs>
        <path id="DejaVuSans-31" d="M 794 531 
L 1825 531 
L 1825 4091 
L 703 3866 
L 703 4441 
L 1819 4666 
L 2450 4666 
L 2450 531 
L 3481 531 
L 3481 0 
L 794 0 
L 794 531 
z
" transform="scale(0.015625)"/>
       </defs>
       <use xlink:href="#DejaVuSans-31"/>
       <use xlink:href="#DejaVuSans-2e" transform="translate(63.623047 0)"/>
       <use xlink:href="#DejaVuSans-30" transform="translate(95.410156 0)"/>
      </g>
     </g>
    </g>
    <g id="text_7">
     <!-- Recall -->
     <g transform="translate(307.35875 447.240937) scale(0.14 -0.14)">
      <defs>
       <path id="DejaVuSans-52" d="M 2841 2188 
Q 3044 2119 3236 1894 
Q 3428 1669 3622 1275 
L 4263 0 
L 3584 0 
L 2988 1197 
Q 2756 1666 2539 1819 
Q 2322 1972 1947 1972 
L 1259 1972 
L 1259 0 
L 628 0 
L 628 4666 
L 2053 4666 
Q 2853 4666 3247 4331 
Q 3641 3997 3641 3322 
Q 3641 2881 3436 2590 
Q 3231 2300 2841 2188 
z
M 1259 4147 
L 1259 2491 
L 2053 2491 
Q 2509 2491 2742 2702 
Q 2975 2913 2975 3322 
Q 2975 3731 2742 3939 
Q 2509 4147 2053 4147 
L 1259 4147 
z
" transform="scale(0.015625)"/>
       <path id="DejaVuSans-65" d="M 3597 1894 
L 3597 1613 
L 953 1613 
Q 991 1019 1311 708 
Q 1631 397 2203 397 
Q 2534 397 2845 478 
Q 3156 559 3463 722 
L 3463 178 
Q 3153 47 2828 -22 
Q 2503 -91 2169 -91 
Q 1331 -91 842 396 
Q 353 884 353 1716 
Q 353 2575 817 3079 
Q 1281 3584 2069 3584 
Q 2775 3584 3186 3129 
Q 3597 2675 3597 1894 
z
M 3022 2063 
Q 3016 2534 2758 2815 
Q 2500 3097 2075 3097 
Q 1594 3097 1305 2825 
Q 1016 2553 972 2059 
L 3022 2063 
z
" transform="scale(0.015625)"/>
       <path id="DejaVuSans-63" d="M 3122 3366 
L 3122 2828 
Q 2878 2963 2633 3030 
Q 2388 3097 2138 3097 
Q 1578 3097 1268 2742 
Q 959 2388 959 1747 
Q 959 1106 1268 751 
Q 1578 397 2138 397 
Q 2388 397 2633 464 
Q 2878 531 3122 666 
L 3122 134 
Q 2881 22 2623 -34 
Q 2366 -91 2075 -91 
Q 1284 -91 818 406 
Q 353 903 353 1747 
Q 353 2603 823 3093 
Q 1294 3584 2113 3584 
Q 2378 3584 2631 3529 
Q 2884 3475 3122 3366 
z
" transform="scale(0.015625)"/>
       <path id="DejaVuSans-61" d="M 2194 1759 
Q 1497 1759 1228 1600 
Q 959 1441 959 1056 
Q 959 750 1161 570 
Q 1363 391 1709 391 
Q 2188 391 2477 730 
Q 2766 1069 2766 1631 
L 2766 1759 
L 2194 1759 
z
M 3341 1997 
L 3341 0 
L 2766 0 
L 2766 531 
Q 2569 213 2275 61 
Q 1981 -91 1556 -91 
Q 1019 -91 701 211 
Q 384 513 384 1019 
Q 384 1609 779 1909 
Q 1175 2209 1959 2209 
L 2766 2209 
L 2766 2266 
Q 2766 2663 2505 2880 
Q 2244 3097 1772 3097 
Q 1472 3097 1187 3025 
Q 903 2953 641 2809 
L 641 3341 
Q 956 3463 1253 3523 
Q 1550 3584 1831 3584 
Q 2591 3584 2966 3190 
Q 3341 2797 3341 1997 
z
" transform="scale(0.015625)"/>
       <path id="DejaVuSans-6c" d="M 603 4863 
L 1178 4863 
L 1178 0 
L 603 0 
L 603 4863 
z
" transform="scale(0.015625)"/>
      </defs>
      <use xlink:href="#DejaVuSans-52"/>
      <use xlink:href="#DejaVuSans-65" transform="translate(64.982422 0)"/>
      <use xlink:href="#DejaVuSans-63" transform="translate(126.505859 0)"/>
      <use xlink:href="#DejaVuSans-61" transform="translate(181.486328 0)"/>
      <use xlink:href="#DejaVuSans-6c" transform="translate(242.765625 0)"/>
      <use xlink:href="#DejaVuSans-6c" transform="translate(270.548828 0)"/>
     </g>
    </g>
   </g>
   <g id="matplotlib.axis_2">
    <g id="ytick_1">
     <g id="line2d_13">
      <path d="M 49.242813 414.957187 
L 607.242813 414.957187 
" clip-path="url(#pda103a0d88)" style="fill: none; stroke: #b0b0b0; stroke-opacity: 0.25; stroke-width: 0.8; stroke-linecap: square"/>
     </g>
     <g id="line2d_14">
      <defs>
       <path id="mdf530ab29c" d="M 0 0 
L -3.5 0 
" style="stroke: #000000; stroke-width: 0.8"/>
      </defs>
      <g>
       <use xlink:href="#mdf530ab29c" x="49.242813" y="414.957187" style="stroke: #000000; stroke-width: 0.8"/>
      </g>
     </g>
     <g id="text_8">
      <!-- 0.0 -->
      <g transform="translate(24.749375 419.136328) scale(0.11 -0.11)">
       <use xlink:href="#DejaVuSans-30"/>
       <use xlink:href="#DejaVuSans-2e" transform="translate(63.623047 0)"/>
       <use xlink:href="#DejaVuSans-30" transform="translate(95.410156 0)"/>
      </g>
     </g>
    </g>
    <g id="ytick_2">
     <g id="line2d_15">
      <path d="M 49.242813 337.341187 
L 607.242813 337.341187 
" clip-path="url(#pda103a0d88)" style="fill: none; stroke: #b0b0b0; stroke-opacity: 0.25; stroke-width: 0.8; stroke-linecap: square"/>
     </g>
     <g id="line2d_16">
      <g>
       <use xlink:href="#mdf530ab29c" x="49.242813" y="337.341187" style="stroke: #000000; stroke-width: 0.8"/>
      </g>
     </g>
     <g id="text_9">
      <!-- 0.2 -->
      <g transform="translate(24.749375 341.520328) scale(0.11 -0.11)">
       <use xlink:href="#DejaVuSans-30"/>
       <use xlink:href="#DejaVuSans-2e" transform="translate(63.623047 0)"/>
       <use xlink:href="#DejaVuSans-32" transform="translate(95.410156 0)"/>
      </g>
     </g>
    </g>
    <g id="ytick_3">
     <g id="line2d_17">
      <path d="M 49.242813 259.725187 
L 607.242813 259.725187 
" clip-path="url(#pda103a0d88)" style="fill: none; stroke: #b0b0b0; stroke-opacity: 0.25; stroke-width: 0.8; stroke-linecap: square"/>
     </g>
     <g id="line2d_18">
      <g>
       <use xlink:href="#mdf530ab29c" x="49.242813" y="259.725187" style="stroke: #000000; stroke-width: 0.8"/>
      </g>
     </g>
     <g id="text_10">
      <!-- 0.4 -->
      <g transform="translate(24.749375 263.904328) scale(0.11 -0.11)">
       <use xlink:href="#DejaVuSans-30"/>
       <use xlink:href="#DejaVuSans-2e" transform="translate(63.623047 0)"/>
       <use xlink:href="#DejaVuSans-34" transform="translate(95.410156 0)"/>
      </g>
     </g>
    </g>
    <g id="ytick_4">
     <g id="line2d_19">
      <path d="M 49.242813 182.109187 
L 607.242813 182.109187 
" clip-path="url(#pda103a0d88)" style="fill: none; stroke: #b0b0b0; stroke-opacity: 0.25; stroke-width: 0.8; stroke-linecap: square"/>
     </g>
     <g id="line2d_20">
      <g>
       <use xlink:href="#mdf530ab29c" x="49.242813" y="182.109187" style="stroke: #000000; stroke-width: 0.8"/>
      </g>
     </g>
     <g id="text_11">
      <!-- 0.6 -->
      <g transform="translate(24.749375 186.288328) scale(0.11 -0.11)">
       <use xlink:href="#DejaVuSans-30"/>
       <use xlink:href="#DejaVuSans-2e" transform="translate(63.623047 0)"/>
       <use xlink:href="#DejaVuSans-36" transform="translate(95.410156 0)"/>
      </g>
     </g>
    </g>
    <g id="ytick_5">
     <g id="line2d_21">
      <path d="M 49.242813 104.493187 
L 607.242813 104.493187 
" clip-path="url(#pda103a0d88)" style="fill: none; stroke: #b0b0b0; stroke-opacity: 0.25; stroke-width: 0.8; stroke-linecap: square"/>
     </g>
     <g id="line2d_22">
      <g>
       <use xlink:href="#mdf530ab29c" x="49.242813" y="104.493187" style="stroke: #000000; stroke-width: 0.8"/>
      </g>
     </g>
     <g id="text_12">
      <!-- 0.8 -->
      <g transform="translate(24.749375 108.672328) scale(0.11 -0.11)">
       <use xlink:href="#DejaVuSans-30"/>
       <use xlink:href="#DejaVuSans-2e" transform="translate(63.623047 0)"/>
       <use xlink:href="#DejaVuSans-38" transform="translate(95.410156 0)"/>
      </g>
     </g>
    </g>
    <g id="ytick_6">
     <g id="line2d_23">
      <path d="M 49.242813 26.877187 
L 607.242813 26.877187 
" clip-path="url(#pda103a0d88)" style="fill: none; stroke: #b0b0b0; stroke-opacity: 0.25; stroke-width: 0.8; stroke-linecap: square"/>
     </g>
     <g id="line2d_24">
      <g>
       <use xlink:href="#mdf530ab29c" x="49.242813" y="26.877187" style="stroke: #000000; stroke-width: 0.8"/>
      </g>
     </g>
     <g id="text_13">
      <!-- 1.0 -->
      <g transform="translate(24.749375 31.056328) scale(0.11 -0.11)">
       <use xlink:href="#DejaVuSans-31"/>
       <use xlink:href="#DejaVuSans-2e" transform="translate(63.623047 0)"/>
       <use xlink:href="#DejaVuSans-30" transform="translate(95.410156 0)"/>
      </g>
     </g>
    </g>
    <g id="text_14">
     <!-- Precision -->
     <g transform="translate(17.837813 252.147031) rotate(-90) scale(0.14 -0.14)">
      <defs>
       <path id="DejaVuSans-50" d="M 1259 4147 
L 1259 2394 
L 2053 2394 
Q 2494 2394 2734 2622 
Q 2975 2850 2975 3272 
Q 2975 3691 2734 3919 
Q 2494 4147 2053 4147 
L 1259 4147 
z
M 628 4666 
L 2053 4666 
Q 2838 4666 3239 4311 
Q 3641 3956 3641 3272 
Q 3641 2581 3239 2228 
Q 2838 1875 2053 1875 
L 1259 1875 
L 1259 0 
L 628 0 
L 628 4666 
z
" transform="scale(0.015625)"/>
       <path id="DejaVuSans-72" d="M 2631 2963 
Q 2534 3019 2420 3045 
Q 2306 3072 2169 3072 
Q 1681 3072 1420 2755 
Q 1159 2438 1159 1844 
L 1159 0 
L 581 0 
L 581 3500 
L 1159 3500 
L 1159 2956 
Q 1341 3275 1631 3429 
Q 1922 3584 2338 3584 
Q 2397 3584 2469 3576 
Q 2541 3569 2628 3553 
L 2631 2963 
z
" transform="scale(0.015625)"/>
       <path id="DejaVuSans-69" d="M 603 3500 
L 1178 3500 
L 1178 0 
L 603 0 
L 603 3500 
z
M 603 4863 
L 1178 4863 
L 1178 4134 
L 603 4134 
L 603 4863 
z
" transform="scale(0.015625)"/>
       <path id="DejaVuSans-73" d="M 2834 3397 
L 2834 2853 
Q 2591 2978 2328 3040 
Q 2066 3103 1784 3103 
Q 1356 3103 1142 2972 
Q 928 2841 928 2578 
Q 928 2378 1081 2264 
Q 1234 2150 1697 2047 
L 1894 2003 
Q 2506 1872 2764 1633 
Q 3022 1394 3022 966 
Q 3022 478 2636 193 
Q 2250 -91 1575 -91 
Q 1294 -91 989 -36 
Q 684 19 347 128 
L 347 722 
Q 666 556 975 473 
Q 1284 391 1588 391 
Q 1994 391 2212 530 
Q 2431 669 2431 922 
Q 2431 1156 2273 1281 
Q 2116 1406 1581 1522 
L 1381 1569 
Q 847 1681 609 1914 
Q 372 2147 372 2553 
Q 372 3047 722 3315 
Q 1072 3584 1716 3584 
Q 2034 3584 2315 3537 
Q 2597 3491 2834 3397 
z
" transform="scale(0.015625)"/>
       <path id="DejaVuSans-6f" d="M 1959 3097 
Q 1497 3097 1228 2736 
Q 959 2375 959 1747 
Q 959 1119 1226 758 
Q 1494 397 1959 397 
Q 2419 397 2687 759 
Q 2956 1122 2956 1747 
Q 2956 2369 2687 2733 
Q 2419 3097 1959 3097 
z
M 1959 3584 
Q 2709 3584 3137 3096 
Q 3566 2609 3566 1747 
Q 3566 888 3137 398 
Q 2709 -91 1959 -91 
Q 1206 -91 779 398 
Q 353 888 353 1747 
Q 353 2609 779 3096 
Q 1206 3584 1959 3584 
z
" transform="scale(0.015625)"/>
       <path id="DejaVuSans-6e" d="M 3513 2113 
L 3513 0 
L 2938 0 
L 2938 2094 
Q 2938 2591 2744 2837 
Q 2550 3084 2163 3084 
Q 1697 3084 1428 2787 
Q 1159 2491 1159 1978 
L 1159 0 
L 581 0 
L 581 3500 
L 1159 3500 
L 1159 2956 
Q 1366 3272 1645 3428 
Q 1925 3584 2291 3584 
Q 2894 3584 3203 3211 
Q 3513 2838 3513 2113 
z
" transform="scale(0.015625)"/>
      </defs>
      <use xlink:href="#DejaVuSans-50"/>
      <use xlink:href="#DejaVuSans-72" transform="translate(58.552734 0)"/>
      <use xlink:href="#DejaVuSans-65" transform="translate(97.416016 0)"/>
      <use xlink:href="#DejaVuSans-63" transform="translate(158.939453 0)"/>
      <use xlink:href="#DejaVuSans-69" transform="translate(213.919922 0)"/>
      <use xlink:href="#DejaVuSans-73" transform="translate(241.703125 0)"/>
      <use xlink:href="#DejaVuSans-69" transform="translate(293.802734 0)"/>
      <use xlink:href="#DejaVuSans-6f" transform="translate(321.585938 0)"/>
      <use xlink:href="#DejaVuSans-6e" transform="translate(382.767578 0)"/>
     </g>
    </g>
   </g>
   <g id="line2d_25">
    <path d="M 49.242813 26.877187 
L 56.235294 46.070451 
L 57.63379 48.65824 
L 63.227775 50.112275 
L 64.626271 45.538334 
L 71.618752 49.72734 
L 75.814241 49.579004 
L 78.611234 49.448032 
L 81.408226 49.142075 
L 95.393188 48.056746 
L 100.987173 50.044466 
L 102.38567 47.641046 
L 107.979655 49.410201 
L 109.378151 49.399773 
L 120.566121 48.223185 
L 126.160106 49.395121 
L 127.558602 47.808865 
L 133.152587 50.294841 
L 134.551083 49.013918 
L 140.145068 49.7637 
L 141.543564 50.132264 
L 142.942061 50.66234 
L 145.739053 52.040807 
L 147.137549 53.680546 
L 151.333038 55.245417 
L 152.731534 53.412592 
L 155.528527 54.950769 
L 158.325519 56.568481 
L 159.724016 56.287071 
L 162.521008 58.426092 
L 163.919504 64.2007 
L 165.318 65.336318 
L 166.716497 63.682698 
L 172.310482 67.435652 
L 173.708978 66.805732 
L 175.107474 65.77416 
L 183.498452 73.543312 
L 184.896948 69.376457 
L 193.287925 72.083003 
L 196.084918 71.917441 
L 200.280406 71.561167 
L 203.077399 71.735372 
L 204.475895 71.078375 
L 205.874391 71.271486 
L 207.272888 72.276265 
L 211.468376 72.216293 
L 212.866873 71.535337 
L 219.859354 72.78147 
L 221.25785 73.080348 
L 222.656346 72.797182 
L 224.054843 72.826585 
L 225.453339 71.815162 
L 229.648828 71.915538 
L 231.047324 72.90633 
L 235.242813 72.81917 
L 236.641309 72.765012 
L 238.039805 72.417854 
L 240.836797 72.406127 
L 243.63379 72.663439 
L 245.032286 73.071611 
L 246.430782 72.549754 
L 247.829279 73.493076 
L 250.626271 73.368261 
L 252.024767 74.113863 
L 253.423264 74.146051 
L 254.82176 74.958573 
L 257.618752 74.944781 
L 259.017249 76.846458 
L 263.212737 76.761492 
L 264.611234 76.48789 
L 266.00973 75.831925 
L 273.002211 75.812073 
L 275.799203 76.004179 
L 277.1977 75.8875 
L 278.596196 76.040095 
L 279.994692 75.702213 
L 282.791685 76.186677 
L 284.190181 76.1775 
L 285.588677 75.919061 
L 286.987173 76.55841 
L 289.784166 76.749784 
L 291.182662 76.638261 
L 292.581158 77.855775 
L 293.979655 77.973064 
L 295.378151 78.250223 
L 296.776647 78.008266 
L 299.57364 78.57293 
L 300.972136 77.484058 
L 305.167625 78.276546 
L 306.566121 78.2955 
L 307.964617 78.605426 
L 309.363113 78.719215 
L 312.160106 78.066803 
L 313.558602 78.660336 
L 316.355594 78.648395 
L 320.551083 78.334605 
L 321.949579 78.759916 
L 324.746572 78.552556 
L 326.145068 78.082925 
L 335.934542 77.382919 
L 338.731534 77.43897 
L 340.130031 76.988991 
L 341.528527 77.50216 
L 342.927023 77.269027 
L 345.724016 77.7209 
L 347.122512 77.349312 
L 349.919504 77.621871 
L 351.318 77.564401 
L 354.114993 78.442287 
L 355.513489 80.021387 
L 356.911985 80.915458 
L 358.310482 81.564844 
L 359.708978 81.472305 
L 361.107474 81.62219 
L 362.50597 81.990529 
L 363.904467 82.044668 
L 365.302963 81.706688 
L 369.498452 82.12363 
L 370.896948 81.900103 
L 372.295444 82.293546 
L 375.092437 82.331767 
L 376.490933 82.404096 
L 377.889429 82.119808 
L 379.287925 82.225228 
L 380.686422 81.83353 
L 383.483414 82.046186 
L 384.88191 82.975263 
L 389.077399 83.17586 
L 390.475895 83.970404 
L 391.874391 83.697815 
L 393.272888 83.749933 
L 394.671384 83.60676 
L 398.866873 84.341001 
L 400.265369 83.770777 
L 401.663865 83.798777 
L 403.062361 84.197252 
L 405.859354 85.683464 
L 408.656346 86.695929 
L 410.054843 86.246191 
L 411.453339 86.34013 
L 412.851835 87.144617 
L 414.250331 87.561881 
L 417.047324 89.054776 
L 418.44582 89.152962 
L 419.844316 88.865757 
L 422.641309 88.943057 
L 424.039805 89.279313 
L 425.438301 89.415934 
L 426.836797 89.14363 
L 428.235294 89.403426 
L 431.032286 90.19905 
L 432.430782 91.195589 
L 435.227775 90.885198 
L 436.626271 90.856455 
L 438.024767 91.130442 
L 439.423264 91.83532 
L 440.82176 92.0337 
L 442.220256 92.354812 
L 443.618752 92.255026 
L 445.017249 92.369367 
L 446.415745 91.772229 
L 449.212737 92.246204 
L 452.00973 92.797426 
L 454.806722 92.527326 
L 456.205219 92.671689 
L 457.603715 92.387849 
L 459.002211 92.650427 
L 461.799203 92.357305 
L 465.994692 92.789053 
L 467.393188 92.919839 
L 468.791685 93.166848 
L 470.190181 93.226485 
L 471.588677 92.74073 
L 474.38567 93.007514 
L 475.784166 93.333332 
L 477.182662 92.9673 
L 478.581158 93.070327 
L 479.979655 92.935417 
L 481.378151 93.06121 
L 482.776647 93.318797 
L 484.175143 93.128404 
L 485.57364 93.260057 
L 486.972136 93.262367 
L 489.769128 93.597688 
L 491.167625 93.490034 
L 492.566121 93.659277 
L 495.363113 93.360247 
L 499.558602 93.65509 
L 500.957098 94.468034 
L 502.355594 94.675486 
L 503.754091 94.626806 
L 506.551083 95.10515 
L 507.949579 95.783515 
L 509.348076 95.44101 
L 512.145068 96.100138 
L 514.942061 96.681525 
L 517.739053 97.914958 
L 519.137549 98.190632 
L 520.536046 98.704862 
L 521.934542 98.415311 
L 523.333038 98.517987 
L 524.731534 98.865749 
L 526.130031 99.05019 
L 527.528527 99.828982 
L 528.927023 99.846138 
L 530.325519 99.636455 
L 531.724016 99.721956 
L 533.122512 99.964368 
L 534.521008 100.350985 
L 537.318 100.059055 
L 538.716497 99.992351 
L 540.114993 100.126262 
L 541.513489 100.376764 
L 542.911985 100.835735 
L 544.310482 101.082013 
L 545.708978 100.996547 
L 547.107474 101.564838 
L 551.302963 102.169878 
L 552.701459 101.833946 
L 554.099955 102.023711 
L 555.498452 101.964933 
L 558.295444 102.336936 
L 559.69394 102.067827 
L 561.092437 102.27115 
L 562.490933 102.060354 
L 563.889429 102.614516 
L 565.287925 102.826879 
L 566.686422 102.801651 
L 568.084918 103.253158 
L 569.483414 103.127975 
L 573.678903 103.813556 
L 575.077399 104.255991 
L 576.475895 104.336009 
L 577.874391 105.295246 
L 579.272888 105.816291 
L 580.671384 106.988986 
L 583.468376 110.244544 
L 586.265369 113.961416 
L 587.663865 114.406975 
L 589.062361 115.789721 
L 590.460858 118.35659 
L 591.859354 120.094101 
L 593.25785 121.130318 
L 594.656346 123.431321 
L 596.054843 124.972407 
L 597.453339 127.30475 
L 600.250331 133.076579 
L 601.648828 139.937135 
L 605.844316 163.817561 
L 607.242813 175.039362 
L 607.242813 175.039362 
" clip-path="url(#pda103a0d88)" style="fill: none; stroke: #1f77b4; stroke-width: 2.5; stroke-linecap: square"/>
   </g>
   <g id="patch_3">
    <path d="M 49.242813 414.957187 
L 49.242813 26.877187 
" style="fill: none; stroke: #000000; stroke-width: 0.8; stroke-linejoin: miter; stroke-linecap: square"/>
   </g>
   <g id="patch_4">
    <path d="M 607.242813 414.957187 
L 607.242813 26.877187 
" style="fill: none; stroke: #000000; stroke-width: 0.8; stroke-linejoin: miter; stroke-linecap: square"/>
   </g>
   <g id="patch_5">
    <path d="M 49.242813 414.957187 
L 607.242813 414.957187 
" style="fill: none; stroke: #000000; stroke-width: 0.8; stroke-linejoin: miter; stroke-linecap: square"/>
   </g>
   <g id="patch_6">
    <path d="M 49.242813 26.877187 
L 607.242813 26.877187 
" style="fill: none; stroke: #000000; stroke-width: 0.8; stroke-linejoin: miter; stroke-linecap: square"/>
   </g>
   <g id="text_15">
    <!-- SVM (RBF): Mean PR Curve (AP=0.867 +/- 0.138) -->
    <g transform="translate(106.67125 20.877187) scale(0.18 -0.18)">
     <defs>
      <path id="DejaVuSans-53" d="M 3425 4513 
L 3425 3897 
Q 3066 4069 2747 4153 
Q 2428 4238 2131 4238 
Q 1616 4238 1336 4038 
Q 1056 3838 1056 3469 
Q 1056 3159 1242 3001 
Q 1428 2844 1947 2747 
L 2328 2669 
Q 3034 2534 3370 2195 
Q 3706 1856 3706 1288 
Q 3706 609 3251 259 
Q 2797 -91 1919 -91 
Q 1588 -91 1214 -16 
Q 841 59 441 206 
L 441 856 
Q 825 641 1194 531 
Q 1563 422 1919 422 
Q 2459 422 2753 634 
Q 3047 847 3047 1241 
Q 3047 1584 2836 1778 
Q 2625 1972 2144 2069 
L 1759 2144 
Q 1053 2284 737 2584 
Q 422 2884 422 3419 
Q 422 4038 858 4394 
Q 1294 4750 2059 4750 
Q 2388 4750 2728 4690 
Q 3069 4631 3425 4513 
z
" transform="scale(0.015625)"/>
      <path id="DejaVuSans-56" d="M 1831 0 
L 50 4666 
L 709 4666 
L 2188 738 
L 3669 4666 
L 4325 4666 
L 2547 0 
L 1831 0 
z
" transform="scale(0.015625)"/>
      <path id="DejaVuSans-4d" d="M 628 4666 
L 1569 4666 
L 2759 1491 
L 3956 4666 
L 4897 4666 
L 4897 0 
L 4281 0 
L 4281 4097 
L 3078 897 
L 2444 897 
L 1241 4097 
L 1241 0 
L 628 0 
L 628 4666 
z
" transform="scale(0.015625)"/>
      <path id="DejaVuSans-20" transform="scale(0.015625)"/>
      <path id="DejaVuSans-28" d="M 1984 4856 
Q 1566 4138 1362 3434 
Q 1159 2731 1159 2009 
Q 1159 1288 1364 580 
Q 1569 -128 1984 -844 
L 1484 -844 
Q 1016 -109 783 600 
Q 550 1309 550 2009 
Q 550 2706 781 3412 
Q 1013 4119 1484 4856 
L 1984 4856 
z
" transform="scale(0.015625)"/>
      <path id="DejaVuSans-42" d="M 1259 2228 
L 1259 519 
L 2272 519 
Q 2781 519 3026 730 
Q 3272 941 3272 1375 
Q 3272 1813 3026 2020 
Q 2781 2228 2272 2228 
L 1259 2228 
z
M 1259 4147 
L 1259 2741 
L 2194 2741 
Q 2656 2741 2882 2914 
Q 3109 3088 3109 3444 
Q 3109 3797 2882 3972 
Q 2656 4147 2194 4147 
L 1259 4147 
z
M 628 4666 
L 2241 4666 
Q 2963 4666 3353 4366 
Q 3744 4066 3744 3513 
Q 3744 3084 3544 2831 
Q 3344 2578 2956 2516 
Q 3422 2416 3680 2098 
Q 3938 1781 3938 1306 
Q 3938 681 3513 340 
Q 3088 0 2303 0 
L 628 0 
L 628 4666 
z
" transform="scale(0.015625)"/>
      <path id="DejaVuSans-46" d="M 628 4666 
L 3309 4666 
L 3309 4134 
L 1259 4134 
L 1259 2759 
L 3109 2759 
L 3109 2228 
L 1259 2228 
L 1259 0 
L 628 0 
L 628 4666 
z
" transform="scale(0.015625)"/>
      <path id="DejaVuSans-29" d="M 513 4856 
L 1013 4856 
Q 1481 4119 1714 3412 
Q 1947 2706 1947 2009 
Q 1947 1309 1714 600 
Q 1481 -109 1013 -844 
L 513 -844 
Q 928 -128 1133 580 
Q 1338 1288 1338 2009 
Q 1338 2731 1133 3434 
Q 928 4138 513 4856 
z
" transform="scale(0.015625)"/>
      <path id="DejaVuSans-3a" d="M 750 794 
L 1409 794 
L 1409 0 
L 750 0 
L 750 794 
z
M 750 3309 
L 1409 3309 
L 1409 2516 
L 750 2516 
L 750 3309 
z
" transform="scale(0.015625)"/>
      <path id="DejaVuSans-43" d="M 4122 4306 
L 4122 3641 
Q 3803 3938 3442 4084 
Q 3081 4231 2675 4231 
Q 1875 4231 1450 3742 
Q 1025 3253 1025 2328 
Q 1025 1406 1450 917 
Q 1875 428 2675 428 
Q 3081 428 3442 575 
Q 3803 722 4122 1019 
L 4122 359 
Q 3791 134 3420 21 
Q 3050 -91 2638 -91 
Q 1578 -91 968 557 
Q 359 1206 359 2328 
Q 359 3453 968 4101 
Q 1578 4750 2638 4750 
Q 3056 4750 3426 4639 
Q 3797 4528 4122 4306 
z
" transform="scale(0.015625)"/>
      <path id="DejaVuSans-75" d="M 544 1381 
L 544 3500 
L 1119 3500 
L 1119 1403 
Q 1119 906 1312 657 
Q 1506 409 1894 409 
Q 2359 409 2629 706 
Q 2900 1003 2900 1516 
L 2900 3500 
L 3475 3500 
L 3475 0 
L 2900 0 
L 2900 538 
Q 2691 219 2414 64 
Q 2138 -91 1772 -91 
Q 1169 -91 856 284 
Q 544 659 544 1381 
z
M 1991 3584 
L 1991 3584 
z
" transform="scale(0.015625)"/>
      <path id="DejaVuSans-76" d="M 191 3500 
L 800 3500 
L 1894 563 
L 2988 3500 
L 3597 3500 
L 2284 0 
L 1503 0 
L 191 3500 
z
" transform="scale(0.015625)"/>
      <path id="DejaVuSans-41" d="M 2188 4044 
L 1331 1722 
L 3047 1722 
L 2188 4044 
z
M 1831 4666 
L 2547 4666 
L 4325 0 
L 3669 0 
L 3244 1197 
L 1141 1197 
L 716 0 
L 50 0 
L 1831 4666 
z
" transform="scale(0.015625)"/>
      <path id="DejaVuSans-3d" d="M 678 2906 
L 4684 2906 
L 4684 2381 
L 678 2381 
L 678 2906 
z
M 678 1631 
L 4684 1631 
L 4684 1100 
L 678 1100 
L 678 1631 
z
" transform="scale(0.015625)"/>
      <path id="DejaVuSans-37" d="M 525 4666 
L 3525 4666 
L 3525 4397 
L 1831 0 
L 1172 0 
L 2766 4134 
L 525 4134 
L 525 4666 
z
" transform="scale(0.015625)"/>
      <path id="DejaVuSans-2b" d="M 2944 4013 
L 2944 2272 
L 4684 2272 
L 4684 1741 
L 2944 1741 
L 2944 0 
L 2419 0 
L 2419 1741 
L 678 1741 
L 678 2272 
L 2419 2272 
L 2419 4013 
L 2944 4013 
z
" transform="scale(0.015625)"/>
      <path id="DejaVuSans-2f" d="M 1625 4666 
L 2156 4666 
L 531 -594 
L 0 -594 
L 1625 4666 
z
" transform="scale(0.015625)"/>
      <path id="DejaVuSans-2d" d="M 313 2009 
L 1997 2009 
L 1997 1497 
L 313 1497 
L 313 2009 
z
" transform="scale(0.015625)"/>
      <path id="DejaVuSans-33" d="M 2597 2516 
Q 3050 2419 3304 2112 
Q 3559 1806 3559 1356 
Q 3559 666 3084 287 
Q 2609 -91 1734 -91 
Q 1441 -91 1130 -33 
Q 819 25 488 141 
L 488 750 
Q 750 597 1062 519 
Q 1375 441 1716 441 
Q 2309 441 2620 675 
Q 2931 909 2931 1356 
Q 2931 1769 2642 2001 
Q 2353 2234 1838 2234 
L 1294 2234 
L 1294 2753 
L 1863 2753 
Q 2328 2753 2575 2939 
Q 2822 3125 2822 3475 
Q 2822 3834 2567 4026 
Q 2313 4219 1838 4219 
Q 1578 4219 1281 4162 
Q 984 4106 628 3988 
L 628 4550 
Q 988 4650 1302 4700 
Q 1616 4750 1894 4750 
Q 2613 4750 3031 4423 
Q 3450 4097 3450 3541 
Q 3450 3153 3228 2886 
Q 3006 2619 2597 2516 
z
" transform="scale(0.015625)"/>
     </defs>
     <use xlink:href="#DejaVuSans-53"/>
     <use xlink:href="#DejaVuSans-56" transform="translate(63.476562 0)"/>
     <use xlink:href="#DejaVuSans-4d" transform="translate(131.884766 0)"/>
     <use xlink:href="#DejaVuSans-20" transform="translate(218.164062 0)"/>
     <use xlink:href="#DejaVuSans-28" transform="translate(249.951172 0)"/>
     <use xlink:href="#DejaVuSans-52" transform="translate(288.964844 0)"/>
     <use xlink:href="#DejaVuSans-42" transform="translate(358.447266 0)"/>
     <use xlink:href="#DejaVuSans-46" transform="translate(427.050781 0)"/>
     <use xlink:href="#DejaVuSans-29" transform="translate(484.570312 0)"/>
     <use xlink:href="#DejaVuSans-3a" transform="translate(523.583984 0)"/>
     <use xlink:href="#DejaVuSans-20" transform="translate(557.275391 0)"/>
     <use xlink:href="#DejaVuSans-4d" transform="translate(589.0625 0)"/>
     <use xlink:href="#DejaVuSans-65" transform="translate(675.341797 0)"/>
     <use xlink:href="#DejaVuSans-61" transform="translate(736.865234 0)"/>
     <use xlink:href="#DejaVuSans-6e" transform="translate(798.144531 0)"/>
     <use xlink:href="#DejaVuSans-20" transform="translate(861.523438 0)"/>
     <use xlink:href="#DejaVuSans-50" transform="translate(893.310547 0)"/>
     <use xlink:href="#DejaVuSans-52" transform="translate(953.613281 0)"/>
     <use xlink:href="#DejaVuSans-20" transform="translate(1023.095703 0)"/>
     <use xlink:href="#DejaVuSans-43" transform="translate(1054.882812 0)"/>
     <use xlink:href="#DejaVuSans-75" transform="translate(1124.707031 0)"/>
     <use xlink:href="#DejaVuSans-72" transform="translate(1188.085938 0)"/>
     <use xlink:href="#DejaVuSans-76" transform="translate(1229.199219 0)"/>
     <use xlink:href="#DejaVuSans-65" transform="translate(1288.378906 0)"/>
     <use xlink:href="#DejaVuSans-20" transform="translate(1349.902344 0)"/>
     <use xlink:href="#DejaVuSans-28" transform="translate(1381.689453 0)"/>
     <use xlink:href="#DejaVuSans-41" transform="translate(1420.703125 0)"/>
     <use xlink:href="#DejaVuSans-50" transform="translate(1489.111328 0)"/>
     <use xlink:href="#DejaVuSans-3d" transform="translate(1549.414062 0)"/>
     <use xlink:href="#DejaVuSans-30" transform="translate(1633.203125 0)"/>
     <use xlink:href="#DejaVuSans-2e" transform="translate(1696.826172 0)"/>
     <use xlink:href="#DejaVuSans-38" transform="translate(1728.613281 0)"/>
     <use xlink:href="#DejaVuSans-36" transform="translate(1792.236328 0)"/>
     <use xlink:href="#DejaVuSans-37" transform="translate(1855.859375 0)"/>
     <use xlink:href="#DejaVuSans-20" transform="translate(1919.482422 0)"/>
     <use xlink:href="#DejaVuSans-2b" transform="translate(1951.269531 0)"/>
     <use xlink:href="#DejaVuSans-2f" transform="translate(2035.058594 0)"/>
     <use xlink:href="#DejaVuSans-2d" transform="translate(2068.75 0)"/>
     <use xlink:href="#DejaVuSans-20" transform="translate(2104.833984 0)"/>
     <use xlink:href="#DejaVuSans-30" transform="translate(2136.621094 0)"/>
     <use xlink:href="#DejaVuSans-2e" transform="translate(2200.244141 0)"/>
     <use xlink:href="#DejaVuSans-31" transform="translate(2232.03125 0)"/>
     <use xlink:href="#DejaVuSans-33" transform="translate(2295.654297 0)"/>
     <use xlink:href="#DejaVuSans-38" transform="translate(2359.277344 0)"/>
     <use xlink:href="#DejaVuSans-29" transform="translate(2422.900391 0)"/>
    </g>
   </g>
  </g>
 </g>
 <defs>
  <clipPath id="pda103a0d88">
   <rect x="49.242813" y="26.877187" width="558" height="388.08"/>
  </clipPath>
 </defs>
</svg>
