<?xml version="1.0" encoding="utf-8" standalone="no"?>
<!DOCTYPE svg PUBLIC "-//W3C//DTD SVG 1.1//EN"
  "http://www.w3.org/Graphics/SVG/1.1/DTD/svg11.dtd">
<svg xmlns:xlink="http://www.w3.org/1999/xlink" width="632.288125pt" height="457.3525pt" viewBox="0 0 632.288125 457.3525" xmlns="http://www.w3.org/2000/svg" version="1.1">
 <metadata>
  <rdf:RDF xmlns:dc="http://purl.org/dc/elements/1.1/" xmlns:cc="http://creativecommons.org/ns#" xmlns:rdf="http://www.w3.org/1999/02/22-rdf-syntax-ns#">
   <cc:Work>
    <dc:type rdf:resource="http://purl.org/dc/dcmitype/StillImage"/>
    <dc:date>2026-02-18T18:56:43.678498</dc:date>
    <dc:format>image/svg+xml</dc:format>
    <dc:creator>
     <cc:Agent>
      <dc:title>Matplotlib v3.10.0, https://matplotlib.org/</dc:title>
     </cc:Agent>
    </dc:creator>
   </cc:Work>
  </rdf:RDF>
 </metadata>
 <defs>
  <style type="text/css">*{stroke-linejoin: round; stroke-linecap: butt}</style>
 </defs>
 <g id="figure_1">
  <g id="patch_1">
   <path d="M 0 457.3525 
L 632.288125 457.3525 
L 632.288125 0 
L 0 0 
z
" style="fill: #ffffff"/>
  </g>
  <g id="axes_1">
   <g id="patch_2">
    <path d="M 49.242813 414.957187 
L 607.242813 414.957187 
L 607.242813 26.877187 
L 49.242813 26.877187 
z
" style="fill: #ffffff"/>
   </g>
   <g id="FillBetweenPolyCollection_1">
    <defs>
     <path id="m15e35bd10c" d="M 49.242813 -430.475312 
L 49.242813 -307.799153 
L 50.641309 -313.487145 
L 52.039805 -319.175137 
L 53.438301 -324.86313 
L 54.836797 -330.551122 
L 56.235294 -336.239114 
L 57.63379 -340.543541 
L 59.032286 -343.956337 
L 60.430782 -347.369132 
L 61.829279 -350.781927 
L 63.227775 -354.194723 
L 64.626271 -349.159715 
L 66.024767 -351.326569 
L 67.423264 -353.493423 
L 68.82176 -355.660278 
L 70.220256 -357.827132 
L 71.618752 -359.993986 
L 73.017249 -358.107562 
L 74.415745 -355.357323 
L 75.814241 -352.607085 
L 77.212737 -349.856847 
L 78.611234 -347.106609 
L 80.00973 -361.462957 
L 81.408226 -359.476674 
L 82.806722 -357.490391 
L 84.205219 -355.504108 
L 85.603715 -353.517825 
L 87.002211 -351.651597 
L 88.400707 -352.626682 
L 89.799203 -353.601766 
L 91.1977 -354.576851 
L 92.596196 -355.551935 
L 93.994692 -356.527019 
L 95.393188 -357.423043 
L 96.791685 -358.276242 
L 98.190181 -359.129441 
L 99.588677 -359.982639 
L 100.987173 -360.835838 
L 102.38567 -355.69444 
L 103.784166 -356.426228 
L 105.182662 -357.158017 
L 106.581158 -357.889805 
L 107.979655 -358.621594 
L 109.378151 -359.353382 
L 110.776647 -355.08662 
L 112.175143 -355.726827 
L 113.57364 -356.367034 
L 114.972136 -357.007241 
L 116.370632 -357.647448 
L 117.769128 -358.261324 
L 119.167625 -358.845861 
L 120.566121 -359.430398 
L 121.964617 -360.014935 
L 123.363113 -360.599472 
L 124.761609 -358.957263 
L 126.160106 -359.488143 
L 127.558602 -360.019022 
L 128.957098 -360.549901 
L 130.355594 -361.080781 
L 131.754091 -361.61166 
L 133.152587 -360.035656 
L 134.551083 -360.52181 
L 135.949579 -361.007963 
L 137.348076 -361.494116 
L 138.746572 -361.980269 
L 140.145068 -362.456099 
L 141.543564 -362.907527 
L 142.942061 -363.358955 
L 144.340557 -363.810383 
L 145.739053 -364.261811 
L 147.137549 -364.713238 
L 148.536046 -365.136478 
L 149.934542 -365.556773 
L 151.333038 -365.977068 
L 152.731534 -366.397363 
L 154.130031 -366.817658 
L 155.528527 -366.858457 
L 156.927023 -366.539734 
L 158.325519 -366.22101 
L 159.724016 -365.902286 
L 161.122512 -365.583563 
L 162.521008 -369.095306 
L 163.919504 -368.75058 
L 165.318 -368.405853 
L 166.716497 -368.061126 
L 168.114993 -367.716399 
L 169.513489 -367.371672 
L 170.911985 -367.53006 
L 172.310482 -367.874787 
L 173.708978 -368.219514 
L 175.107474 -368.35804 
L 176.50597 -368.290274 
L 177.904467 -366.404315 
L 179.302963 -366.191649 
L 180.701459 -365.914222 
L 182.099955 -365.571544 
L 183.498452 -365.163381 
L 184.896948 -360.062623 
L 186.295444 -357.109573 
L 187.69394 -357.154219 
L 189.092437 -357.194808 
L 190.490933 -357.231322 
L 191.889429 -357.263744 
L 193.287925 -354.604527 
L 194.686422 -352.631859 
L 196.084918 -353.019491 
L 197.483414 -353.40707 
L 198.88191 -353.794594 
L 200.280406 -354.143103 
L 201.678903 -354.290043 
L 203.077399 -354.436539 
L 204.475895 -352.44204 
L 205.874391 -350.738364 
L 207.272888 -350.690178 
L 208.671384 -351.825172 
L 210.06988 -351.74975 
L 211.468376 -350.533886 
L 212.866873 -350.692938 
L 214.265369 -350.58475 
L 215.663865 -350.554908 
L 217.062361 -350.653917 
L 218.460858 -350.509055 
L 219.859354 -349.926009 
L 221.25785 -349.300819 
L 222.656346 -350.454536 
L 224.054843 -348.31973 
L 225.453339 -350.517791 
L 226.851835 -349.208344 
L 228.250331 -347.801573 
L 229.648828 -346.299616 
L 231.047324 -344.805537 
L 232.44582 -345.435049 
L 233.844316 -344.384605 
L 235.242813 -343.301513 
L 236.641309 -342.186585 
L 238.039805 -343.859835 
L 239.438301 -342.766112 
L 240.836797 -341.651888 
L 242.235294 -340.716368 
L 243.63379 -340.040804 
L 245.032286 -340.894028 
L 246.430782 -341.352189 
L 247.829279 -341.021175 
L 249.227775 -340.669569 
L 250.626271 -341.273533 
L 252.024767 -341.026669 
L 253.423264 -341.081434 
L 254.82176 -340.699696 
L 256.220256 -340.843565 
L 257.618752 -341.097995 
L 259.017249 -340.585198 
L 260.415745 -340.108873 
L 261.814241 -338.938499 
L 263.212737 -339.093022 
L 264.611234 -339.076814 
L 266.00973 -337.215163 
L 267.408226 -337.012824 
L 268.806722 -336.803814 
L 270.205219 -337.453659 
L 271.603715 -337.391842 
L 273.002211 -338.265377 
L 274.400707 -338.25123 
L 275.799203 -338.232277 
L 277.1977 -338.321973 
L 278.596196 -338.481251 
L 279.994692 -338.713268 
L 281.393188 -339.046846 
L 282.791685 -339.37986 
L 284.190181 -338.877183 
L 285.588677 -339.179899 
L 286.987173 -338.522813 
L 288.38567 -338.714912 
L 289.784166 -338.839866 
L 291.182662 -338.834589 
L 292.581158 -339.14008 
L 293.979655 -339.436663 
L 295.378151 -339.203396 
L 296.776647 -339.747269 
L 298.175143 -337.959267 
L 299.57364 -338.148889 
L 300.972136 -338.792946 
L 302.370632 -338.70151 
L 303.769128 -338.764528 
L 305.167625 -338.821911 
L 306.566121 -338.961842 
L 307.964617 -337.571875 
L 309.363113 -337.818487 
L 310.761609 -337.969766 
L 312.160106 -338.099913 
L 313.558602 -338.123844 
L 314.957098 -338.045062 
L 316.355594 -338.696734 
L 317.754091 -338.613186 
L 319.152587 -338.409199 
L 320.551083 -338.162205 
L 321.949579 -338.429793 
L 323.348076 -338.221381 
L 324.746572 -337.955864 
L 326.145068 -338.302325 
L 327.543564 -338.158093 
L 328.942061 -338.336111 
L 330.340557 -338.020186 
L 331.739053 -338.23113 
L 333.137549 -338.021311 
L 334.536046 -337.831268 
L 335.934542 -337.562121 
L 337.333038 -337.027883 
L 338.731534 -336.486892 
L 340.130031 -335.940583 
L 341.528527 -336.254914 
L 342.927023 -335.895187 
L 344.325519 -335.126277 
L 345.724016 -335.484968 
L 347.122512 -335.552395 
L 348.521008 -335.505477 
L 349.919504 -335.505197 
L 351.318 -333.900657 
L 352.716497 -334.014238 
L 354.114993 -333.203489 
L 355.513489 -332.724673 
L 356.911985 -332.816788 
L 358.310482 -332.610728 
L 359.708978 -332.669046 
L 361.107474 -332.498246 
L 362.50597 -332.299454 
L 363.904467 -332.086696 
L 365.302963 -331.763185 
L 366.701459 -332.116798 
L 368.099955 -332.090164 
L 369.498452 -331.437431 
L 370.896948 -330.431057 
L 372.295444 -330.984316 
L 373.69394 -331.466502 
L 375.092437 -331.238622 
L 376.490933 -330.998579 
L 377.889429 -331.177614 
L 379.287925 -331.016189 
L 380.686422 -330.580745 
L 382.084918 -330.615274 
L 383.483414 -330.64054 
L 384.88191 -330.657502 
L 386.280406 -330.590161 
L 387.678903 -329.12731 
L 389.077399 -329.136894 
L 390.475895 -329.114063 
L 391.874391 -328.420102 
L 393.272888 -328.245394 
L 394.671384 -328.487958 
L 396.06988 -328.234952 
L 397.468376 -328.870368 
L 398.866873 -328.698157 
L 400.265369 -328.863569 
L 401.663865 -328.278712 
L 403.062361 -328.030628 
L 404.460858 -327.837612 
L 405.859354 -327.576727 
L 407.25785 -328.11015 
L 408.656346 -327.82424 
L 410.054843 -322.383995 
L 411.453339 -321.992181 
L 412.851835 -322.05249 
L 414.250331 -321.372663 
L 415.648828 -320.646715 
L 417.047324 -320.156803 
L 418.44582 -320.013188 
L 419.844316 -320.42331 
L 421.242813 -320.6812 
L 422.641309 -320.606958 
L 424.039805 -320.454671 
L 425.438301 -320.074951 
L 426.836797 -320.420549 
L 428.235294 -320.091852 
L 429.63379 -319.789597 
L 431.032286 -319.481052 
L 432.430782 -319.447572 
L 433.829279 -319.792084 
L 435.227775 -319.630826 
L 436.626271 -319.327202 
L 438.024767 -319.156793 
L 439.423264 -317.79616 
L 440.82176 -318.102789 
L 442.220256 -317.540478 
L 443.618752 -317.122111 
L 445.017249 -316.620073 
L 446.415745 -316.731328 
L 447.814241 -316.472974 
L 449.212737 -315.812523 
L 450.611234 -315.130316 
L 452.00973 -315.080144 
L 453.408226 -316.288254 
L 454.806722 -315.799678 
L 456.205219 -315.306954 
L 457.603715 -314.78618 
L 459.002211 -313.755218 
L 460.400707 -312.960267 
L 461.799203 -312.692387 
L 463.1977 -312.815047 
L 464.596196 -312.557164 
L 465.994692 -312.837678 
L 467.393188 -313.093197 
L 468.791685 -313.345744 
L 470.190181 -313.561908 
L 471.588677 -313.684953 
L 472.987173 -313.616191 
L 474.38567 -313.544271 
L 475.784166 -313.468859 
L 477.182662 -314.10414 
L 478.581158 -313.868437 
L 479.979655 -313.996256 
L 481.378151 -313.633358 
L 482.776647 -313.596592 
L 484.175143 -313.652463 
L 485.57364 -313.387863 
L 486.972136 -311.985612 
L 488.370632 -311.911722 
L 489.769128 -311.326962 
L 491.167625 -311.665129 
L 492.566121 -311.883652 
L 493.964617 -311.949951 
L 495.363113 -312.013305 
L 496.761609 -311.927803 
L 498.160106 -311.837744 
L 499.558602 -311.743499 
L 500.957098 -311.646128 
L 502.355594 -311.558614 
L 503.754091 -310.852605 
L 505.152587 -310.813862 
L 506.551083 -310.769732 
L 507.949579 -310.733708 
L 509.348076 -310.771358 
L 510.746572 -311.038032 
L 512.145068 -310.985122 
L 513.543564 -310.969711 
L 514.942061 -310.952785 
L 516.340557 -311.045905 
L 517.739053 -311.249763 
L 519.137549 -310.682816 
L 520.536046 -310.475713 
L 521.934542 -310.520344 
L 523.333038 -310.64802 
L 524.731534 -310.836713 
L 526.130031 -311.089058 
L 527.528527 -310.671472 
L 528.927023 -310.797499 
L 530.325519 -310.944131 
L 531.724016 -311.085688 
L 533.122512 -311.476431 
L 534.521008 -311.596161 
L 535.919504 -311.928614 
L 537.318 -312.009166 
L 538.716497 -311.698461 
L 540.114993 -311.765657 
L 541.513489 -311.9812 
L 542.911985 -311.921155 
L 544.310482 -311.878151 
L 545.708978 -311.499777 
L 547.107474 -311.163693 
L 548.50597 -311.577691 
L 549.904467 -311.155429 
L 551.302963 -311.098656 
L 552.701459 -310.404464 
L 554.099955 -310.367492 
L 555.498452 -309.747627 
L 556.896948 -309.455934 
L 558.295444 -309.149206 
L 559.69394 -309.125841 
L 561.092437 -308.629184 
L 562.490933 -308.600893 
L 563.889429 -308.617665 
L 565.287925 -308.620194 
L 566.686422 -308.578676 
L 568.084918 -308.834305 
L 569.483414 -308.837975 
L 570.88191 -308.445148 
L 572.280406 -308.419962 
L 573.678903 -308.295718 
L 575.077399 -308.604977 
L 576.475895 -308.846656 
L 577.874391 -308.041762 
L 579.272888 -308.016471 
L 580.671384 -307.598521 
L 582.06988 -307.153028 
L 583.468376 -306.518095 
L 584.866873 -305.357224 
L 586.265369 -303.621724 
L 587.663865 -301.088646 
L 589.062361 -301.020278 
L 590.460858 -299.139577 
L 591.859354 -297.645826 
L 593.25785 -296.137441 
L 594.656346 -293.189336 
L 596.054843 -291.42916 
L 597.453339 -289.72625 
L 598.851835 -284.891554 
L 600.250331 -282.220681 
L 601.648828 -281.47704 
L 603.047324 -277.472174 
L 604.44582 -272.993296 
L 605.844316 -268.055906 
L 607.242813 -237.713373 
L 607.242813 -329.329577 
L 607.242813 -329.329577 
L 605.844316 -332.699626 
L 604.44582 -339.029227 
L 603.047324 -345.817339 
L 601.648828 -353.896782 
L 600.250331 -357.732096 
L 598.851835 -359.239603 
L 597.453339 -361.045909 
L 596.054843 -361.596222 
L 594.656346 -362.252958 
L 593.25785 -364.941155 
L 591.859354 -365.86141 
L 590.460858 -366.484387 
L 589.062361 -368.539217 
L 587.663865 -370.066634 
L 586.265369 -373.687133 
L 584.866873 -375.514049 
L 583.468376 -379.273494 
L 582.06988 -381.544413 
L 580.671384 -383.902721 
L 579.272888 -383.265315 
L 577.874391 -384.286387 
L 576.475895 -385.846611 
L 575.077399 -387.22461 
L 573.678903 -388.658619 
L 572.280406 -390.456661 
L 570.88191 -390.639269 
L 569.483414 -390.687662 
L 568.084918 -390.945041 
L 566.686422 -393.216877 
L 565.287925 -395.33353 
L 563.889429 -396.172063 
L 562.490933 -396.570605 
L 561.092437 -396.7545 
L 559.69394 -399.75131 
L 558.295444 -399.892999 
L 556.896948 -401.103804 
L 555.498452 -402.317437 
L 554.099955 -403.115867 
L 552.701459 -403.818638 
L 551.302963 -404.008122 
L 549.904467 -404.580263 
L 548.50597 -404.557725 
L 547.107474 -404.500244 
L 545.708978 -404.263715 
L 544.310482 -404.677639 
L 542.911985 -405.043456 
L 541.513489 -405.883786 
L 540.114993 -405.996705 
L 538.716497 -406.304851 
L 537.318 -406.591595 
L 535.919504 -406.834412 
L 534.521008 -406.841694 
L 533.122512 -407.013782 
L 531.724016 -407.167469 
L 530.325519 -407.641091 
L 528.927023 -408.220837 
L 527.528527 -407.932211 
L 526.130031 -407.501887 
L 524.731534 -407.474961 
L 523.333038 -408.055928 
L 521.934542 -408.665678 
L 520.536046 -409.989907 
L 519.137549 -410.657804 
L 517.739053 -411.189364 
L 516.340557 -411.944976 
L 514.942061 -412.446621 
L 513.543564 -412.931691 
L 512.145068 -414.497 
L 510.746572 -415.190708 
L 509.348076 -415.759918 
L 507.949579 -416.499049 
L 506.551083 -416.822356 
L 505.152587 -416.994017 
L 503.754091 -417.156261 
L 502.355594 -417.467006 
L 500.957098 -417.308082 
L 499.558602 -417.394639 
L 498.160106 -417.484322 
L 496.761609 -417.57973 
L 495.363113 -417.746102 
L 493.964617 -417.834495 
L 492.566121 -417.924745 
L 491.167625 -417.851018 
L 489.769128 -417.950658 
L 488.370632 -417.880065 
L 486.972136 -418.189921 
L 485.57364 -417.393569 
L 484.175143 -417.543352 
L 482.776647 -417.545371 
L 481.378151 -417.511163 
L 479.979655 -417.665369 
L 478.581158 -417.995127 
L 477.182662 -418.0627 
L 475.784166 -417.523765 
L 474.38567 -417.649961 
L 472.987173 -417.778445 
L 471.588677 -417.90872 
L 470.190181 -417.980593 
L 468.791685 -418.109857 
L 467.393188 -418.207589 
L 465.994692 -418.306843 
L 464.596196 -417.812662 
L 463.1977 -417.795284 
L 461.799203 -417.954882 
L 460.400707 -418.264797 
L 459.002211 -418.134734 
L 457.603715 -418.200982 
L 456.205219 -418.633303 
L 454.806722 -419.091908 
L 453.408226 -419.584385 
L 452.00973 -419.048483 
L 450.611234 -419.468124 
L 449.212737 -419.950167 
L 447.814241 -420.452636 
L 446.415745 -420.84356 
L 445.017249 -421.031701 
L 443.618752 -421.061928 
L 442.220256 -421.073211 
L 440.82176 -421.478986 
L 439.423264 -421.078247 
L 438.024767 -420.858356 
L 436.626271 -420.885805 
L 435.227775 -421.338298 
L 433.829279 -421.375001 
L 432.430782 -421.17824 
L 431.032286 -422.746053 
L 429.63379 -422.893053 
L 428.235294 -423.045708 
L 426.836797 -423.230845 
L 425.438301 -422.977463 
L 424.039805 -423.127458 
L 422.641309 -423.320058 
L 421.242813 -423.529165 
L 419.844316 -423.284077 
L 418.44582 -423.559587 
L 417.047324 -423.678072 
L 415.648828 -423.794535 
L 414.250331 -423.84245 
L 412.851835 -423.875861 
L 411.453339 -423.487827 
L 410.054843 -423.901852 
L 408.656346 -424.510744 
L 407.25785 -424.693928 
L 405.859354 -425.992306 
L 404.460858 -426.172054 
L 403.062361 -426.340638 
L 401.663865 -426.55956 
L 400.265369 -427.814296 
L 398.866873 -427.754701 
L 397.468376 -428.003353 
L 396.06988 -427.786405 
L 394.671384 -428.107106 
L 393.272888 -429.16767 
L 391.874391 -429.443563 
L 390.475895 -430.475312 
L 389.077399 -430.475312 
L 387.678903 -430.475312 
L 386.280406 -430.475312 
L 384.88191 -430.475312 
L 383.483414 -430.475312 
L 382.084918 -430.475312 
L 380.686422 -430.475312 
L 379.287925 -430.475312 
L 377.889429 -430.475312 
L 376.490933 -430.475312 
L 375.092437 -430.475312 
L 373.69394 -430.475312 
L 372.295444 -430.475312 
L 370.896948 -430.475312 
L 369.498452 -430.475312 
L 368.099955 -430.475312 
L 366.701459 -430.475312 
L 365.302963 -430.475312 
L 363.904467 -430.475312 
L 362.50597 -430.475312 
L 361.107474 -430.475312 
L 359.708978 -430.475312 
L 358.310482 -430.475312 
L 356.911985 -430.475312 
L 355.513489 -430.475312 
L 354.114993 -430.475312 
L 352.716497 -430.475312 
L 351.318 -430.475312 
L 349.919504 -430.475312 
L 348.521008 -430.475312 
L 347.122512 -430.475312 
L 345.724016 -430.475312 
L 344.325519 -430.475312 
L 342.927023 -430.475312 
L 341.528527 -430.475312 
L 340.130031 -430.475312 
L 338.731534 -430.475312 
L 337.333038 -430.475312 
L 335.934542 -430.475312 
L 334.536046 -430.475312 
L 333.137549 -430.475312 
L 331.739053 -430.475312 
L 330.340557 -430.475312 
L 328.942061 -430.475312 
L 327.543564 -430.475312 
L 326.145068 -430.475312 
L 324.746572 -430.475312 
L 323.348076 -430.475312 
L 321.949579 -430.475312 
L 320.551083 -430.475312 
L 319.152587 -430.475312 
L 317.754091 -430.475312 
L 316.355594 -430.475312 
L 314.957098 -430.475312 
L 313.558602 -430.475312 
L 312.160106 -430.475312 
L 310.761609 -430.475312 
L 309.363113 -430.475312 
L 307.964617 -430.475312 
L 306.566121 -430.475312 
L 305.167625 -430.475312 
L 303.769128 -430.475312 
L 302.370632 -430.475312 
L 300.972136 -430.475312 
L 299.57364 -430.475312 
L 298.175143 -430.475312 
L 296.776647 -430.475312 
L 295.378151 -430.475312 
L 293.979655 -430.475312 
L 292.581158 -430.475312 
L 291.182662 -430.475312 
L 289.784166 -430.475312 
L 288.38567 -430.475312 
L 286.987173 -430.475312 
L 285.588677 -430.475312 
L 284.190181 -430.475312 
L 282.791685 -430.475312 
L 281.393188 -430.475312 
L 279.994692 -430.475312 
L 278.596196 -430.475312 
L 277.1977 -430.475312 
L 275.799203 -430.475312 
L 274.400707 -430.475312 
L 273.002211 -430.475312 
L 271.603715 -430.475312 
L 270.205219 -430.475312 
L 268.806722 -430.475312 
L 267.408226 -430.475312 
L 266.00973 -430.475312 
L 264.611234 -430.475312 
L 263.212737 -430.475312 
L 261.814241 -430.475312 
L 260.415745 -430.475312 
L 259.017249 -430.475312 
L 257.618752 -430.475312 
L 256.220256 -430.475312 
L 254.82176 -430.475312 
L 253.423264 -430.475312 
L 252.024767 -430.475312 
L 250.626271 -430.475312 
L 249.227775 -430.475312 
L 247.829279 -430.475312 
L 246.430782 -430.475312 
L 245.032286 -430.475312 
L 243.63379 -430.475312 
L 242.235294 -430.475312 
L 240.836797 -430.475312 
L 239.438301 -430.475312 
L 238.039805 -430.475312 
L 236.641309 -430.475312 
L 235.242813 -430.475312 
L 233.844316 -430.475312 
L 232.44582 -430.475312 
L 231.047324 -430.475312 
L 229.648828 -430.475312 
L 228.250331 -430.475312 
L 226.851835 -430.475312 
L 225.453339 -430.475312 
L 224.054843 -430.475312 
L 222.656346 -430.475312 
L 221.25785 -430.475312 
L 219.859354 -430.475312 
L 218.460858 -430.475312 
L 217.062361 -430.475312 
L 215.663865 -430.475312 
L 214.265369 -430.475312 
L 212.866873 -430.475312 
L 211.468376 -430.475312 
L 210.06988 -430.475312 
L 208.671384 -430.475312 
L 207.272888 -430.475312 
L 205.874391 -430.475312 
L 204.475895 -430.475312 
L 203.077399 -430.475312 
L 201.678903 -430.475312 
L 200.280406 -430.475312 
L 198.88191 -430.475312 
L 197.483414 -430.475312 
L 196.084918 -430.475312 
L 194.686422 -430.475312 
L 193.287925 -430.475312 
L 191.889429 -430.475312 
L 190.490933 -430.475312 
L 189.092437 -430.475312 
L 187.69394 -430.475312 
L 186.295444 -430.475312 
L 184.896948 -430.475312 
L 183.498452 -430.475312 
L 182.099955 -430.475312 
L 180.701459 -430.475312 
L 179.302963 -430.475312 
L 177.904467 -430.475312 
L 176.50597 -430.475312 
L 175.107474 -430.475312 
L 173.708978 -430.475312 
L 172.310482 -430.475312 
L 170.911985 -430.475312 
L 169.513489 -430.475312 
L 168.114993 -430.475312 
L 166.716497 -430.475312 
L 165.318 -430.475312 
L 163.919504 -430.475312 
L 162.521008 -430.475312 
L 161.122512 -430.475312 
L 159.724016 -430.475312 
L 158.325519 -430.475312 
L 156.927023 -430.475312 
L 155.528527 -430.475312 
L 154.130031 -430.475312 
L 152.731534 -430.475312 
L 151.333038 -430.475312 
L 149.934542 -430.475312 
L 148.536046 -430.475312 
L 147.137549 -430.475312 
L 145.739053 -430.475312 
L 144.340557 -430.475312 
L 142.942061 -430.475312 
L 141.543564 -430.475312 
L 140.145068 -430.475312 
L 138.746572 -430.475312 
L 137.348076 -430.475312 
L 135.949579 -430.475312 
L 134.551083 -430.475312 
L 133.152587 -430.475312 
L 131.754091 -430.475312 
L 130.355594 -430.475312 
L 128.957098 -430.475312 
L 127.558602 -430.475312 
L 126.160106 -430.475312 
L 124.761609 -430.475312 
L 123.363113 -430.475312 
L 121.964617 -430.475312 
L 120.566121 -430.475312 
L 119.167625 -430.475312 
L 117.769128 -430.475312 
L 116.370632 -430.475312 
L 114.972136 -430.475312 
L 113.57364 -430.475312 
L 112.175143 -430.475312 
L 110.776647 -430.475312 
L 109.378151 -430.475312 
L 107.979655 -430.475312 
L 106.581158 -430.475312 
L 105.182662 -430.475312 
L 103.784166 -430.475312 
L 102.38567 -430.475312 
L 100.987173 -430.475312 
L 99.588677 -430.475312 
L 98.190181 -430.475312 
L 96.791685 -430.475312 
L 95.393188 -430.475312 
L 93.994692 -430.475312 
L 92.596196 -430.475312 
L 91.1977 -430.475312 
L 89.799203 -430.475312 
L 88.400707 -430.475312 
L 87.002211 -430.475312 
L 85.603715 -430.475312 
L 84.205219 -430.475312 
L 82.806722 -430.475312 
L 81.408226 -430.475312 
L 80.00973 -430.475312 
L 78.611234 -430.475312 
L 77.212737 -430.475312 
L 75.814241 -430.475312 
L 74.415745 -430.475312 
L 73.017249 -430.475312 
L 71.618752 -430.475312 
L 70.220256 -430.475312 
L 68.82176 -430.475312 
L 67.423264 -430.475312 
L 66.024767 -430.475312 
L 64.626271 -430.475312 
L 63.227775 -430.475312 
L 61.829279 -430.475312 
L 60.430782 -430.475312 
L 59.032286 -430.475312 
L 57.63379 -430.475312 
L 56.235294 -430.475312 
L 54.836797 -430.475312 
L 53.438301 -430.475312 
L 52.039805 -430.475312 
L 50.641309 -430.475312 
L 49.242813 -430.475312 
z
" style="stroke: #1f77b4; stroke-opacity: 0.15"/>
    </defs>
    <g clip-path="url(#pf35dd56a73)">
     <use xlink:href="#m15e35bd10c" x="0" y="457.3525" style="fill: #1f77b4; fill-opacity: 0.15; stroke: #1f77b4; stroke-opacity: 0.15"/>
    </g>
   </g>
   <g id="matplotlib.axis_1">
    <g id="xtick_1">
     <g id="line2d_1">
      <path d="M 49.242813 414.957187 
L 49.242813 26.877187 
" clip-path="url(#pf35dd56a73)" style="fill: none; stroke: #b0b0b0; stroke-opacity: 0.25; stroke-width: 0.8; stroke-linecap: square"/>
     </g>
     <g id="line2d_2">
      <defs>
       <path id="m1445a38571" d="M 0 0 
L 0 3.5 
" style="stroke: #000000; stroke-width: 0.8"/>
      </defs>
      <g>
       <use xlink:href="#m1445a38571" x="49.242813" y="414.957187" style="stroke: #000000; stroke-width: 0.8"/>
      </g>
     </g>
     <g id="text_1">
      <!-- 0.0 -->
      <g transform="translate(40.496094 430.315469) scale(0.11 -0.11)">
       <defs>
        <path id="DejaVuSans-30" d="M 2034 4250 
Q 1547 4250 1301 3770 
Q 1056 3291 1056 2328 
Q 1056 1369 1301 889 
Q 1547 409 2034 409 
Q 2525 409 2770 889 
Q 3016 1369 3016 2328 
Q 3016 3291 2770 3770 
Q 2525 4250 2034 4250 
z
M 2034 4750 
Q 2819 4750 3233 4129 
Q 3647 3509 3647 2328 
Q 3647 1150 3233 529 
Q 2819 -91 2034 -91 
Q 1250 -91 836 529 
Q 422 1150 422 2328 
Q 422 3509 836 4129 
Q 1250 4750 2034 4750 
z
" transform="scale(0.015625)"/>
        <path id="DejaVuSans-2e" d="M 684 794 
L 1344 794 
L 1344 0 
L 684 0 
L 684 794 
z
" transform="scale(0.015625)"/>
       </defs>
       <use xlink:href="#DejaVuSans-30"/>
       <use xlink:href="#DejaVuSans-2e" transform="translate(63.623047 0)"/>
       <use xlink:href="#DejaVuSans-30" transform="translate(95.410156 0)"/>
      </g>
     </g>
    </g>
    <g id="xtick_2">
     <g id="line2d_3">
      <path d="M 160.842813 414.957187 
L 160.842813 26.877187 
" clip-path="url(#pf35dd56a73)" style="fill: none; stroke: #b0b0b0; stroke-opacity: 0.25; stroke-width: 0.8; stroke-linecap: square"/>
     </g>
     <g id="line2d_4">
      <g>
       <use xlink:href="#m1445a38571" x="160.842813" y="414.957187" style="stroke: #000000; stroke-width: 0.8"/>
      </g>
     </g>
     <g id="text_2">
      <!-- 0.2 -->
      <g transform="translate(152.096094 430.315469) scale(0.11 -0.11)">
       <defs>
        <path id="DejaVuSans-32" d="M 1228 531 
L 3431 531 
L 3431 0 
L 469 0 
L 469 531 
Q 828 903 1448 1529 
Q 2069 2156 2228 2338 
Q 2531 2678 2651 2914 
Q 2772 3150 2772 3378 
Q 2772 3750 2511 3984 
Q 2250 4219 1831 4219 
Q 1534 4219 1204 4116 
Q 875 4013 500 3803 
L 500 4441 
Q 881 4594 1212 4672 
Q 1544 4750 1819 4750 
Q 2544 4750 2975 4387 
Q 3406 4025 3406 3419 
Q 3406 3131 3298 2873 
Q 3191 2616 2906 2266 
Q 2828 2175 2409 1742 
Q 1991 1309 1228 531 
z
" transform="scale(0.015625)"/>
       </defs>
       <use xlink:href="#DejaVuSans-30"/>
       <use xlink:href="#DejaVuSans-2e" transform="translate(63.623047 0)"/>
       <use xlink:href="#DejaVuSans-32" transform="translate(95.410156 0)"/>
      </g>
     </g>
    </g>
    <g id="xtick_3">
     <g id="line2d_5">
      <path d="M 272.442813 414.957187 
L 272.442813 26.877187 
" clip-path="url(#pf35dd56a73)" style="fill: none; stroke: #b0b0b0; stroke-opacity: 0.25; stroke-width: 0.8; stroke-linecap: square"/>
     </g>
     <g id="line2d_6">
      <g>
       <use xlink:href="#m1445a38571" x="272.442813" y="414.957187" style="stroke: #000000; stroke-width: 0.8"/>
      </g>
     </g>
     <g id="text_3">
      <!-- 0.4 -->
      <g transform="translate(263.696094 430.315469) scale(0.11 -0.11)">
       <defs>
        <path id="DejaVuSans-34" d="M 2419 4116 
L 825 1625 
L 2419 1625 
L 2419 4116 
z
M 2253 4666 
L 3047 4666 
L 3047 1625 
L 3713 1625 
L 3713 1100 
L 3047 1100 
L 3047 0 
L 2419 0 
L 2419 1100 
L 313 1100 
L 313 1709 
L 2253 4666 
z
" transform="scale(0.015625)"/>
       </defs>
       <use xlink:href="#DejaVuSans-30"/>
       <use xlink:href="#DejaVuSans-2e" transform="translate(63.623047 0)"/>
       <use xlink:href="#DejaVuSans-34" transform="translate(95.410156 0)"/>
      </g>
     </g>
    </g>
    <g id="xtick_4">
     <g id="line2d_7">
      <path d="M 384.042813 414.957187 
L 384.042813 26.877187 
" clip-path="url(#pf35dd56a73)" style="fill: none; stroke: #b0b0b0; stroke-opacity: 0.25; stroke-width: 0.8; stroke-linecap: square"/>
     </g>
     <g id="line2d_8">
      <g>
       <use xlink:href="#m1445a38571" x="384.042813" y="414.957187" style="stroke: #000000; stroke-width: 0.8"/>
      </g>
     </g>
     <g id="text_4">
      <!-- 0.6 -->
      <g transform="translate(375.296094 430.315469) scale(0.11 -0.11)">
       <defs>
        <path id="DejaVuSans-36" d="M 2113 2584 
Q 1688 2584 1439 2293 
Q 1191 2003 1191 1497 
Q 1191 994 1439 701 
Q 1688 409 2113 409 
Q 2538 409 2786 701 
Q 3034 994 3034 1497 
Q 3034 2003 2786 2293 
Q 2538 2584 2113 2584 
z
M 3366 4563 
L 3366 3988 
Q 3128 4100 2886 4159 
Q 2644 4219 2406 4219 
Q 1781 4219 1451 3797 
Q 1122 3375 1075 2522 
Q 1259 2794 1537 2939 
Q 1816 3084 2150 3084 
Q 2853 3084 3261 2657 
Q 3669 2231 3669 1497 
Q 3669 778 3244 343 
Q 2819 -91 2113 -91 
Q 1303 -91 875 529 
Q 447 1150 447 2328 
Q 447 3434 972 4092 
Q 1497 4750 2381 4750 
Q 2619 4750 2861 4703 
Q 3103 4656 3366 4563 
z
" transform="scale(0.015625)"/>
       </defs>
       <use xlink:href="#DejaVuSans-30"/>
       <use xlink:href="#DejaVuSans-2e" transform="translate(63.623047 0)"/>
       <use xlink:href="#DejaVuSans-36" transform="translate(95.410156 0)"/>
      </g>
     </g>
    </g>
    <g id="xtick_5">
     <g id="line2d_9">
      <path d="M 495.642813 414.957187 
L 495.642813 26.877187 
" clip-path="url(#pf35dd56a73)" style="fill: none; stroke: #b0b0b0; stroke-opacity: 0.25; stroke-width: 0.8; stroke-linecap: square"/>
     </g>
     <g id="line2d_10">
      <g>
       <use xlink:href="#m1445a38571" x="495.642813" y="414.957187" style="stroke: #000000; stroke-width: 0.8"/>
      </g>
     </g>
     <g id="text_5">
      <!-- 0.8 -->
      <g transform="translate(486.896094 430.315469) scale(0.11 -0.11)">
       <defs>
        <path id="DejaVuSans-38" d="M 2034 2216 
Q 1584 2216 1326 1975 
Q 1069 1734 1069 1313 
Q 1069 891 1326 650 
Q 1584 409 2034 409 
Q 2484 409 2743 651 
Q 3003 894 3003 1313 
Q 3003 1734 2745 1975 
Q 2488 2216 2034 2216 
z
M 1403 2484 
Q 997 2584 770 2862 
Q 544 3141 544 3541 
Q 544 4100 942 4425 
Q 1341 4750 2034 4750 
Q 2731 4750 3128 4425 
Q 3525 4100 3525 3541 
Q 3525 3141 3298 2862 
Q 3072 2584 2669 2484 
Q 3125 2378 3379 2068 
Q 3634 1759 3634 1313 
Q 3634 634 3220 271 
Q 2806 -91 2034 -91 
Q 1263 -91 848 271 
Q 434 634 434 1313 
Q 434 1759 690 2068 
Q 947 2378 1403 2484 
z
M 1172 3481 
Q 1172 3119 1398 2916 
Q 1625 2713 2034 2713 
Q 2441 2713 2670 2916 
Q 2900 3119 2900 3481 
Q 2900 3844 2670 4047 
Q 2441 4250 2034 4250 
Q 1625 4250 1398 4047 
Q 1172 3844 1172 3481 
z
" transform="scale(0.015625)"/>
       </defs>
       <use xlink:href="#DejaVuSans-30"/>
       <use xlink:href="#DejaVuSans-2e" transform="translate(63.623047 0)"/>
       <use xlink:href="#DejaVuSans-38" transform="translate(95.410156 0)"/>
      </g>
     </g>
    </g>
    <g id="xtick_6">
     <g id="line2d_11">
      <path d="M 607.242813 414.957187 
L 607.242813 26.877187 
" clip-path="url(#pf35dd56a73)" style="fill: none; stroke: #b0b0b0; stroke-opacity: 0.25; stroke-width: 0.8; stroke-linecap: square"/>
     </g>
     <g id="line2d_12">
      <g>
       <use xlink:href="#m1445a38571" x="607.242813" y="414.957187" style="stroke: #000000; stroke-width: 0.8"/>
      </g>
     </g>
     <g id="text_6">
      <!-- 1.0 -->
      <g transform="translate(598.496094 430.315469) scale(0.11 -0.11)">
       <defs>
        <path id="DejaVuSans-31" d="M 794 531 
L 1825 531 
L 1825 4091 
L 703 3866 
L 703 4441 
L 1819 4666 
L 2450 4666 
L 2450 531 
L 3481 531 
L 3481 0 
L 794 0 
L 794 531 
z
" transform="scale(0.015625)"/>
       </defs>
       <use xlink:href="#DejaVuSans-31"/>
       <use xlink:href="#DejaVuSans-2e" transform="translate(63.623047 0)"/>
       <use xlink:href="#DejaVuSans-30" transform="translate(95.410156 0)"/>
      </g>
     </g>
    </g>
    <g id="text_7">
     <!-- Recall -->
     <g transform="translate(307.35875 447.240937) scale(0.14 -0.14)">
      <defs>
       <path id="DejaVuSans-52" d="M 2841 2188 
Q 3044 2119 3236 1894 
Q 3428 1669 3622 1275 
L 4263 0 
L 3584 0 
L 2988 1197 
Q 2756 1666 2539 1819 
Q 2322 1972 1947 1972 
L 1259 1972 
L 1259 0 
L 628 0 
L 628 4666 
L 2053 4666 
Q 2853 4666 3247 4331 
Q 3641 3997 3641 3322 
Q 3641 2881 3436 2590 
Q 3231 2300 2841 2188 
z
M 1259 4147 
L 1259 2491 
L 2053 2491 
Q 2509 2491 2742 2702 
Q 2975 2913 2975 3322 
Q 2975 3731 2742 3939 
Q 2509 4147 2053 4147 
L 1259 4147 
z
" transform="scale(0.015625)"/>
       <path id="DejaVuSans-65" d="M 3597 1894 
L 3597 1613 
L 953 1613 
Q 991 1019 1311 708 
Q 1631 397 2203 397 
Q 2534 397 2845 478 
Q 3156 559 3463 722 
L 3463 178 
Q 3153 47 2828 -22 
Q 2503 -91 2169 -91 
Q 1331 -91 842 396 
Q 353 884 353 1716 
Q 353 2575 817 3079 
Q 1281 3584 2069 3584 
Q 2775 3584 3186 3129 
Q 3597 2675 3597 1894 
z
M 3022 2063 
Q 3016 2534 2758 2815 
Q 2500 3097 2075 3097 
Q 1594 3097 1305 2825 
Q 1016 2553 972 2059 
L 3022 2063 
z
" transform="scale(0.015625)"/>
       <path id="DejaVuSans-63" d="M 3122 3366 
L 3122 2828 
Q 2878 2963 2633 3030 
Q 2388 3097 2138 3097 
Q 1578 3097 1268 2742 
Q 959 2388 959 1747 
Q 959 1106 1268 751 
Q 1578 397 2138 397 
Q 2388 397 2633 464 
Q 2878 531 3122 666 
L 3122 134 
Q 2881 22 2623 -34 
Q 2366 -91 2075 -91 
Q 1284 -91 818 406 
Q 353 903 353 1747 
Q 353 2603 823 3093 
Q 1294 3584 2113 3584 
Q 2378 3584 2631 3529 
Q 2884 3475 3122 3366 
z
" transform="scale(0.015625)"/>
       <path id="DejaVuSans-61" d="M 2194 1759 
Q 1497 1759 1228 1600 
Q 959 1441 959 1056 
Q 959 750 1161 570 
Q 1363 391 1709 391 
Q 2188 391 2477 730 
Q 2766 1069 2766 1631 
L 2766 1759 
L 2194 1759 
z
M 3341 1997 
L 3341 0 
L 2766 0 
L 2766 531 
Q 2569 213 2275 61 
Q 1981 -91 1556 -91 
Q 1019 -91 701 211 
Q 384 513 384 1019 
Q 384 1609 779 1909 
Q 1175 2209 1959 2209 
L 2766 2209 
L 2766 2266 
Q 2766 2663 2505 2880 
Q 2244 3097 1772 3097 
Q 1472 3097 1187 3025 
Q 903 2953 641 2809 
L 641 3341 
Q 956 3463 1253 3523 
Q 1550 3584 1831 3584 
Q 2591 3584 2966 3190 
Q 3341 2797 3341 1997 
z
" transform="scale(0.015625)"/>
       <path id="DejaVuSans-6c" d="M 603 4863 
L 1178 4863 
L 1178 0 
L 603 0 
L 603 4863 
z
" transform="scale(0.015625)"/>
      </defs>
      <use xlink:href="#DejaVuSans-52"/>
      <use xlink:href="#DejaVuSans-65" transform="translate(64.982422 0)"/>
      <use xlink:href="#DejaVuSans-63" transform="translate(126.505859 0)"/>
      <use xlink:href="#DejaVuSans-61" transform="translate(181.486328 0)"/>
      <use xlink:href="#DejaVuSans-6c" transform="translate(242.765625 0)"/>
      <use xlink:href="#DejaVuSans-6c" transform="translate(270.548828 0)"/>
     </g>
    </g>
   </g>
   <g id="matplotlib.axis_2">
    <g id="ytick_1">
     <g id="line2d_13">
      <path d="M 49.242813 414.957187 
L 607.242813 414.957187 
" clip-path="url(#pf35dd56a73)" style="fill: none; stroke: #b0b0b0; stroke-opacity: 0.25; stroke-width: 0.8; stroke-linecap: square"/>
     </g>
     <g id="line2d_14">
      <defs>
       <path id="mcbba6ff098" d="M 0 0 
L -3.5 0 
" style="stroke: #000000; stroke-width: 0.8"/>
      </defs>
      <g>
       <use xlink:href="#mcbba6ff098" x="49.242813" y="414.957187" style="stroke: #000000; stroke-width: 0.8"/>
      </g>
     </g>
     <g id="text_8">
      <!-- 0.0 -->
      <g transform="translate(24.749375 419.136328) scale(0.11 -0.11)">
       <use xlink:href="#DejaVuSans-30"/>
       <use xlink:href="#DejaVuSans-2e" transform="translate(63.623047 0)"/>
       <use xlink:href="#DejaVuSans-30" transform="translate(95.410156 0)"/>
      </g>
     </g>
    </g>
    <g id="ytick_2">
     <g id="line2d_15">
      <path d="M 49.242813 337.341187 
L 607.242813 337.341187 
" clip-path="url(#pf35dd56a73)" style="fill: none; stroke: #b0b0b0; stroke-opacity: 0.25; stroke-width: 0.8; stroke-linecap: square"/>
     </g>
     <g id="line2d_16">
      <g>
       <use xlink:href="#mcbba6ff098" x="49.242813" y="337.341187" style="stroke: #000000; stroke-width: 0.8"/>
      </g>
     </g>
     <g id="text_9">
      <!-- 0.2 -->
      <g transform="translate(24.749375 341.520328) scale(0.11 -0.11)">
       <use xlink:href="#DejaVuSans-30"/>
       <use xlink:href="#DejaVuSans-2e" transform="translate(63.623047 0)"/>
       <use xlink:href="#DejaVuSans-32" transform="translate(95.410156 0)"/>
      </g>
     </g>
    </g>
    <g id="ytick_3">
     <g id="line2d_17">
      <path d="M 49.242813 259.725187 
L 607.242813 259.725187 
" clip-path="url(#pf35dd56a73)" style="fill: none; stroke: #b0b0b0; stroke-opacity: 0.25; stroke-width: 0.8; stroke-linecap: square"/>
     </g>
     <g id="line2d_18">
      <g>
       <use xlink:href="#mcbba6ff098" x="49.242813" y="259.725187" style="stroke: #000000; stroke-width: 0.8"/>
      </g>
     </g>
     <g id="text_10">
      <!-- 0.4 -->
      <g transform="translate(24.749375 263.904328) scale(0.11 -0.11)">
       <use xlink:href="#DejaVuSans-30"/>
       <use xlink:href="#DejaVuSans-2e" transform="translate(63.623047 0)"/>
       <use xlink:href="#DejaVuSans-34" transform="translate(95.410156 0)"/>
      </g>
     </g>
    </g>
    <g id="ytick_4">
     <g id="line2d_19">
      <path d="M 49.242813 182.109187 
L 607.242813 182.109187 
" clip-path="url(#pf35dd56a73)" style="fill: none; stroke: #b0b0b0; stroke-opacity: 0.25; stroke-width: 0.8; stroke-linecap: square"/>
     </g>
     <g id="line2d_20">
      <g>
       <use xlink:href="#mcbba6ff098" x="49.242813" y="182.109187" style="stroke: #000000; stroke-width: 0.8"/>
      </g>
     </g>
     <g id="text_11">
      <!-- 0.6 -->
      <g transform="translate(24.749375 186.288328) scale(0.11 -0.11)">
       <use xlink:href="#DejaVuSans-30"/>
       <use xlink:href="#DejaVuSans-2e" transform="translate(63.623047 0)"/>
       <use xlink:href="#DejaVuSans-36" transform="translate(95.410156 0)"/>
      </g>
     </g>
    </g>
    <g id="ytick_5">
     <g id="line2d_21">
      <path d="M 49.242813 104.493187 
L 607.242813 104.493187 
" clip-path="url(#pf35dd56a73)" style="fill: none; stroke: #b0b0b0; stroke-opacity: 0.25; stroke-width: 0.8; stroke-linecap: square"/>
     </g>
     <g id="line2d_22">
      <g>
       <use xlink:href="#mcbba6ff098" x="49.242813" y="104.493187" style="stroke: #000000; stroke-width: 0.8"/>
      </g>
     </g>
     <g id="text_12">
      <!-- 0.8 -->
      <g transform="translate(24.749375 108.672328) scale(0.11 -0.11)">
       <use xlink:href="#DejaVuSans-30"/>
       <use xlink:href="#DejaVuSans-2e" transform="translate(63.623047 0)"/>
       <use xlink:href="#DejaVuSans-38" transform="translate(95.410156 0)"/>
      </g>
     </g>
    </g>
    <g id="ytick_6">
     <g id="line2d_23">
      <path d="M 49.242813 26.877187 
L 607.242813 26.877187 
" clip-path="url(#pf35dd56a73)" style="fill: none; stroke: #b0b0b0; stroke-opacity: 0.25; stroke-width: 0.8; stroke-linecap: square"/>
     </g>
     <g id="line2d_24">
      <g>
       <use xlink:href="#mcbba6ff098" x="49.242813" y="26.877187" style="stroke: #000000; stroke-width: 0.8"/>
      </g>
     </g>
     <g id="text_13">
      <!-- 1.0 -->
      <g transform="translate(24.749375 31.056328) scale(0.11 -0.11)">
       <use xlink:href="#DejaVuSans-31"/>
       <use xlink:href="#DejaVuSans-2e" transform="translate(63.623047 0)"/>
       <use xlink:href="#DejaVuSans-30" transform="translate(95.410156 0)"/>
      </g>
     </g>
    </g>
    <g id="text_14">
     <!-- Precision -->
     <g transform="translate(17.837813 252.147031) rotate(-90) scale(0.14 -0.14)">
      <defs>
       <path id="DejaVuSans-50" d="M 1259 4147 
L 1259 2394 
L 2053 2394 
Q 2494 2394 2734 2622 
Q 2975 2850 2975 3272 
Q 2975 3691 2734 3919 
Q 2494 4147 2053 4147 
L 1259 4147 
z
M 628 4666 
L 2053 4666 
Q 2838 4666 3239 4311 
Q 3641 3956 3641 3272 
Q 3641 2581 3239 2228 
Q 2838 1875 2053 1875 
L 1259 1875 
L 1259 0 
L 628 0 
L 628 4666 
z
" transform="scale(0.015625)"/>
       <path id="DejaVuSans-72" d="M 2631 2963 
Q 2534 3019 2420 3045 
Q 2306 3072 2169 3072 
Q 1681 3072 1420 2755 
Q 1159 2438 1159 1844 
L 1159 0 
L 581 0 
L 581 3500 
L 1159 3500 
L 1159 2956 
Q 1341 3275 1631 3429 
Q 1922 3584 2338 3584 
Q 2397 3584 2469 3576 
Q 2541 3569 2628 3553 
L 2631 2963 
z
" transform="scale(0.015625)"/>
       <path id="DejaVuSans-69" d="M 603 3500 
L 1178 3500 
L 1178 0 
L 603 0 
L 603 3500 
z
M 603 4863 
L 1178 4863 
L 1178 4134 
L 603 4134 
L 603 4863 
z
" transform="scale(0.015625)"/>
       <path id="DejaVuSans-73" d="M 2834 3397 
L 2834 2853 
Q 2591 2978 2328 3040 
Q 2066 3103 1784 3103 
Q 1356 3103 1142 2972 
Q 928 2841 928 2578 
Q 928 2378 1081 2264 
Q 1234 2150 1697 2047 
L 1894 2003 
Q 2506 1872 2764 1633 
Q 3022 1394 3022 966 
Q 3022 478 2636 193 
Q 2250 -91 1575 -91 
Q 1294 -91 989 -36 
Q 684 19 347 128 
L 347 722 
Q 666 556 975 473 
Q 1284 391 1588 391 
Q 1994 391 2212 530 
Q 2431 669 2431 922 
Q 2431 1156 2273 1281 
Q 2116 1406 1581 1522 
L 1381 1569 
Q 847 1681 609 1914 
Q 372 2147 372 2553 
Q 372 3047 722 3315 
Q 1072 3584 1716 3584 
Q 2034 3584 2315 3537 
Q 2597 3491 2834 3397 
z
" transform="scale(0.015625)"/>
       <path id="DejaVuSans-6f" d="M 1959 3097 
Q 1497 3097 1228 2736 
Q 959 2375 959 1747 
Q 959 1119 1226 758 
Q 1494 397 1959 397 
Q 2419 397 2687 759 
Q 2956 1122 2956 1747 
Q 2956 2369 2687 2733 
Q 2419 3097 1959 3097 
z
M 1959 3584 
Q 2709 3584 3137 3096 
Q 3566 2609 3566 1747 
Q 3566 888 3137 398 
Q 2709 -91 1959 -91 
Q 1206 -91 779 398 
Q 353 888 353 1747 
Q 353 2609 779 3096 
Q 1206 3584 1959 3584 
z
" transform="scale(0.015625)"/>
       <path id="DejaVuSans-6e" d="M 3513 2113 
L 3513 0 
L 2938 0 
L 2938 2094 
Q 2938 2591 2744 2837 
Q 2550 3084 2163 3084 
Q 1697 3084 1428 2787 
Q 1159 2491 1159 1978 
L 1159 0 
L 581 0 
L 581 3500 
L 1159 3500 
L 1159 2956 
Q 1366 3272 1645 3428 
Q 1925 3584 2291 3584 
Q 2894 3584 3203 3211 
Q 3513 2838 3513 2113 
z
" transform="scale(0.015625)"/>
      </defs>
      <use xlink:href="#DejaVuSans-50"/>
      <use xlink:href="#DejaVuSans-72" transform="translate(58.552734 0)"/>
      <use xlink:href="#DejaVuSans-65" transform="translate(97.416016 0)"/>
      <use xlink:href="#DejaVuSans-63" transform="translate(158.939453 0)"/>
      <use xlink:href="#DejaVuSans-69" transform="translate(213.919922 0)"/>
      <use xlink:href="#DejaVuSans-73" transform="translate(241.703125 0)"/>
      <use xlink:href="#DejaVuSans-69" transform="translate(293.802734 0)"/>
      <use xlink:href="#DejaVuSans-6f" transform="translate(321.585938 0)"/>
      <use xlink:href="#DejaVuSans-6e" transform="translate(382.767578 0)"/>
     </g>
    </g>
   </g>
   <g id="line2d_25">
    <path d="M 49.242813 52.749188 
L 56.235294 46.751293 
L 57.63379 45.843503 
L 63.227775 42.964514 
L 64.626271 44.02638 
L 71.618752 41.741468 
L 73.017249 42.139309 
L 78.611234 44.459374 
L 80.00973 41.431667 
L 87.002211 43.500851 
L 99.588677 41.743861 
L 100.987173 41.563924 
L 102.38567 42.648228 
L 109.378151 41.876569 
L 110.776647 42.776416 
L 123.363113 41.613773 
L 124.761609 41.96011 
L 131.754091 41.400306 
L 133.152587 41.73268 
L 154.130031 40.302378 
L 156.927023 40.360991 
L 161.122512 40.562645 
L 162.521008 39.82203 
L 170.911985 40.152135 
L 173.708978 40.006731 
L 175.107474 40.201503 
L 176.50597 40.598907 
L 177.904467 41.367314 
L 183.498452 42.973545 
L 184.896948 45.638273 
L 186.295444 46.358623 
L 191.889429 46.517476 
L 193.287925 47.173946 
L 194.686422 48.016878 
L 201.678903 47.531363 
L 203.077399 47.477328 
L 204.475895 48.242451 
L 205.874391 50.289452 
L 207.272888 50.405086 
L 208.671384 50.235646 
L 210.06988 50.353993 
L 211.468376 51.266634 
L 214.265369 51.228559 
L 218.460858 51.364184 
L 221.25785 52.187223 
L 222.656346 51.898758 
L 224.054843 52.799075 
L 225.453339 51.77498 
L 229.648828 54.759839 
L 231.047324 54.222091 
L 232.44582 54.175845 
L 236.641309 55.952747 
L 238.039805 55.817736 
L 242.235294 57.311042 
L 243.63379 57.653871 
L 245.032286 56.576318 
L 246.430782 56.700936 
L 249.227775 57.338192 
L 250.626271 57.142609 
L 252.024767 57.352816 
L 253.423264 57.355713 
L 254.82176 58.228115 
L 257.618752 58.118822 
L 259.017249 58.635517 
L 260.415745 58.710404 
L 261.814241 59.162384 
L 264.611234 59.130769 
L 266.00973 60.383382 
L 268.806722 60.669909 
L 270.205219 60.349253 
L 271.603715 60.437835 
L 273.002211 59.979332 
L 277.1977 60.135204 
L 279.994692 60.040507 
L 282.791685 59.782473 
L 284.190181 60.085175 
L 285.588677 60.017999 
L 286.987173 60.666089 
L 289.784166 61.017038 
L 291.182662 61.267658 
L 293.979655 60.489794 
L 295.378151 60.958798 
L 296.776647 61.026409 
L 298.175143 61.899575 
L 300.972136 61.496668 
L 303.769128 61.765679 
L 305.167625 61.859928 
L 306.566121 61.83046 
L 307.964617 62.580978 
L 310.761609 62.437831 
L 313.558602 62.50126 
L 314.957098 62.610978 
L 316.355594 62.350485 
L 317.754091 62.460797 
L 319.152587 63.082361 
L 320.551083 63.40612 
L 321.949579 64.013434 
L 324.746572 64.93543 
L 326.145068 64.817611 
L 327.543564 65.1819 
L 328.942061 64.516636 
L 330.340557 64.992895 
L 331.739053 64.979637 
L 334.536046 65.649251 
L 335.934542 65.625009 
L 340.130031 66.735137 
L 341.528527 66.289315 
L 344.325519 67.110182 
L 347.122512 66.830139 
L 349.919504 67.186098 
L 351.318 67.993019 
L 352.716497 68.061436 
L 354.114993 69.419141 
L 355.513489 69.782273 
L 356.911985 69.944769 
L 358.310482 70.629715 
L 359.708978 70.768387 
L 363.904467 71.766679 
L 365.302963 72.218044 
L 366.701459 72.414823 
L 368.099955 72.772729 
L 369.498452 73.41066 
L 370.896948 74.805908 
L 372.295444 73.981453 
L 373.69394 73.716156 
L 376.490933 74.420115 
L 377.889429 74.386944 
L 379.287925 74.658683 
L 380.686422 75.25135 
L 384.88191 75.546783 
L 386.280406 76.011161 
L 387.678903 77.329086 
L 390.475895 77.503384 
L 391.874391 78.420668 
L 393.272888 78.645968 
L 394.671384 79.054968 
L 396.06988 79.341821 
L 397.468376 78.91564 
L 398.866873 79.126071 
L 400.265369 79.013568 
L 401.663865 79.933364 
L 408.656346 81.185008 
L 410.054843 84.209576 
L 411.453339 84.612496 
L 412.851835 84.388325 
L 417.047324 85.435062 
L 418.44582 85.566112 
L 419.844316 85.498806 
L 421.242813 85.247318 
L 424.039805 85.561435 
L 425.438301 85.826293 
L 426.836797 85.526803 
L 431.032286 86.238947 
L 432.430782 87.039594 
L 433.829279 86.768957 
L 435.227775 86.867938 
L 436.626271 87.245997 
L 438.024767 87.344925 
L 439.423264 87.915296 
L 440.82176 87.561613 
L 442.220256 88.045656 
L 445.017249 88.526613 
L 446.415745 88.565056 
L 447.814241 88.889695 
L 450.611234 90.05328 
L 452.00973 90.288186 
L 453.408226 89.416181 
L 459.002211 91.407524 
L 461.799203 92.028866 
L 464.596196 92.167587 
L 465.994692 91.780239 
L 471.588677 91.555664 
L 475.784166 91.856188 
L 477.182662 91.26908 
L 482.776647 91.781518 
L 484.175143 91.754593 
L 488.370632 92.456607 
L 489.769128 92.71369 
L 493.964617 92.460277 
L 495.363113 92.472797 
L 500.957098 92.875395 
L 502.355594 92.83969 
L 503.754091 93.348067 
L 507.949579 93.736122 
L 509.348076 94.086862 
L 510.746572 94.23813 
L 512.145068 94.611439 
L 513.543564 95.401799 
L 517.739053 96.132936 
L 521.934542 97.759489 
L 524.731534 98.196663 
L 526.130031 98.057027 
L 527.528527 98.050659 
L 528.927023 97.843332 
L 531.724016 98.225921 
L 533.122512 98.107394 
L 534.521008 98.133573 
L 535.919504 97.970987 
L 537.318 98.052119 
L 538.716497 98.350844 
L 540.114993 98.471319 
L 541.513489 98.420007 
L 542.911985 98.870194 
L 544.310482 99.074605 
L 545.708978 99.470754 
L 547.107474 99.520532 
L 548.50597 99.284792 
L 549.904467 99.484654 
L 551.302963 99.799111 
L 554.099955 100.61082 
L 558.295444 102.831397 
L 559.69394 102.913924 
L 561.092437 104.660658 
L 563.889429 104.957636 
L 565.287925 105.375638 
L 568.084918 107.462827 
L 572.280406 107.914189 
L 573.678903 108.875331 
L 576.475895 110.005867 
L 577.874391 111.188426 
L 579.272888 111.711607 
L 580.671384 111.601879 
L 583.468376 114.456706 
L 584.866873 116.916863 
L 586.265369 118.698071 
L 587.663865 121.77486 
L 589.062361 122.572752 
L 590.460858 124.540518 
L 591.859354 125.598882 
L 593.25785 126.813202 
L 594.656346 129.631353 
L 597.453339 131.966421 
L 598.851835 135.286921 
L 600.250331 137.376112 
L 601.648828 139.665589 
L 604.44582 151.341239 
L 605.844316 156.974734 
L 607.242813 173.831025 
L 607.242813 173.831025 
" clip-path="url(#pf35dd56a73)" style="fill: none; stroke: #1f77b4; stroke-width: 2.5; stroke-linecap: square"/>
   </g>
   <g id="patch_3">
    <path d="M 49.242813 414.957187 
L 49.242813 26.877187 
" style="fill: none; stroke: #000000; stroke-width: 0.8; stroke-linejoin: miter; stroke-linecap: square"/>
   </g>
   <g id="patch_4">
    <path d="M 607.242813 414.957187 
L 607.242813 26.877187 
" style="fill: none; stroke: #000000; stroke-width: 0.8; stroke-linejoin: miter; stroke-linecap: square"/>
   </g>
   <g id="patch_5">
    <path d="M 49.242813 414.957187 
L 607.242813 414.957187 
" style="fill: none; stroke: #000000; stroke-width: 0.8; stroke-linejoin: miter; stroke-linecap: square"/>
   </g>
   <g id="patch_6">
    <path d="M 49.242813 26.877187 
L 607.242813 26.877187 
" style="fill: none; stroke: #000000; stroke-width: 0.8; stroke-linejoin: miter; stroke-linecap: square"/>
   </g>
   <g id="text_15">
    <!-- Logistic Regression (tuned): Mean PR Curve (AP=0.889 +/- 0.119) -->
    <g transform="translate(31.3975 20.877187) scale(0.18 -0.18)">
     <defs>
      <path id="DejaVuSans-4c" d="M 628 4666 
L 1259 4666 
L 1259 531 
L 3531 531 
L 3531 0 
L 628 0 
L 628 4666 
z
" transform="scale(0.015625)"/>
      <path id="DejaVuSans-67" d="M 2906 1791 
Q 2906 2416 2648 2759 
Q 2391 3103 1925 3103 
Q 1463 3103 1205 2759 
Q 947 2416 947 1791 
Q 947 1169 1205 825 
Q 1463 481 1925 481 
Q 2391 481 2648 825 
Q 2906 1169 2906 1791 
z
M 3481 434 
Q 3481 -459 3084 -895 
Q 2688 -1331 1869 -1331 
Q 1566 -1331 1297 -1286 
Q 1028 -1241 775 -1147 
L 775 -588 
Q 1028 -725 1275 -790 
Q 1522 -856 1778 -856 
Q 2344 -856 2625 -561 
Q 2906 -266 2906 331 
L 2906 616 
Q 2728 306 2450 153 
Q 2172 0 1784 0 
Q 1141 0 747 490 
Q 353 981 353 1791 
Q 353 2603 747 3093 
Q 1141 3584 1784 3584 
Q 2172 3584 2450 3431 
Q 2728 3278 2906 2969 
L 2906 3500 
L 3481 3500 
L 3481 434 
z
" transform="scale(0.015625)"/>
      <path id="DejaVuSans-74" d="M 1172 4494 
L 1172 3500 
L 2356 3500 
L 2356 3053 
L 1172 3053 
L 1172 1153 
Q 1172 725 1289 603 
Q 1406 481 1766 481 
L 2356 481 
L 2356 0 
L 1766 0 
Q 1100 0 847 248 
Q 594 497 594 1153 
L 594 3053 
L 172 3053 
L 172 3500 
L 594 3500 
L 594 4494 
L 1172 4494 
z
" transform="scale(0.015625)"/>
      <path id="DejaVuSans-20" transform="scale(0.015625)"/>
      <path id="DejaVuSans-28" d="M 1984 4856 
Q 1566 4138 1362 3434 
Q 1159 2731 1159 2009 
Q 1159 1288 1364 580 
Q 1569 -128 1984 -844 
L 1484 -844 
Q 1016 -109 783 600 
Q 550 1309 550 2009 
Q 550 2706 781 3412 
Q 1013 4119 1484 4856 
L 1984 4856 
z
" transform="scale(0.015625)"/>
      <path id="DejaVuSans-75" d="M 544 1381 
L 544 3500 
L 1119 3500 
L 1119 1403 
Q 1119 906 1312 657 
Q 1506 409 1894 409 
Q 2359 409 2629 706 
Q 2900 1003 2900 1516 
L 2900 3500 
L 3475 3500 
L 3475 0 
L 2900 0 
L 2900 538 
Q 2691 219 2414 64 
Q 2138 -91 1772 -91 
Q 1169 -91 856 284 
Q 544 659 544 1381 
z
M 1991 3584 
L 1991 3584 
z
" transform="scale(0.015625)"/>
      <path id="DejaVuSans-64" d="M 2906 2969 
L 2906 4863 
L 3481 4863 
L 3481 0 
L 2906 0 
L 2906 525 
Q 2725 213 2448 61 
Q 2172 -91 1784 -91 
Q 1150 -91 751 415 
Q 353 922 353 1747 
Q 353 2572 751 3078 
Q 1150 3584 1784 3584 
Q 2172 3584 2448 3432 
Q 2725 3281 2906 2969 
z
M 947 1747 
Q 947 1113 1208 752 
Q 1469 391 1925 391 
Q 2381 391 2643 752 
Q 2906 1113 2906 1747 
Q 2906 2381 2643 2742 
Q 2381 3103 1925 3103 
Q 1469 3103 1208 2742 
Q 947 2381 947 1747 
z
" transform="scale(0.015625)"/>
      <path id="DejaVuSans-29" d="M 513 4856 
L 1013 4856 
Q 1481 4119 1714 3412 
Q 1947 2706 1947 2009 
Q 1947 1309 1714 600 
Q 1481 -109 1013 -844 
L 513 -844 
Q 928 -128 1133 580 
Q 1338 1288 1338 2009 
Q 1338 2731 1133 3434 
Q 928 4138 513 4856 
z
" transform="scale(0.015625)"/>
      <path id="DejaVuSans-3a" d="M 750 794 
L 1409 794 
L 1409 0 
L 750 0 
L 750 794 
z
M 750 3309 
L 1409 3309 
L 1409 2516 
L 750 2516 
L 750 3309 
z
" transform="scale(0.015625)"/>
      <path id="DejaVuSans-4d" d="M 628 4666 
L 1569 4666 
L 2759 1491 
L 3956 4666 
L 4897 4666 
L 4897 0 
L 4281 0 
L 4281 4097 
L 3078 897 
L 2444 897 
L 1241 4097 
L 1241 0 
L 628 0 
L 628 4666 
z
" transform="scale(0.015625)"/>
      <path id="DejaVuSans-43" d="M 4122 4306 
L 4122 3641 
Q 3803 3938 3442 4084 
Q 3081 4231 2675 4231 
Q 1875 4231 1450 3742 
Q 1025 3253 1025 2328 
Q 1025 1406 1450 917 
Q 1875 428 2675 428 
Q 3081 428 3442 575 
Q 3803 722 4122 1019 
L 4122 359 
Q 3791 134 3420 21 
Q 3050 -91 2638 -91 
Q 1578 -91 968 557 
Q 359 1206 359 2328 
Q 359 3453 968 4101 
Q 1578 4750 2638 4750 
Q 3056 4750 3426 4639 
Q 3797 4528 4122 4306 
z
" transform="scale(0.015625)"/>
      <path id="DejaVuSans-76" d="M 191 3500 
L 800 3500 
L 1894 563 
L 2988 3500 
L 3597 3500 
L 2284 0 
L 1503 0 
L 191 3500 
z
" transform="scale(0.015625)"/>
      <path id="DejaVuSans-41" d="M 2188 4044 
L 1331 1722 
L 3047 1722 
L 2188 4044 
z
M 1831 4666 
L 2547 4666 
L 4325 0 
L 3669 0 
L 3244 1197 
L 1141 1197 
L 716 0 
L 50 0 
L 1831 4666 
z
" transform="scale(0.015625)"/>
      <path id="DejaVuSans-3d" d="M 678 2906 
L 4684 2906 
L 4684 2381 
L 678 2381 
L 678 2906 
z
M 678 1631 
L 4684 1631 
L 4684 1100 
L 678 1100 
L 678 1631 
z
" transform="scale(0.015625)"/>
      <path id="DejaVuSans-39" d="M 703 97 
L 703 672 
Q 941 559 1184 500 
Q 1428 441 1663 441 
Q 2288 441 2617 861 
Q 2947 1281 2994 2138 
Q 2813 1869 2534 1725 
Q 2256 1581 1919 1581 
Q 1219 1581 811 2004 
Q 403 2428 403 3163 
Q 403 3881 828 4315 
Q 1253 4750 1959 4750 
Q 2769 4750 3195 4129 
Q 3622 3509 3622 2328 
Q 3622 1225 3098 567 
Q 2575 -91 1691 -91 
Q 1453 -91 1209 -44 
Q 966 3 703 97 
z
M 1959 2075 
Q 2384 2075 2632 2365 
Q 2881 2656 2881 3163 
Q 2881 3666 2632 3958 
Q 2384 4250 1959 4250 
Q 1534 4250 1286 3958 
Q 1038 3666 1038 3163 
Q 1038 2656 1286 2365 
Q 1534 2075 1959 2075 
z
" transform="scale(0.015625)"/>
      <path id="DejaVuSans-2b" d="M 2944 4013 
L 2944 2272 
L 4684 2272 
L 4684 1741 
L 2944 1741 
L 2944 0 
L 2419 0 
L 2419 1741 
L 678 1741 
L 678 2272 
L 2419 2272 
L 2419 4013 
L 2944 4013 
z
" transform="scale(0.015625)"/>
      <path id="DejaVuSans-2f" d="M 1625 4666 
L 2156 4666 
L 531 -594 
L 0 -594 
L 1625 4666 
z
" transform="scale(0.015625)"/>
      <path id="DejaVuSans-2d" d="M 313 2009 
L 1997 2009 
L 1997 1497 
L 313 1497 
L 313 2009 
z
" transform="scale(0.015625)"/>
     </defs>
     <use xlink:href="#DejaVuSans-4c"/>
     <use xlink:href="#DejaVuSans-6f" transform="translate(53.962891 0)"/>
     <use xlink:href="#DejaVuSans-67" transform="translate(115.144531 0)"/>
     <use xlink:href="#DejaVuSans-69" transform="translate(178.621094 0)"/>
     <use xlink:href="#DejaVuSans-73" transform="translate(206.404297 0)"/>
     <use xlink:href="#DejaVuSans-74" transform="translate(258.503906 0)"/>
     <use xlink:href="#DejaVuSans-69" transform="translate(297.712891 0)"/>
     <use xlink:href="#DejaVuSans-63" transform="translate(325.496094 0)"/>
     <use xlink:href="#DejaVuSans-20" transform="translate(380.476562 0)"/>
     <use xlink:href="#DejaVuSans-52" transform="translate(412.263672 0)"/>
     <use xlink:href="#DejaVuSans-65" transform="translate(477.246094 0)"/>
     <use xlink:href="#DejaVuSans-67" transform="translate(538.769531 0)"/>
     <use xlink:href="#DejaVuSans-72" transform="translate(602.246094 0)"/>
     <use xlink:href="#DejaVuSans-65" transform="translate(641.109375 0)"/>
     <use xlink:href="#DejaVuSans-73" transform="translate(702.632812 0)"/>
     <use xlink:href="#DejaVuSans-73" transform="translate(754.732422 0)"/>
     <use xlink:href="#DejaVuSans-69" transform="translate(806.832031 0)"/>
     <use xlink:href="#DejaVuSans-6f" transform="translate(834.615234 0)"/>
     <use xlink:href="#DejaVuSans-6e" transform="translate(895.796875 0)"/>
     <use xlink:href="#DejaVuSans-20" transform="translate(959.175781 0)"/>
     <use xlink:href="#DejaVuSans-28" transform="translate(990.962891 0)"/>
     <use xlink:href="#DejaVuSans-74" transform="translate(1029.976562 0)"/>
     <use xlink:href="#DejaVuSans-75" transform="translate(1069.185547 0)"/>
     <use xlink:href="#DejaVuSans-6e" transform="translate(1132.564453 0)"/>
     <use xlink:href="#DejaVuSans-65" transform="translate(1195.943359 0)"/>
     <use xlink:href="#DejaVuSans-64" transform="translate(1257.466797 0)"/>
     <use xlink:href="#DejaVuSans-29" transform="translate(1320.943359 0)"/>
     <use xlink:href="#DejaVuSans-3a" transform="translate(1359.957031 0)"/>
     <use xlink:href="#DejaVuSans-20" transform="translate(1393.648438 0)"/>
     <use xlink:href="#DejaVuSans-4d" transform="translate(1425.435547 0)"/>
     <use xlink:href="#DejaVuSans-65" transform="translate(1511.714844 0)"/>
     <use xlink:href="#DejaVuSans-61" transform="translate(1573.238281 0)"/>
     <use xlink:href="#DejaVuSans-6e" transform="translate(1634.517578 0)"/>
     <use xlink:href="#DejaVuSans-20" transform="translate(1697.896484 0)"/>
     <use xlink:href="#DejaVuSans-50" transform="translate(1729.683594 0)"/>
     <use xlink:href="#DejaVuSans-52" transform="translate(1789.986328 0)"/>
     <use xlink:href="#DejaVuSans-20" transform="translate(1859.46875 0)"/>
     <use xlink:href="#DejaVuSans-43" transform="translate(1891.255859 0)"/>
     <use xlink:href="#DejaVuSans-75" transform="translate(1961.080078 0)"/>
     <use xlink:href="#DejaVuSans-72" transform="translate(2024.458984 0)"/>
     <use xlink:href="#DejaVuSans-76" transform="translate(2065.572266 0)"/>
     <use xlink:href="#DejaVuSans-65" transform="translate(2124.751953 0)"/>
     <use xlink:href="#DejaVuSans-20" transform="translate(2186.275391 0)"/>
     <use xlink:href="#DejaVuSans-28" transform="translate(2218.0625 0)"/>
     <use xlink:href="#DejaVuSans-41" transform="translate(2257.076172 0)"/>
     <use xlink:href="#DejaVuSans-50" transform="translate(2325.484375 0)"/>
     <use xlink:href="#DejaVuSans-3d" transform="translate(2385.787109 0)"/>
     <use xlink:href="#DejaVuSans-30" transform="translate(2469.576172 0)"/>
     <use xlink:href="#DejaVuSans-2e" transform="translate(2533.199219 0)"/>
     <use xlink:href="#DejaVuSans-38" transform="translate(2564.986328 0)"/>
     <use xlink:href="#DejaVuSans-38" transform="translate(2628.609375 0)"/>
     <use xlink:href="#DejaVuSans-39" transform="translate(2692.232422 0)"/>
     <use xlink:href="#DejaVuSans-20" transform="translate(2755.855469 0)"/>
     <use xlink:href="#DejaVuSans-2b" transform="translate(2787.642578 0)"/>
     <use xlink:href="#DejaVuSans-2f" transform="translate(2871.431641 0)"/>
     <use xlink:href="#DejaVuSans-2d" transform="translate(2905.123047 0)"/>
     <use xlink:href="#DejaVuSans-20" transform="translate(2941.207031 0)"/>
     <use xlink:href="#DejaVuSans-30" transform="translate(2972.994141 0)"/>
     <use xlink:href="#DejaVuSans-2e" transform="translate(3036.617188 0)"/>
     <use xlink:href="#DejaVuSans-31" transform="translate(3068.404297 0)"/>
     <use xlink:href="#DejaVuSans-31" transform="translate(3132.027344 0)"/>
     <use xlink:href="#DejaVuSans-39" transform="translate(3195.650391 0)"/>
     <use xlink:href="#DejaVuSans-29" transform="translate(3259.273438 0)"/>
    </g>
   </g>
  </g>
 </g>
 <defs>
  <clipPath id="pf35dd56a73">
   <rect x="49.242813" y="26.877187" width="558" height="388.08"/>
  </clipPath>
 </defs>
</svg>
